<svg xmlns:rdf="http://www.w3.org/1999/02/22-rdf-syntax-ns#" xmlns="http://www.w3.org/2000/svg" height="270.93mm" width="620.71mm" version="1.1" xmlns:cc="http://creativecommons.org/ns#" xmlns:dc="http://purl.org/dc/elements/1.1/" viewBox="0 0 2199.3591 960.00005">
 <g transform="translate(1354 -135.22)">
  <rect style="stroke-width:0;fill:#dcdcdc" height="960" width="960" y="135.22" x="-1223.3"/>
  <path style="stroke:#404040;stroke-width:5;fill:#ffffff" d="m-137.11 597.37h940c22.16 0 40 17.84 40 40v100c0 22.16-17.84 40-40 40h-940c-22.16 0-40-17.84-40-40v-21.097l-600.03-84.853 600.03 24.244v-18.294c0-22.16 17.84-40 40-40z"/>
  <path d="m-1139.6 224.15h800" style="stroke:#404040;stroke-width:5;fill:none"/>
  <path d="m-1139.6 264.15h720" style="stroke:#404040;stroke-width:5;fill:none"/>
  <path d="m-1139.6 304.15h760" style="stroke:#404040;stroke-width:5;fill:none"/>
  <path d="m-1139.6 344.15h440" style="stroke:#404040;stroke-width:5;fill:none"/>
  <path d="m-1139.6 698.72h680" style="stroke:#404040;stroke-width:5;fill:none"/>
  <path d="m-1139.6 738.72h760" style="stroke:#404040;stroke-width:5;fill:none"/>
  <path d="m-1139.6 778.72h800" style="stroke:#404040;stroke-width:5;fill:none"/>
  <path d="m-1139.6 818.72h480" style="stroke:#404040;stroke-width:5;fill:none"/>
  <path d="m-1139.6 938.72h680" style="stroke:#404040;stroke-width:5;fill:none"/>
  <path d="m-1139.6 978.72h480" style="stroke:#404040;stroke-width:5;fill:none"/>
  <path d="m-1139.6 1018.7h360" style="stroke:#404040;stroke-width:5;fill:none"/>
  <path style="fill:#404040" d="m-1134.9 521.71v-64.857h61.254 61.254v64.857 64.857h-61.254-61.254v-64.857zm79.27.11376v-11.897l-2.202 2.1746-2.2019 2.1746v7.3201 7.3201h-13.612-13.612v-9.2415c0-5.1468.1559-9.1824.3519-9.108.1936.0734 3.1677 2.7458 6.6093 5.9386s6.4387 5.8051 6.6603 5.8051 4.3629-3.6932 9.2028-8.2072c6.4159-5.9839 8.8003-8.4512 8.8017-9.108v-.90079h-18.016-18.016v14.813 14.813h18.016 18.016v-11.897zm-23.714-7.6168-5.4766-5.1081 5.5875-.11108c3.0731-.0611 8.1033-.0611 11.178 0l5.5908.11108-5.367 4.9966c-2.9519 2.7481-5.5176 5.0467-5.7017 5.1081-.184.0614-2.799-2.1871-5.8112-4.9966zm76.561 7.503v-64.857h61.254 61.254v64.857 64.857h-61.254-61.254v-64.857zm64.056 6.806v-8.007h2.7563 2.7563l.27598-2.302c.15179-1.2661.37224-2.7074.48989-3.2028.2086-.87845.13228-.9008-3.0775-.9008h-3.2914l.15558-2.7534c.2056-3.6387.59243-4.0526 3.7871-4.0526h2.5533v-3.0026-3.0026l-3.5031.009c-6.9114.0173-9.3082 2.4296-9.3082 9.3684v3.3976l-2.7024.11838-2.7024.11838v3.0026 3.0026l2.7024.11839 2.7024.11838v7.9888 7.9888h3.2028 3.2028v-8.0071zm68.06-6.806v-64.857h61.254 61.254v64.857 64.857h-61.254-61.254v-64.857zm59.371 11.414c8.4826-2.2094 14.791-9.2585 15.947-17.82.42737-3.1644.57497-3.5254 2.1056-5.1486 1.1826-1.2542 1.4206-1.6822.84535-1.5203-.44039.12391-1.3412.35064-2.0018.50385l-1.2011.27857.86033-.75999c.96793-.85507 2.373-2.9619 1.9753-2.9619-.14249 0-.90585.27024-1.6964.60053-1.9355.80869-2.7611.75744-4.1325-.25648-.67271-.49736-1.999-.9377-3.1604-1.0493-4.0728-.39135-7.5694 2.5572-7.9694 6.7204-.22676 2.3598-.55575 2.4462-4.5513 1.1954-3.1207-.97697-5.936-2.5774-8.467-4.8132-1.0555-.93242-2.0351-1.5792-2.177-1.4374-.14186.14186-.33639 1.3427-.4323 2.6685-.15654 2.1641-.0462 2.6168 1.0798 4.4281l1.2541 2.0175-1.2645-.27773c-1.261-.27695-1.2638-.27378-1.035 1.1361.3212 1.9794 1.3739 3.4234 3.46 4.7464l1.7913 1.136h-1.5165-1.5165l.73747 1.2593c.91057 1.5549 2.3018 2.6177 4.3638 3.3337l1.5783.54805-2.6154 1.2299c-1.5796.7428-3.6244 1.3353-5.1631 1.4962l-2.5477.26629 1.866.9483c3.9682 2.0167 9.3796 2.627 13.584 1.532zm72.745-11.414v-64.857h61.254 61.254v64.857 64.857h-61.254-61.254v-64.857zm51.856 14.396c.14185-.22952.12699-5.274-.0328-11.21l-.29102-10.793h-3.5466-3.5466v11.21 11.21h3.5796c2.0514 0 3.6897-.17815 3.8375-.41729zm11.709-7.0612.10902-7.2784 1.2228-1.029c1.673-1.4077 3.8698-1.4064 5.1952.003.94328 1.0032.9743 1.2397 1.1025 8.4074l.13187 7.3752h3.8072 3.8072l-.13568-8.1193c-.13015-7.7877-.17744-8.2004-1.1584-10.105-2.4718-4.7996-8.991-6.1422-12.754-2.6266l-1.1942 1.1155-.12107-1.242-.12103-1.242-3.6647-.1146-3.6647-.1146-.15754 10.924c-.0866 6.0083-.0893 11.066-.006 11.239.0834.17316 1.8034.26325 3.8222.20017l3.6707-.11459.10902-7.2784zm-13.211-18.546c.72112-.43967 1.4922-1.2756 1.7135-1.8578.5283-1.3896-.18044-3.5686-1.4263-4.3849-1.1285-.73944-3.7478-.83223-4.9736-.17619-2.4921 1.3337-2.1312 5.7498.55889 6.8402 1.3729.5565 2.755.41539 4.1275-.42145zm81.762 11.212v-64.857h132.52 132.52v64.857 64.857h-132.52-132.52v-64.857zm74.464 18.369c2.9913-1.6812 4.1035-5.7196 2.3036-8.3643-1.5057-2.2123-2.8955-2.9986-5.3005-2.9986-1.5785 0-2.4524.23173-3.335.88426l-1.196.88426-5.2431-2.854c-5.103-2.7776-5.2432-2.8896-5.2432-4.1872 0-.73327-.0232-1.4683-.0514-1.6335-.0284-.16515 2.3531-1.6672 5.292-3.338l5.3434-3.0377 1.3288.78399c1.0358.61112 1.8252.74282 3.5802.59727 2.0073-.16646 2.4153-.36231 3.7621-1.8062 1.9037-2.0409 2.3079-3.893 1.3798-6.3232-.95844-2.5097-2.6122-3.591-5.4921-3.591-1.6612 0-2.5768.22172-3.403.82414-1.607 1.1717-3.0262 4.066-2.7815 5.6729.19465 1.2786.14108 1.3264-5.0175 4.476l-5.2142 3.1836-1.2649-.77129c-3.9228-2.3919-9.0665.59772-9.0703 5.2719-.004 4.6775 4.9758 7.4934 9.1263 5.1607l1.596-.897 4.8438 2.5518c4.6404 2.4446 4.844 2.6054 4.8471 3.8269.0124 4.91 5.0524 8.0204 9.2098 5.6839zm65.553-6.0246c1.0024-.51587 2.3795-1.626 3.0601-2.4669 1.0785-1.3325 1.2555-1.8981 1.378-4.4021.12171-2.4885.0152-3.0579-.79578-4.2528-1.324-1.9509-2.7716-2.6674-8.1868-4.0525-5.5775-1.4266-6.5589-1.9537-6.5589-3.5231 0-1.9056 1.2649-2.6551 4.4806-2.6551 2.5662 0 2.8742.092 3.7613 1.1233.53143.61781.96622 1.4736.96622 1.9017 0 .69816.29418.77838 2.8546.77838h2.8545l-.20641-1.8315c-.27008-2.3959-1.9148-4.4546-4.6937-5.8753-1.7907-.91547-2.6643-1.1006-5.1845-1.0987-4.1482.003-5.9149.57445-7.8934 2.5529-3.4818 3.4818-3.2128 9.182.54311 11.508.70707.43784 3.3672 1.3073 5.9115 1.9322 2.5442.62486 5.0735 1.4294 5.6205 1.7878 2.0171 1.3216.86813 4.2417-1.8856 4.7924-3.5744.71489-6.0979-.20698-7.0246-2.5662l-.63893-1.6265-2.635.11684-2.6351.11685.0976 1.6014c.18657 3.0602 2.8733 5.7476 6.8843 6.886 2.749.78019 7.6801.40911 9.9266-.74701zm39.035-.14827c1.5424-1.0207 1.5726-1.0242 1.7851-.21156.19381.7412.5219.8267 3.1721.8267 3.1303 0 3.4843-.26868 2.3427-1.778-.4612-.60977-.5878-2.1876-.5878-7.3263 0-7.7289-.25166-8.5199-3.1312-9.8414-2.6215-1.2032-7.6096-1.2211-9.8803-.0356-1.7792.92895-3.386 3.327-3.3964 5.0691-.007 1.0849.03 1.101 2.5079 1.101 2.4136 0 2.5323-.0471 2.9578-1.1745.34355-.91018.77565-1.2369 1.92-1.4515 2.5444-.47734 4.6763 1.1381 3.3078 2.5066-.34054.34054-2.0816.85332-3.869 1.1395-5.1234.82034-7.2032 2.4976-7.5098 6.0564-.46281 5.3708 5.5331 8.3278 10.381 5.1197zm-3.9973-3.197c-.58308-.41239-.9008-1.0495-.9008-1.8062 0-1.4369 1.0103-2.1449 3.9231-2.7492 1.1669-.24209 2.2028-.44016 2.302-.44016.32217 0 .19073 1.9226-.20202 2.9556-.73913 1.9441-3.6301 3.0954-5.1224 2.04zm39.735 4.171c2.7928-.76287 5.7994-3.6969 5.8036-5.6635 0-.59357-.38546-.70061-2.531-.70061-2.16 0-2.6661.14222-3.441.967-1.2235 1.3023-2.5419 1.568-4.2466.85578-.96978-.40521-1.6045-1.037-2.0051-1.9957-.32236-.77154-.58612-1.4986-.58612-1.6158 0-.11718 2.9726-.21304 6.6058-.21304h6.6058v-1.9291c0-2.6888-.96568-5.6482-2.3289-7.1373-1.92-2.0972-3.5111-2.7271-6.9106-2.736-2.6758-.007-3.2667.13409-5.0044 1.1951-2.9479 1.7998-4.1736 4.4397-4.1684 8.9777.007 5.611 1.6799 8.2142 6.3546 9.8848 1.7989.64285 3.768.68013 5.8522.11082zm-6.6067-12.816c0-1.0084 1.478-2.6384 2.6584-2.9346 1.4607-.3666 3.2658.45976 3.9672 1.8162.31988.61863.58163 1.211.58163 1.3164s-1.6218.24947-3.6041.32014c-3.1043.11068-3.604.0389-3.6032-.51813zm-54.774 5.8592c.12383-6.4316.15226-6.6224 1.1279-7.5758.55049-.53791 1.3612-1.0127 1.8016-1.055 3.4453-.33135 3.8034.49741 3.8034 8.8031v6.4255h2.8442 2.8443l-.14189-7.907c-.1362-7.5925-.18008-7.9606-1.1031-9.2548-2.2778-3.1937-7.5462-3.7832-10.349-1.158l-.9008.84382v-4.2735-4.2735h-2.8025-2.8025v12.745c0 7.0095.12011 12.865.26692 13.011.14677.1468 1.3957.26691 2.7755.26691h2.5086l.12702-6.5978zm42.036.35671.12828-6.2411 1.1233-.96527c.82252-.70683 1.5996-.96527 2.9026-.96527h1.7792v-2.8025c0-2.7319-.0256-2.8025-1.0137-2.8025-1.5486 0-3.5594.98111-4.524 2.2074l-.86792 1.1034v-1.4743-1.4743l-2.5022.11919-2.5022.11919-.1072 9.7086-.10722 9.7086h2.7814 2.7814l.12827-6.2411z"/>
  <path style="stroke:#404040;stroke-width:10;fill:none" d="m-1259 401.55c-120 0-120 240 0 240"/>
  <path style="stroke:#404040;stroke-width:10;fill:none" d="m-1275 612.92 18.955 31.943-31.943 18.955"/>
  <path style="stroke:#404040;stroke-width:5;fill:#ffffff" d="m-143.78 251.65h640c22.16 0 40 17.84 40 40v120c0 22.16-17.84 40-40 40h-640c-22.16 0-40-17.84-40-40l-589.93 7.6327 589.93-62.63v-65.003c0-22.16 17.84-40 40-40z"/>
  <g style="fill:#404040">
   <path style="fill:#404040" d="m-113.98 336.1q0 2.52-1.44 3.96-1.35 1.44-3.96 1.44-5.76 0-5.76-7.74 0-2.52.81-5.22.9-2.79 2.52-5.31t3.69-4.5h6.57q-3.06 3.06-4.95 6.12-1.8 2.97-2.34 6.12 2.25.18 3.51 1.53 1.35 1.35 1.35 3.6zm16.74 0q0 2.52-1.44 3.96-1.35 1.44-3.96 1.44-5.76 0-5.76-7.74 0-2.52.81-5.22.9-2.79 2.52-5.31t3.69-4.5h6.57q-3.06 3.06-4.95 6.12-1.8 2.97-2.34 6.12 2.25.18 3.51 1.53 1.35 1.35 1.35 3.6z"/>
   <path style="fill:#404040" d="m-41.118 364.99q0 6.03-2.88 10.35t-8.28 6.75q-5.31 2.34-12.6 2.34-11.97 0-21.06-4.41l-.54-15.39h6.57l2.16 11.34q2.79 1.44 5.94 2.07t7.11.63q4.41 0 7.65-1.44 3.33-1.53 5.04-4.23 1.8-2.7 1.8-6.48 0-3.24-1.44-5.49-1.35-2.25-4.68-3.87-3.24-1.62-9.09-2.97-7.47-1.8-11.88-4.14t-6.39-5.76-1.98-8.37q0-5.58 2.79-9.72 2.88-4.23 8.01-6.48 5.13-2.34 12.15-2.34 4.95 0 9.63.99t9.36 3.06l.54 14.58h-6.39l-2.07-10.62q-2.43-1.17-5.13-1.71t-6.12-.54q-4.23 0-7.38 1.35t-4.86 3.87q-1.62 2.52-1.62 6.03 0 2.52.63 4.32.72 1.8 2.34 3.15 1.62 1.26 4.5 2.34t7.29 2.16q7.65 1.8 12.15 4.23 4.59 2.43 6.66 5.94 2.07 3.42 2.07 8.46z"/>
   <path style="fill:#404040" d="m-11.401 378.4v4.68h-21.15v-4.68l6.39-.45v-56.16l-6.93-.45v-4.59l13.68-1.26h1.89v41.22l4.68-.81q3.87-3.51 7.2-6.75 3.42-3.24 6.84-6.75l-6.48-.81v-4.68h19.71v4.68l-5.4.81q-3.69 3.6-7.47 7.2-3.78 3.51-7.74 7.2 4.86 5.31 9.45 10.62 4.68 5.31 9 10.53l5.4.45v4.68h-21.78v-4.68l6.12-.45q-3.69-4.59-7.38-8.82-3.69-4.32-7.38-8.37l-4.77.72v16.47l6.12.45z"/>
   <path style="fill:#404040" d="m32.463 328.27q-2.52 0-3.87-1.35-1.35-1.44-1.35-3.87t1.53-3.87 4.23-1.44q2.43 0 3.78 1.44 1.44 1.35 1.44 3.69 0 2.52-1.53 3.96t-4.23 1.44zm11.61 54.81h-21.42v-4.68l6.39-.45v-35.28l-6.84-.45v-4.59l13.59-1.26h1.89v41.58l6.39.45v4.68z"/>
   <path style="fill:#404040" d="m73.707 398.74v4.68h-22.5v-4.68l6.39-.45v-55.62l-6.84-.45v-4.59l12.24-1.26h1.89l.81 6.21q3.06-3.42 6.66-5.13 3.69-1.71 8.19-1.71 5.85 0 10.08 2.88 4.23 2.79 6.48 8.01 2.34 5.13 2.34 12.15 0 7.92-2.79 13.68-2.7 5.67-7.92 8.73-5.13 3.06-12.42 3.06-5.49 0-10.08-1.98v16.02l7.47.45zm4.32-56.61q-6.93 0-11.79 5.49v28.44q4.95 2.61 9.9 2.61 6.84 0 10.53-4.86t3.69-13.86q0-8.55-3.24-13.14-3.15-4.68-9.09-4.68z"/>
   <path style="fill:#404040" d="m164.81 369.76q0 4.5-2.25 7.74-2.16 3.24-6.3 5.04-4.14 1.71-9.72 1.71-4.32 0-8.37-.81-3.96-.72-7.47-2.25l-.45-11.52h6.03l1.35 7.65q1.98.9 4.14 1.26t4.95.36q4.5 0 7.2-2.16t2.7-5.76q0-2.07-.99-3.42-.9-1.44-3.15-2.43t-6.21-1.89q-5.67-1.26-9.09-3.06t-4.95-4.32-1.53-6.3q0-4.23 2.16-7.29 2.16-3.15 6.12-4.86t9.36-1.71q7.92 0 14.49 2.97l.45 10.8h-5.94l-1.26-7.11q-3.24-1.44-7.92-1.44-4.41 0-7.02 1.98t-2.61 5.31q0 2.16.81 3.51.9 1.35 3.15 2.34 2.25.9 6.21 1.8 5.94 1.26 9.45 3.06 3.6 1.71 5.13 4.32t1.53 6.48z"/>
   <path style="fill:#404040" d="m194.54 378.4v4.68h-21.6v-4.68l6.39-.45v-56.16l-6.93-.45v-4.59l13.68-1.26h1.89v27q3.06-3.42 6.57-5.04 3.6-1.71 8.01-1.71 7.29 0 11.16 4.32 3.96 4.32 3.96 12.51v25.38l6.39.45v4.68h-21.6v-4.68l6.57-.45v-24.93q0-5.22-2.34-8.01t-6.75-2.79q-3.42 0-6.39 1.44-2.88 1.35-5.58 4.41v29.88l6.57.45z"/>
   <path style="fill:#404040" d="m261.28 383.44-.72-5.94q-2.7 3.24-6.57 5.04-3.78 1.71-8.55 1.71-4.41 0-7.65-1.53-3.15-1.62-4.95-4.5-1.71-2.88-1.71-6.75 0-7.11 5.22-10.89 5.31-3.78 15.21-3.78 1.89 0 4.05.18t4.32.54v-4.86q0-5.4-2.7-8.01-2.61-2.61-8.1-2.61-3.87 0-7.38 1.17-3.51 1.08-7.2 3.51v-6.21q3.6-2.25 7.83-3.51 4.32-1.26 8.82-1.26 8.28 0 12.69 4.23t4.41 12.24v24.93l6.84.45v4.59l-11.97 1.26h-1.89zm-21.51-13.05q0 3.87 2.16 5.94 2.25 2.07 6.48 2.07 3.42 0 6.12-1.35 2.79-1.35 5.4-4.32v-9.9q-2.52-.63-4.59-.9t-4.05-.27q-5.85 0-8.73 2.16-2.79 2.16-2.79 6.57z"/>
   <path style="fill:#404040" d="m305.06 378.4v4.68h-23.13v-4.68l6.39-.45v-35.28l-6.84-.45v-4.59l12.15-1.26h1.89l1.08 8.1q2.34-4.05 5.58-6.21 3.33-2.16 7.29-2.16 1.89 0 3.51.36t2.79.99v8.01q-1.53-.9-3.33-1.44-1.71-.54-3.69-.54-7.47 0-11.79 6.84v27.63l8.1.45z"/>
   <path style="fill:#404040" d="m330.76 328.27q-2.52 0-3.87-1.35-1.35-1.44-1.35-3.87t1.53-3.87 4.23-1.44q2.43 0 3.78 1.44 1.44 1.35 1.44 3.69 0 2.52-1.53 3.96t-4.23 1.44zm11.61 54.81h-21.42v-4.68l6.39-.45v-35.28l-6.84-.45v-4.59l13.59-1.26h1.89v41.58l6.39.45v4.68z"/>
   <path style="fill:#404040" d="m371.56 378.4v4.68h-21.6v-4.68l6.39-.45v-35.28l-6.84-.45v-4.59l12.24-1.26h1.89l.9 6.66q3.15-3.69 6.84-5.49t8.19-1.8q7.29 0 11.16 4.32 3.96 4.32 3.96 12.51v25.38l6.39.45v4.68h-21.6v-4.68l6.57-.45v-24.93q0-5.22-2.34-8.01t-6.75-2.79q-3.42 0-6.39 1.44-2.88 1.35-5.58 4.41v29.88l6.57.45z"/>
   <path style="fill:#404040" d="m450.62 388.48q0 3.6-1.71 6.57-1.62 2.97-4.77 5.04-3.15 2.16-7.47 3.33t-9.54 1.17q-9.63 0-14.85-3.06-5.13-3.06-5.13-8.82 0-4.05 2.61-7.11 2.7-3.06 7.47-4.59-2.34-1.08-3.69-2.88-1.26-1.8-1.26-4.14 0-2.7 1.44-4.68 1.53-2.07 4.41-3.6-4.14-1.71-6.39-5.13-2.25-3.51-2.25-8.37 0-5.13 2.34-8.82 2.43-3.69 6.84-5.67t10.44-1.98q2.25 0 4.23.36 1.98.27 3.6.81h14.85v5.4l-8.55-.81q4.05 3.87 4.05 9.63 0 4.95-2.43 8.64-2.34 3.69-6.84 5.67-4.41 1.98-10.53 1.98-2.7 0-5.13-.45-2.52 1.98-2.52 4.77 0 1.89 1.26 2.97 1.35.99 3.78 1.08l10.44.36q15.3.54 15.3 12.33zm-22.05-47.52q-5.04 0-7.92 2.88-2.79 2.79-2.79 7.92 0 5.04 2.61 7.74 2.7 2.7 7.74 2.7 5.22 0 8.01-2.79 2.79-2.88 2.79-8.01 0-5.04-2.7-7.74t-7.74-2.7zm-13.68 50.49q0 7.56 12.78 7.56 7.2 0 11.16-2.52 3.96-2.43 3.96-6.93 0-3.24-2.25-4.86t-7.02-1.8l-11.16-.45q-3.6 1.26-5.58 3.51-1.89 2.34-1.89 5.49z"/>
   <path style="fill:#404040" d="m470.67 325.84q0 2.52-.9 5.31-.81 2.7-2.43 5.22t-3.69 4.5h-6.57q3.06-3.06 4.86-6.03 1.89-3.06 2.43-6.21-2.25-.18-3.6-1.53-1.26-1.35-1.26-3.6 0-2.52 1.35-3.96 1.44-1.44 4.05-1.44 5.76 0 5.76 7.74zm16.74 0q0 2.52-.9 5.31-.81 2.7-2.43 5.22t-3.69 4.5h-6.57q3.06-3.06 4.86-6.03 1.89-3.06 2.43-6.21-2.25-.18-3.6-1.53-1.26-1.35-1.26-3.6 0-2.52 1.35-3.96 1.44-1.44 4.05-1.44 5.76 0 5.76 7.74z"/>
  </g>
  <g style="fill:#404040">
   <path style="fill:#404040" d="m-120.04 674.08q0 2.52-1.44 3.96-1.35 1.44-3.96 1.44-5.76 0-5.76-7.74 0-2.52.81-5.22.9-2.79 2.52-5.31t3.69-4.5h6.57q-3.06 3.06-4.95 6.12-1.8 2.97-2.34 6.12 2.25.18 3.51 1.53 1.35 1.35 1.35 3.6zm16.74 0q0 2.52-1.44 3.96-1.35 1.44-3.96 1.44-5.76 0-5.76-7.74 0-2.52.81-5.22.9-2.79 2.52-5.31t3.69-4.5h6.57q-3.06 3.06-4.95 6.12-1.8 2.97-2.34 6.12 2.25.18 3.51 1.53 1.35 1.35 1.35 3.6z"/>
   <path style="fill:#404040" d="m-41.509 721.06h-50.76v-5.04l7.38-.54v-53.19l-7.38-.54v-5.04h49.05l.63 15.93h-6.3l-1.98-10.35h-24.93v22.5h15.84l1.53-7.65h5.31v21.06h-5.31l-1.53-7.92h-15.84v25.2h26.28l2.25-11.61h6.39l-.63 17.19z"/>
   <path style="fill:#404040" d="m-11.203 716.38v4.68h-21.6v-4.68l6.39-.45v-35.28l-6.84-.45v-4.59l12.24-1.26h1.89l.9 6.66q3.15-3.69 6.84-5.49t8.19-1.8q7.29 0 11.16 4.32 3.96 4.32 3.96 12.51v25.38l6.39.45v4.68h-21.6v-4.68l6.57-.45v-24.93q0-5.22-2.34-8.01t-6.75-2.79q-3.42 0-6.39 1.44-2.88 1.35-5.58 4.41v29.88l6.57.45z"/>
   <path style="fill:#404040" d="m60.117 721.42-.72-6.03q-3.15 3.51-6.75 5.22-3.6 1.62-8.01 1.62-5.85 0-10.08-2.79t-6.57-7.92-2.34-12.15q0-8.01 2.79-13.77 2.88-5.76 8.1-8.82 5.31-3.06 12.69-3.06 5.22 0 9.63 1.8v-15.75l-7.38-.45v-4.59l14.13-1.26h1.89v61.65l6.84.45v4.59l-12.33 1.26h-1.89zm-25.38-23.22q0 8.46 3.24 13.05t9.09 4.59q6.84 0 11.79-5.58v-28.53q-2.34-1.26-4.68-1.8-2.25-.63-4.86-.63-7.11 0-10.89 4.95-3.69 4.86-3.69 13.95z"/>
   <path style="fill:#404040" d="m124.85 722.23q-6.75 0-11.52-2.79t-7.29-8.01-2.52-12.51q0-7.74 2.79-13.41 2.88-5.67 8.01-8.73 5.22-3.06 12.42-3.06 6.66 0 11.43 2.79 4.86 2.79 7.38 8.01t2.52 12.51q0 7.83-2.88 13.5-2.79 5.58-8.01 8.64t-12.33 3.06zm1.26-43.02q-6.39 0-9.99 5.04-3.51 5.04-3.51 14.13 0 8.82 3.33 13.59 3.42 4.77 9.54 4.77 6.39 0 9.9-5.04 3.6-5.04 3.6-14.13 0-8.73-3.42-13.5-3.33-4.86-9.45-4.86z"/>
   <path style="fill:#404040" d="m179.11 716.38v4.68h-22.5v-4.68l6.39-.45v-35.46h-8.37v-4.77l8.37-.63v-3.15q0-5.94 1.98-10.17 2.07-4.32 5.85-6.57 3.78-2.34 9.18-2.34 2.52 0 4.59.54 2.07.45 4.05 1.62v6.12q-3.6-2.07-7.38-2.07-9.63 0-9.63 12.15v3.69h13.41v5.58h-13.41v35.46l7.47.45z"/>
   <path style="fill:#404040" d="m247.34 707.74q0 4.5-2.25 7.74-2.16 3.24-6.3 5.04-4.14 1.71-9.72 1.71-4.32 0-8.37-.81-3.96-.72-7.47-2.25l-.45-11.52h6.03l1.35 7.65q1.98.9 4.14 1.26t4.95.36q4.5 0 7.2-2.16t2.7-5.76q0-2.07-.99-3.42-.9-1.44-3.15-2.43t-6.21-1.89q-5.67-1.26-9.09-3.06t-4.95-4.32-1.53-6.3q0-4.23 2.16-7.29 2.16-3.15 6.12-4.86t9.36-1.71q7.92 0 14.49 2.97l.45 10.8h-5.94l-1.26-7.11q-3.24-1.44-7.92-1.44-4.41 0-7.02 1.98t-2.61 5.31q0 2.16.81 3.51.9 1.35 3.15 2.34 2.25.9 6.21 1.8 5.94 1.26 9.45 3.06 3.6 1.71 5.13 4.32t1.53 6.48z"/>
   <path style="fill:#404040" d="m277.07 716.38v4.68h-21.6v-4.68l6.39-.45v-56.16l-6.93-.45v-4.59l13.68-1.26h1.89v27q3.06-3.42 6.57-5.04 3.6-1.71 8.01-1.71 7.29 0 11.16 4.32 3.96 4.32 3.96 12.51v25.38l6.39.45v4.68h-21.6v-4.68l6.57-.45v-24.93q0-5.22-2.34-8.01t-6.75-2.79q-3.42 0-6.39 1.44-2.88 1.35-5.58 4.41v29.88l6.57.45z"/>
   <path style="fill:#404040" d="m343.81 721.42-.72-5.94q-2.7 3.24-6.57 5.04-3.78 1.71-8.55 1.71-4.41 0-7.65-1.53-3.15-1.62-4.95-4.5-1.71-2.88-1.71-6.75 0-7.11 5.22-10.89 5.31-3.78 15.21-3.78 1.89 0 4.05.18t4.32.54v-4.86q0-5.4-2.7-8.01-2.61-2.61-8.1-2.61-3.87 0-7.38 1.17-3.51 1.08-7.2 3.51v-6.21q3.6-2.25 7.83-3.51 4.32-1.26 8.82-1.26 8.28 0 12.69 4.23t4.41 12.24v24.93l6.84.45v4.59l-11.97 1.26h-1.89zm-21.51-13.05q0 3.87 2.16 5.94 2.25 2.07 6.48 2.07 3.42 0 6.12-1.35 2.79-1.35 5.4-4.32v-9.9q-2.52-.63-4.59-.9t-4.05-.27q-5.85 0-8.73 2.16-2.79 2.16-2.79 6.57z"/>
   <path style="fill:#404040" d="m387.59 716.38v4.68h-23.13v-4.68l6.39-.45v-35.28l-6.84-.45v-4.59l12.15-1.26h1.89l1.08 8.1q2.34-4.05 5.58-6.21 3.33-2.16 7.29-2.16 1.89 0 3.51.36t2.79.99v8.01q-1.53-.9-3.33-1.44-1.71-.54-3.69-.54-7.47 0-11.79 6.84v27.63l8.1.45z"/>
   <path style="fill:#404040" d="m413.3 666.25q-2.52 0-3.87-1.35-1.35-1.44-1.35-3.87t1.53-3.87 4.23-1.44q2.43 0 3.78 1.44 1.44 1.35 1.44 3.69 0 2.52-1.53 3.96t-4.23 1.44zm11.61 54.81h-21.42v-4.68l6.39-.45v-35.28l-6.84-.45v-4.59l13.59-1.26h1.89v41.58l6.39.45v4.68z"/>
   <path style="fill:#404040" d="m454.09 716.38v4.68h-21.6v-4.68l6.39-.45v-35.28l-6.84-.45v-4.59l12.24-1.26h1.89l.9 6.66q3.15-3.69 6.84-5.49t8.19-1.8q7.29 0 11.16 4.32 3.96 4.32 3.96 12.51v25.38l6.39.45v4.68h-21.6v-4.68l6.57-.45v-24.93q0-5.22-2.34-8.01t-6.75-2.79q-3.42 0-6.39 1.44-2.88 1.35-5.58 4.41v29.88l6.57.45z"/>
   <path style="fill:#404040" d="m533.15 726.46q0 3.6-1.71 6.57-1.62 2.97-4.77 5.04-3.15 2.16-7.47 3.33t-9.54 1.17q-9.63 0-14.85-3.06-5.13-3.06-5.13-8.82 0-4.05 2.61-7.11 2.7-3.06 7.47-4.59-2.34-1.08-3.69-2.88-1.26-1.8-1.26-4.14 0-2.7 1.44-4.68 1.53-2.07 4.41-3.6-4.14-1.71-6.39-5.13-2.25-3.51-2.25-8.37 0-5.13 2.34-8.82 2.43-3.69 6.84-5.67t10.44-1.98q2.25 0 4.23.36 1.98.27 3.6.81h14.85v5.4l-8.55-.81q4.05 3.87 4.05 9.63 0 4.95-2.43 8.64-2.34 3.69-6.84 5.67-4.41 1.98-10.53 1.98-2.7 0-5.13-.45-2.52 1.98-2.52 4.77 0 1.89 1.26 2.97 1.35.99 3.78 1.08l10.44.36q15.3.54 15.3 12.33zm-22.05-47.52q-5.04 0-7.92 2.88-2.79 2.79-2.79 7.92 0 5.04 2.61 7.74 2.7 2.7 7.74 2.7 5.22 0 8.01-2.79 2.79-2.88 2.79-8.01 0-5.04-2.7-7.74t-7.74-2.7zm-13.68 50.49q0 7.56 12.78 7.56 7.2 0 11.16-2.52 3.96-2.43 3.96-6.93 0-3.24-2.25-4.86t-7.02-1.8l-11.16-.45q-3.6 1.26-5.58 3.51-1.89 2.34-1.89 5.49z"/>
   <path style="fill:#404040" d="m591.2 719.8q-2.7 1.26-5.04 1.8-2.25.54-5.22.54-6.57 0-9.81-3.6-3.15-3.6-3.15-11.07v-27h-9v-4.77l9-.63v-12.87l8.64-1.98v14.67h13.41v5.58h-13.41v26.28q0 4.86 1.53 7.11 1.62 2.16 5.31 2.16 1.98 0 3.96-.54 1.98-.63 3.78-1.71v6.03z"/>
   <path style="fill:#404040" d="m618.97 722.23q-6.75 0-11.52-2.79t-7.29-8.01-2.52-12.51q0-7.74 2.79-13.41 2.88-5.67 8.01-8.73 5.22-3.06 12.42-3.06 6.66 0 11.43 2.79 4.86 2.79 7.38 8.01t2.52 12.51q0 7.83-2.88 13.5-2.79 5.58-8.01 8.64t-12.33 3.06zm1.26-43.02q-6.39 0-9.99 5.04-3.51 5.04-3.51 14.13 0 8.82 3.33 13.59 3.42 4.77 9.54 4.77 6.39 0 9.9-5.04 3.6-5.04 3.6-14.13 0-8.73-3.42-13.5-3.33-4.86-9.45-4.86z"/>
   <path style="fill:#404040" d="m671.88 722.23q-6.75 0-11.52-2.79t-7.29-8.01-2.52-12.51q0-7.74 2.79-13.41 2.88-5.67 8.01-8.73 5.22-3.06 12.42-3.06 6.66 0 11.43 2.79 4.86 2.79 7.38 8.01t2.52 12.51q0 7.83-2.88 13.5-2.79 5.58-8.01 8.64t-12.33 3.06zm1.26-43.02q-6.39 0-9.99 5.04-3.51 5.04-3.51 14.13 0 8.82 3.33 13.59 3.42 4.77 9.54 4.77 6.39 0 9.9-5.04 3.6-5.04 3.6-14.13 0-8.73-3.42-13.5-3.33-4.86-9.45-4.86z"/>
   <path style="fill:#404040" d="m709.4 659.77-6.93-.45v-4.59l13.68-1.26h1.89v62.46l6.39.45v4.68h-21.42v-4.68l6.39-.45v-56.16z"/>
   <path style="fill:#404040" d="m767.48 707.74q0 4.5-2.25 7.74-2.16 3.24-6.3 5.04-4.14 1.71-9.72 1.71-4.32 0-8.37-.81-3.96-.72-7.47-2.25l-.45-11.52h6.03l1.35 7.65q1.98.9 4.14 1.26t4.95.36q4.5 0 7.2-2.16t2.7-5.76q0-2.07-.99-3.42-.9-1.44-3.15-2.43t-6.21-1.89q-5.67-1.26-9.09-3.06t-4.95-4.32-1.53-6.3q0-4.23 2.16-7.29 2.16-3.15 6.12-4.86t9.36-1.71q7.92 0 14.49 2.97l.45 10.8h-5.94l-1.26-7.11q-3.24-1.44-7.92-1.44-4.41 0-7.02 1.98t-2.61 5.31q0 2.16.81 3.51.9 1.35 3.15 2.34 2.25.9 6.21 1.8 5.94 1.26 9.45 3.06 3.6 1.71 5.13 4.32t1.53 6.48z"/>
   <path style="fill:#404040" d="m788.75 663.82q0 2.52-.9 5.31-.81 2.7-2.43 5.22t-3.69 4.5h-6.57q3.06-3.06 4.86-6.03 1.89-3.06 2.43-6.21-2.25-.18-3.6-1.53-1.26-1.35-1.26-3.6 0-2.52 1.35-3.96 1.44-1.44 4.05-1.44 5.76 0 5.76 7.74zm16.74 0q0 2.52-.9 5.31-.81 2.7-2.43 5.22t-3.69 4.5h-6.57q3.06-3.06 4.86-6.03 1.89-3.06 2.43-6.21-2.25-.18-3.6-1.53-1.26-1.35-1.26-3.6 0-2.52 1.35-3.96 1.44-1.44 4.05-1.44 5.76 0 5.76 7.74z"/>
  </g>
 </g>
</svg>
