<svg xmlns:rdf="http://www.w3.org/1999/02/22-rdf-syntax-ns#" xmlns="http://www.w3.org/2000/svg" height="308.81mm" width="597.07mm" version="1.1" xmlns:cc="http://creativecommons.org/ns#" xmlns:dc="http://purl.org/dc/elements/1.1/" viewBox="0 0 2115.6145 1094.2083">
 <g transform="translate(1446.4 106.17)">
  <rect style="stroke-width:0;fill:#dcdcdc" height="960" width="960" y="-106.17" x="-1446.4"/>
  <rect style="stroke-width:0;fill:#dcdcdc" height="960" width="960" y="-106.17" x="-290.76"/>
  <g style="fill:#404040">
   <path style="fill:#404040" d="m-1334.4 126.03q-4.7358-9.4715-9.2563-18.943-4.5205-9.5791-8.9333-19.051v52.308h-15.822v-76.956h19.912q5.0587 11.839 10.333 23.679 5.2739 11.732 10.763 23.248 5.3816-11.516 10.656-23.141 5.2739-11.732 10.225-23.786h19.374v76.956h-15.822v-52.524q-4.4129 9.6868-9.041 19.266-4.5205 9.4715-9.1486 18.943h-13.238z"/>
   <path style="fill:#404040" d="m-1229.5 141.42q-9.2562 0-11.516-6.1349-3.4442 3.2289-7.4265 4.8434t-8.8257 1.6145q-8.3952 0-13.131-4.3052-4.7358-4.4128-4.7358-12.162 0-8.5028 6.4578-13.023 6.5655-4.6281 18.835-4.6281 1.7221 0 3.6594.21526 2.045.10763 3.9824.43052v-2.4755q0-5.0586-2.7984-7.5341t-8.6105-2.4755q-4.8433 0-9.1486 1.2916-4.1976 1.2916-8.1799 4.09v-13.346q4.6281-2.2602 9.5791-3.4442 4.951-1.1839 10.01-1.1839 11.732 0 18.082 5.9197 6.3502 5.8121 6.3502 16.683v20.88q0 1.9374.6458 2.906.6458.86104 2.3679.86104.861 0 1.6144-.10763.7535-.21526 1.5069-.64578v9.7944q-1.7221.86105-4.09 1.3992-2.2602.53815-4.6281.53815zm-30.137-17.544q0 6.5655 7.5342 6.5655 5.7044 0 9.902-4.6281v-8.5028q-1.5069-.32289-3.2289-.43052-1.6145-.21526-3.229-.21526-5.5968 0-8.2875 1.7221-2.6908 1.7221-2.6908 5.4892z"/>
   <path style="fill:#404040" d="m-1204.6 59.832q4.3052 0 6.7807 2.2602 2.4755 2.1526 2.4755 6.0273 0 3.7671-2.4755 6.0273-2.4755 2.1526-6.7807 2.1526-4.3053 0-6.7808-2.1526-2.4755-2.2602-2.4755-6.0273 0-3.8747 2.4755-6.0273 2.4755-2.2602 6.7808-2.2602zm-7.9647 24.755h15.929v55.753h-15.929v-55.753z"/>
   <path style="fill:#404040" d="m-1155.8 96.212q-6.2425 0-10.548 5.2739v38.855h-15.929v-55.753h13.669l.861 6.7807q6.8884-8.1799 16.898-8.1799 9.1486 0 14.207 5.7044 5.0586 5.5968 5.0586 16.037v35.41h-15.929v-34.765q0-4.6281-2.1526-6.996t-6.135-2.3679z"/>
   <path style="fill:#404040" d="m-1066.2 96.212q-6.2426 0-10.548 5.2739v38.855h-15.929v-80.185h15.929v29.706q6.4578-6.6731 15.499-6.6731 9.1486 0 14.207 5.7044 5.0587 5.5968 5.0587 16.037v35.41h-15.929v-34.765q0-4.6281-2.1526-6.996t-6.1349-2.3679z"/>
   <path style="fill:#404040" d="m-982.11 137.54q-8.2876 4.1976-19.589 4.1976-9.1486 0-15.714-3.4442t-10.117-9.902q-3.4442-6.5655-3.4442-15.714 0-6.7807 1.8297-12.162 1.9373-5.4892 5.4892-9.3639 3.5518-3.8747 8.5028-5.9197t11.086-2.045q11.732 0 17.974 7.3189 6.2426 7.2113 6.2426 20.773v4.6281h-35.518q.8611 6.7807 4.7358 10.01 3.9823 3.2289 11.409 3.2289 4.951 0 8.9333-1.0763 4.09-1.0763 8.1799-3.4442v12.916zm-22.172-42.837q-4.5205 0-7.3189 3.1213-2.7984 3.0137-3.6595 8.7181h20.665q-.43052-6.1349-2.7984-8.9333-2.3679-2.906-6.8883-2.906z"/>
   <path style="fill:#404040" d="m-926.39 141.42q-9.2562 0-11.516-6.1349-3.4442 3.2289-7.4265 4.8434t-8.8257 1.6145q-8.3952 0-13.131-4.3052-4.7358-4.4128-4.7358-12.162 0-8.5028 6.4578-13.023 6.5655-4.6281 18.835-4.6281 1.7221 0 3.6594.21526 2.045.10763 3.9823.43052v-2.4755q0-5.0586-2.7984-7.5341t-8.6104-2.4755q-4.8434 0-9.1486 1.2916-4.1976 1.2916-8.1799 4.09v-13.346q4.6281-2.2602 9.5791-3.4442 4.951-1.1839 10.01-1.1839 11.732 0 18.082 5.9197 6.3502 5.8121 6.3502 16.683v20.88q0 1.9374.64578 2.906.64579.86104 2.3679.86104.86104 0 1.6144-.10763.75342-.21526 1.5068-.64578v9.7944q-1.7221.86105-4.09 1.3992-2.2602.53815-4.6281.53815zm-30.137-17.544q0 6.5655 7.5341 6.5655 5.7044 0 9.902-4.6281v-8.5028q-1.5068-.32289-3.2289-.43052-1.6145-.21526-3.2289-.21526-5.5968 0-8.2876 1.7221t-2.6908 5.4892z"/>
   <path style="fill:#404040" d="m-872.38 140.34-.75342-6.135q-3.2289 3.8747-7.2112 5.7044t-8.7181 1.8297q-7.1036 0-12.378-3.4442-5.1663-3.4442-7.9647-9.7944t-2.7984-14.961q0-9.3639 3.3366-16.145 3.3366-6.7807 9.3639-10.44 6.135-3.7671 14.53-3.7671 5.4892 0 10.333 2.2602v-25.293h15.929v80.185h-13.669zm-23.571-27.446q0 7.7494 2.7984 11.839 2.906 4.09 8.5028 4.09 2.906 0 5.3815-1.0763 2.4755-1.1839 4.6281-3.6594v-25.939q-2.045-1.0763-3.9823-1.5068-1.8297-.53815-3.9823-.53815-6.3502 0-9.902 4.4129-3.4442 4.4128-3.4442 12.378z"/>
   <path style="fill:#404040" d="m-836.27 59.832q4.3052 0 6.7807 2.2602 2.4755 2.1526 2.4755 6.0273 0 3.7671-2.4755 6.0273-2.4755 2.1526-6.7807 2.1526t-6.7807-2.1526q-2.4755-2.2602-2.4755-6.0273 0-3.8747 2.4755-6.0273 2.4755-2.2602 6.7807-2.2602zm-7.9647 24.755h15.929v55.753h-15.929v-55.753z"/>
   <path style="fill:#404040" d="m-787.49 96.212q-6.2426 0-10.548 5.2739v38.855h-15.929v-55.753h13.669l.86105 6.7807q6.8884-8.1799 16.898-8.1799 9.1486 0 14.207 5.7044 5.0586 5.5968 5.0586 16.037v35.41h-15.929v-34.765q0-4.6281-2.1526-6.996t-6.1349-2.3679z"/>
   <path style="fill:#404040" d="m-698.74 139.26q0 13.131-7.4265 19.912-7.4265 6.8884-21.741 6.8884-5.812 0-10.871-1.0763-4.951-1.0763-9.1486-3.3366v-13.346q3.6594 2.3679 8.3952 3.6594 4.7357 1.2916 9.6868 1.2916 15.176 0 15.176-13.239v-6.5655q-3.0137 3.2289-6.5655 4.7358-3.5518 1.5068-7.857 1.5068-7.1036 0-12.27-3.3366-5.1663-3.3365-8.0723-9.4715-2.7984-6.135-2.7984-14.422 0-9.2562 3.6594-15.822 3.6594-6.5655 10.548-10.01 6.996-3.4442 16.898-3.4442 5.3815 0 10.763 1.2916 5.3815 1.1839 11.624 3.8747v50.909zm-37.24-27.446q0 7.2112 2.906 11.086 2.906 3.8747 8.3952 3.8747 5.9197 0 10.01-4.6281v-24.647q-1.9374-.75341-3.7671-1.0763t-3.9823-.32289q-6.5655 0-10.117 4.09-3.4442 3.9823-3.4442 11.624z"/>
  </g>
  <path style="stroke:#404040;stroke-width:3;fill:none" d="m-1369.9 217.33h800"/>
  <path style="stroke:#404040;stroke-width:3;fill:none" d="m-1369.9 257.33h720"/>
  <path style="stroke:#404040;stroke-width:3;fill:none" d="m-1369.9 297.33h760"/>
  <path style="stroke:#404040;stroke-width:3;fill:none" d="m-1369.9 337.33h440"/>
  <path style="stroke:#404040;stroke-width:3;fill:none" d="m-1369.9 457.33h680"/>
  <path style="stroke:#404040;stroke-width:3;fill:none" d="m-1369.9 497.33h760"/>
  <path style="stroke:#404040;stroke-width:3;fill:none" d="m-1369.9 537.33h800"/>
  <path style="stroke:#404040;stroke-width:3;fill:none" d="m-1369.9 577.33h480"/>
  <path style="stroke:#404040;stroke-width:3;fill:none" d="m-1369.9 697.33h680"/>
  <path style="stroke:#404040;stroke-width:3;fill:none" d="m-1369.9 737.33h480"/>
  <path style="stroke:#404040;stroke-width:3;fill:none" d="m-1369.9 777.33h360"/>
  <g style="fill:#404040">
   <path style="fill:#404040" d="m-171.52 46.025q-4.7358-9.4715-9.2562-18.943-4.5205-9.5791-8.9334-19.051v52.308h-15.822v-76.956h19.912q5.0586 11.839 10.333 23.679 5.2739 11.732 10.763 23.248 5.3815-11.516 10.655-23.141 5.2739-11.732 10.225-23.786h19.374v76.956h-15.822v-52.524q-4.4128 9.6868-9.041 19.266-4.5205 9.4715-9.1486 18.943h-13.239z"/>
   <path style="fill:#404040" d="m-66.661 61.416q-9.2562 0-11.516-6.1349-3.4442 3.2289-7.4265 4.8434t-8.8257 1.6145q-8.3952 0-13.131-4.3052-4.7358-4.4129-4.7358-12.162 0-8.5028 6.4578-13.023 6.5655-4.6281 18.835-4.6281 1.7221 0 3.6594.21526 2.045.10763 3.9823.43052v-2.4755q0-5.0586-2.7984-7.5341t-8.6104-2.4755q-4.8434 0-9.1486 1.2916-4.1976 1.2916-8.1799 4.09v-13.346q4.6281-2.2602 9.5791-3.4442 4.951-1.1839 10.01-1.1839 11.732 0 18.082 5.9197 6.3502 5.8121 6.3502 16.683v20.88q0 1.9374.64578 2.906.64578.86104 2.3679.86104.86104 0 1.6145-.10763.75341-.21526 1.5068-.64578v9.7944q-1.7221.86104-4.09 1.3992-2.2602.53815-4.6281.53815zm-30.137-17.543q0 6.5655 7.5341 6.5655 5.7044 0 9.902-4.6281v-8.5028q-1.5068-.32289-3.2289-.43052-1.6145-.21526-3.2289-.21526-5.5968 0-8.2876 1.7221t-2.6908 5.4892z"/>
   <path style="fill:#404040" d="m-41.715-20.168q4.3052 0 6.7807 2.2602 2.4755 2.1526 2.4755 6.0273 0 3.7671-2.4755 6.0273-2.4755 2.1526-6.7807 2.1526t-6.7807-2.1526q-2.4755-2.2602-2.4755-6.0273 0-3.8747 2.4755-6.0273 2.4755-2.2602 6.7807-2.2602zm-7.9647 24.755h15.929v55.753h-15.929v-55.753z"/>
   <path style="fill:#404040" d="m7.069 16.212q-6.2426 0-10.548 5.2739v38.855h-15.929v-55.753h13.669l.86104 6.7807q6.8884-8.1808 16.898-8.1808 9.1486 0 14.207 5.7044 5.0586 5.5968 5.0586 16.037v35.41h-15.929v-34.765q0-4.6281-2.1526-6.996t-6.1349-2.3679z"/>
   <path style="fill:#404040" d="m96.621 16.212q-6.2426 0-10.548 5.2739v38.855h-15.929v-80.185h15.929v29.706q6.4578-6.6731 15.499-6.6731 9.1486 0 14.207 5.7044 5.0586 5.5968 5.0586 16.037v35.41h-15.929v-34.765q0-4.6281-2.1526-6.996t-6.1349-2.3679z"/>
   <path style="fill:#404040" d="m180.75 57.542q-8.2876 4.1976-19.589 4.1976-9.1486 0-15.714-3.4442-6.5655-3.4442-10.117-9.902-3.4442-6.5655-3.4442-15.714 0-6.7807 1.8297-12.162 1.9374-5.4892 5.4892-9.3639t8.5028-5.9197 11.086-2.045q11.732 0 17.974 7.3189 6.2426 7.2113 6.2426 20.773v4.6281h-35.518q.86105 6.7807 4.7358 10.01 3.9823 3.2289 11.409 3.2289 4.951 0 8.9333-1.0763 4.09-1.0763 8.1799-3.4442v12.916zm-22.18-42.837q-4.5205 0-7.3189 3.1213-2.7984 3.0137-3.6594 8.7181h20.665q-.43052-6.1349-2.7984-8.9333-2.3679-2.906-6.8884-2.906z"/>
   <path style="fill:#404040" d="m236.47 61.416q-9.2562 0-11.516-6.1349-3.4442 3.2289-7.4265 4.8434t-8.8257 1.6145q-8.3952 0-13.131-4.3052-4.7358-4.4129-4.7358-12.162 0-8.5028 6.4578-13.023 6.5655-4.6281 18.835-4.6281 1.7221 0 3.6594.21526 2.045.10763 3.9823.43052v-2.4755q0-5.0586-2.7984-7.5341t-8.6104-2.4755q-4.8434 0-9.1486 1.2916-4.1976 1.2916-8.1799 4.09v-13.346q4.6281-2.2602 9.5791-3.4442 4.951-1.1839 10.01-1.1839 11.732 0 18.082 5.9197 6.3502 5.8121 6.3502 16.683v20.88q0 1.9374.64578 2.906.64579.86104 2.3679.86104.86104 0 1.6145-.10763.75341-.21526 1.5068-.64578v9.7944q-1.7221.86104-4.09 1.3992-2.2602.53815-4.6281.53815zm-30.14-17.543q0 6.5655 7.5341 6.5655 5.7044 0 9.902-4.6281v-8.5028q-1.5068-.32289-3.2289-.43052-1.6145-.21526-3.2289-.21526-5.5968 0-8.2876 1.7221t-2.6908 5.4892z"/>
   <path style="fill:#404040" d="m290.48 60.34-.75341-6.1349q-3.2289 3.8747-7.2113 5.7044-3.9823 1.8297-8.7181 1.8297-7.1036 0-12.378-3.4442-5.1663-3.4442-7.9647-9.7944t-2.7984-14.961q0-9.3639 3.3366-16.145 3.3366-6.7807 9.3639-10.44 6.135-3.7671 14.53-3.7671 5.4892 0 10.333 2.2602v-25.293h15.929v80.185h-13.669zm-23.57-27.446q0 7.7494 2.7984 11.839 2.906 4.09 8.5028 4.09 2.906 0 5.3815-1.0763 2.4755-1.1839 4.6281-3.6594v-25.939q-2.045-1.0763-3.9823-1.5068-1.8297-.53815-3.9823-.53815-6.3502 0-9.902 4.4129-3.4442 4.4129-3.4442 12.378z"/>
   <path style="fill:#404040" d="m326.58-20.168q4.3052 0 6.7807 2.2602 2.4755 2.1526 2.4755 6.0273 0 3.7671-2.4755 6.0273-2.4755 2.1526-6.7807 2.1526t-6.7807-2.1526q-2.4755-2.2602-2.4755-6.0273 0-3.8747 2.4755-6.0273 2.4755-2.2602 6.7807-2.2602zm-7.9647 24.755h15.929v55.753h-15.929v-55.753z"/>
   <path style="fill:#404040" d="m375.37 16.212q-6.2426 0-10.548 5.2739v38.855h-15.929v-55.753h13.669l.86105 6.7807q6.8884-8.1799 16.898-8.1799 9.1486 0 14.207 5.7044 5.0586 5.5968 5.0586 16.037v35.41h-15.929v-34.765q0-4.6281-2.1526-6.996t-6.1349-2.3679z"/>
   <path style="fill:#404040" d="m464.12 59.264q0 13.131-7.4265 19.912-7.4265 6.8884-21.741 6.8884-5.8121 0-10.871-1.0763-4.951-1.0763-9.1486-3.3366v-13.346q3.6594 2.3679 8.3952 3.6594 4.7358 1.2916 9.6868 1.2916 15.176 0 15.176-13.239v-6.5655q-3.0136 3.2289-6.5655 4.7357-3.5518 1.5068-7.857 1.5068-7.1036 0-12.27-3.3365-5.1663-3.3365-8.0723-9.4715-2.7984-6.1349-2.7984-14.423 0-9.2562 3.6594-15.822 3.6594-6.5655 10.548-10.01 6.996-3.4442 16.898-3.4442 5.3815 0 10.763 1.2916 5.3815 1.1839 11.624 3.8747v50.909zm-37.24-27.446q0 7.2113 2.906 11.086t8.3952 3.8747q5.9197 0 10.01-4.6281v-24.647q-1.9374-.75341-3.7671-1.0763t-3.9823-.32289q-6.5655 0-10.117 4.09-3.4442 3.9823-3.4442 11.624z"/>
  </g>
  <path d="m-207.02 217.33h800" style="stroke:#404040;stroke-width:3;fill:none"/>
  <path d="m-207.02 257.33h720" style="stroke:#404040;stroke-width:3;fill:none"/>
  <path d="m-207.02 297.33h760" style="stroke:#404040;stroke-width:3;fill:none"/>
  <path d="m-207.02 337.33h440" style="stroke:#404040;stroke-width:3;fill:none"/>
  <path d="m-207.02 457.33h680" style="stroke:#404040;stroke-width:3;fill:none"/>
  <path d="m-207.02 497.33h760" style="stroke:#404040;stroke-width:3;fill:none"/>
  <path d="m-207.02 537.33h800" style="stroke:#404040;stroke-width:3;fill:none"/>
  <path d="m-207.02 577.33h480" style="stroke:#404040;stroke-width:3;fill:none"/>
  <path d="m-207.02 697.33h680" style="stroke:#404040;stroke-width:3;fill:none"/>
  <path d="m-207.02 737.33h480" style="stroke:#404040;stroke-width:3;fill:none"/>
  <path d="m-207.02 777.33h360" style="stroke:#404040;stroke-width:3;fill:none"/>
  <g style="fill:#404040">
   <path style="fill:#404040" d="m-1355.8 13.939v2.3558h-11.527v-2.3558l3.4496-.25241v-24.862l-3.4496-.25241v-2.3558h11.569q6.4365 0 9.5075 2.1876 3.1131 2.1876 3.1131 6.6889 0 4.8799-3.3655 7.4041-3.3655 2.5241-9.8019 2.5241-.7993 0-1.6828-.042069-.8414-.084137-1.6827-.21034v8.9185l3.8703.25241zm-3.8703-24.947v13.167q.7572.12621 1.6827.21034.9255.042069 1.7248.042069 4.4172 0 6.5627-1.7669 2.1876-1.7669 2.1876-5.3848 0-3.3655-2.0193-4.922t-6.4365-1.5565q-.9255 0-1.851.04207t-1.851.16827z"/>
   <path style="fill:#404040" d="m-1322.8 16.463-.3786-3.0289q-1.4304 1.7248-3.1131 2.5662-1.6827.84137-3.7862.84137-3.3655 0-5.1744-1.9772-1.8089-2.0193-1.8089-5.7634v-11.695l-3.1552-.21034v-2.1455l6.3103-.58896h.8834v14.429q0 2.3979 1.0517 3.66 1.0518 1.2621 3.1131 1.2621 1.5566 0 2.9027-.63103 1.3462-.67310 2.5662-2.0614v-13.714l-3.3655-.21034v-2.1455l6.5207-.58896h.8834v19.057l3.1972.21034v2.1455l-5.7634.58896h-.8834z"/>
   <path style="fill:#404040" d="m-1291.2 4.9781q0 3.7441-1.3883 6.4365-1.3462 2.6503-3.9544 4.0386-2.5662 1.3883-6.2262 1.3883-2.1034 0-4.0386-.46275-1.9351-.42068-3.9544-1.3462v-27.387l-3.2393-.21034v-2.1455l6.3944-.58896h.8835v12.452q2.8186-2.9869 6.6889-2.9869 2.7344 0 4.7116 1.3462 1.9773 1.3041 3.029 3.7441 1.0938 2.3979 1.0938 5.7213zm-10.012-7.8247q-1.5566 0-3.029.71516-1.4303.67310-2.482 1.8931v13.63q1.0096.46275 1.9351.67310.9676.16827 2.1876.16827 3.5337 0 5.3427-2.1876 1.8089-2.2296 1.8089-6.5206 0-4.0386-1.5144-6.1841-1.4724-2.1876-4.2489-2.1876z"/>
   <path style="fill:#404040" d="m-1284.5-12.354-3.2393-.21034v-2.1455l6.3944-.58896h.8835v29.196l2.9868.21034v2.1876h-10.012v-2.1876l2.9869-.21034v-26.251z"/>
   <path style="fill:#404040" d="m-1269.3-9.3251q-1.1779 0-1.809-.63103-.631-.67310-.631-1.8089t.7152-1.8089q.7151-.67310 1.9772-.67310 1.1358 0 1.7669.67310.6731.63103.6731 1.7248 0 1.1779-.7152 1.851t-1.9772.67310zm5.4268 25.62h-10.012v-2.1876l2.9869-.21034v-16.491l-3.1972-.21034v-2.1455l6.3523-.58896h.8835v19.436l2.9868.21034v2.1876z"/>
   <path style="fill:#404040" d="m-1243.8 10.068q0 2.1034-1.0517 3.6179-1.0096 1.5145-2.9448 2.3558-1.9351.79930-4.5434.79930-2.0193 0-3.9123-.37862-1.8511-.33655-3.4917-1.0517l-.2104-5.3848h2.8186l.631 3.5758q.9256.42068 1.9352.58896 1.0096.16827 2.3138.16827 2.1034 0 3.3654-1.0096 1.2621-1.0096 1.2621-2.6924 0-.96758-.4628-1.5986-.4206-.67310-1.4724-1.1358-1.0517-.46275-2.9027-.88344-2.6503-.58896-4.2489-1.4303-1.5986-.84137-2.3138-2.0193-.7151-1.1779-.7151-2.9448 0-1.9772 1.0096-3.4075 1.0097-1.4724 2.8607-2.2717t4.3751-.79930q3.702 0 6.773 1.3883l.2104 5.0482h-2.7766l-.5889-3.3234q-1.5145-.67310-3.702-.67310-2.0614 0-3.2814.92551t-1.22 2.482q0 1.0096.3786 1.6407.4207.63103 1.4724 1.0938 1.0518.42068 2.9028.84137 2.7765.58896 4.4172 1.4303 1.6827.79930 2.3979 2.0193.7151 1.22.7151 3.0289z"/>
   <path style="fill:#404040" d="m-1229.9 14.107v2.1876h-10.096v-2.1876l2.9869-.21034v-26.251l-3.2393-.21034v-2.1455l6.3944-.58896h.8835v12.621q1.4303-1.5986 3.071-2.3558 1.6827-.79930 3.7441-.79930 3.4075 0 5.2165 2.0193 1.851 2.0193 1.851 5.8475v11.863l2.9868.21034v2.1876h-10.096v-2.1876l3.071-.21034v-11.653q0-2.44-1.0938-3.7441t-3.1551-1.3041q-1.5986 0-2.9869.67310-1.3462.63103-2.6082 2.0614v13.967l3.071.21034z"/>
   <path style="fill:#404040" d="m-1194.6 14.864q-1.3462.92551-3.3655 1.4303-2.0193.54689-4.2489.54689-3.3234 0-5.6792-1.3041-2.3559-1.3462-3.5759-3.9124t-1.22-6.2261q0-3.4075 1.22-5.9317 1.2621-2.5241 3.5338-3.9124t5.3427-1.3883q4.2489 0 6.5206 2.8186 2.3138 2.8186 2.3138 8.0772v1.0938h-14.85q.2524 3.9544 2.0613 5.8896 1.8511 1.8931 5.3427 1.8931 1.809 0 3.4076-.46275 1.6407-.46275 3.1972-1.4724v2.8607zm-8.2034-18.132q-2.5241 0-4.0806 1.851-1.5145 1.8089-1.7248 5.0903h10.98q-.1262-3.5338-1.4304-5.2165-1.262-1.7248-3.7441-1.7248z"/>
   <path style="fill:#404040" d="m-1173.9 16.463-.3365-2.8186q-1.4724 1.6407-3.1552 2.44-1.6827.75723-3.7441.75723-2.7344 0-4.7116-1.3041t-3.071-3.702-1.0938-5.6792q0-3.7441 1.3041-6.4365 1.3462-2.6924 3.7862-4.1227 2.482-1.4303 5.9316-1.4303 2.44 0 4.5014.84137v-7.362l-3.4496-.21034v-2.1455l6.6047-.58896h.8834v28.817l3.1973.21034v2.1455l-5.7634.58896h-.8835zm-11.863-10.854q0 3.9544 1.5145 6.0999 1.5144 2.1455 4.2489 2.1455 3.1972 0 5.511-2.6082v-13.336q-1.0938-.58896-2.1876-.84137-1.0517-.29448-2.2717-.29448-3.3234 0-5.0903 2.3138-1.7248 2.2717-1.7248 6.5206z"/>
   <path style="fill:#404040" d="m-1160.6 16.673q-1.22 0-1.9352-.71516-.7151-.71516-.7151-1.9352 0-1.3462.7572-2.1034.7993-.75723 2.2296-.75723 1.22 0 1.9352.71516.7151.71516.7151 1.9352 0 1.3462-.7993 2.1034-.7572.75723-2.1875.75723zm0-16.827q-1.22 0-1.9352-.71516-.7151-.71516-.7151-1.9352 0-1.3462.7572-2.1034.7993-.75723 2.2296-.75723 1.22 0 1.9352.71516.7151.71516.7151 1.9352 0 1.3462-.7993 2.1034-.7572.75723-2.1875.75723z"/>
   <path style="fill:#404040" d="m-1124.1 14.023v2.2717h-14.472v-2.2717l5.1744-.33655v-22.675q-1.7248.79930-3.3234 1.5986-1.5565.75723-2.9448 1.4724v-2.7345q1.22-.71516 2.3559-1.3462 1.1358-.67310 2.4399-1.3883 1.3462-.75723 3.1552-1.7248h2.44v26.798l5.1744.33655z"/>
   <path style="fill:#404040" d="m-1107.8 16.841q-3.3654 0-5.6792-1.7669-2.2717-1.7669-3.4496-5.0482t-1.1779-7.8668q0-4.8799 1.3041-8.4137 1.3041-3.5758 3.7861-5.4689 2.5242-1.9352 6.142-1.9352 3.3655 0 5.6372 1.7669 2.3138 1.7669 3.4917 5.0482t1.1779 7.8668q0 4.8799-1.3041 8.4558-1.3041 3.5338-3.8282 5.4689-2.4821 1.8931-6.1 1.8931zm.6731-27.849q-3.3234 0-4.9641 3.3234-1.6406 3.2813-1.6406 9.5495 0 6.0158 1.5565 9.1709t4.6275 3.1551q3.3235 0 4.9641-3.3234 1.6407-3.3234 1.6407-9.5496 0-5.9737-1.5565-9.1289-1.5566-3.1972-4.6276-3.1972z"/>
   <path style="fill:#404040" d="m-1090 23.152h-4.1227l14.261-38.745h4.1228l-14.261 38.745z"/>
   <path style="fill:#404040" d="m-1052.2-10.251q-2.8186 7.0254-5.6792 13.672-2.8186 6.6468-5.5951 12.873h-4.6276q2.1455-4.3751 4.291-8.7923 2.1455-4.4593 4.2069-8.7923 2.0613-4.3331 3.9123-8.3716h-12.957l-.8834 4.6696h-2.9027l.2945-8.1192h19.94v2.8607z"/>
   <path style="fill:#404040" d="m-1045.2 23.152h-4.1227l14.261-38.745h4.1227l-14.261 38.745z"/>
   <path style="fill:#404040" d="m-1008 8.4698-.2524 7.8247h-19.814v-1.1779q0-2.0193.4207-3.66.4206-1.6827 1.3882-3.1972t2.5662-2.9448q1.5986-1.4724 3.9124-3.0289 1.893-1.3041 3.1551-2.3138 1.2621-1.0096 1.9772-1.8931.7152-.88344 1.0097-1.7669.2944-.92551.2944-2.0614 0-2.44-1.4303-3.8282-1.4303-1.3883-4.1227-1.3883-2.7765 0-4.922 1.1358l-.8835 4.7537h-2.9027l.2104-6.0579q1.262-.75723 2.7765-1.3041 1.5144-.58896 3.0289-.88344 1.5145-.33655 2.9448-.33655 3.0289 0 5.1744.92551t3.2814 2.6503q1.1358 1.6827 1.1358 4.0806 0 1.5986-.3786 2.9027-.3365 1.2621-1.262 2.44-.8835 1.1779-2.3979 2.3979-1.5145 1.1779-3.8704 2.6082-2.0613 1.2621-3.4496 2.3558-1.3882 1.0517-2.2296 2.0614-.8414.96758-1.22 1.9772-.3365 1.0096-.3365 2.1876h12.41l.8413-4.4593h2.9448z"/>
   <path style="fill:#404040" d="m-993.18 16.841q-3.3655 0-5.6792-1.7669-2.2717-1.7669-3.4496-5.0482t-1.1779-7.8668q0-4.8799 1.3041-8.4137 1.3041-3.5758 3.7862-5.4689 2.5241-1.9352 6.142-1.9352 3.3655 0 5.6372 1.7669 2.3138 1.7669 3.4917 5.0482t1.1779 7.8668q0 4.8799-1.3041 8.4558-1.3041 3.5338-3.8282 5.4689-2.482 1.8931-6.0999 1.8931zm.6731-27.849q-3.3234 0-4.9641 3.3234-1.6407 3.2813-1.6407 9.5495 0 6.0158 1.5565 9.1709t4.6275 3.1551q3.3234 0 4.9641-3.3234t1.6407-9.5496q0-5.9737-1.5565-9.1289-1.5565-3.1972-4.6275-3.1972z"/>
   <path style="fill:#404040" d="m-959.41 14.023v2.2717h-14.472v-2.2717l5.1744-.33655v-22.675q-1.7248.79930-3.3234 1.5986-1.5565.75723-2.9448 1.4724v-2.7345q1.22-.71516 2.3558-1.3462 1.1358-.67310 2.44-1.3883 1.3462-.75723 3.1551-1.7248h2.44v26.798l5.1744.33655z"/>
   <path style="fill:#404040" d="m-931.99.14026q0 3.8282-.96757 6.8992-.96758 3.071-2.7765 5.2586-1.7669 2.1876-4.291 3.3655-2.482 1.1779-5.5951 1.1779-1.7669 0-3.3655-.37862-1.5986-.33655-2.9448-1.0517v-2.9027q1.5986.67310 2.9869 1.0096 1.3883.29448 3.071.29448 2.8186 0 4.8799-1.3462 2.0614-1.3462 3.2393-3.9124 1.22-2.5662 1.4724-6.2261-1.0096.84137-2.3138 1.4724-1.2621.63103-2.6924.96758-1.3883.33655-2.8186.33655-2.8606 0-4.9641-1.0517-2.0614-1.0517-3.1972-3.0289-1.0938-2.0193-1.0938-4.7958 0-2.2296.71517-4.0386.75723-1.8089 2.1034-3.1131 1.3883-1.3041 3.2814-2.0193 1.8931-.71516 4.2489-.71516 3.5338 0 5.9737 1.5986 2.482 1.5986 3.7441 4.6696 1.3041 3.071 1.3041 7.5303zm-17.122-4.2489q0 2.9869 1.5565 4.6696 1.5986 1.6407 4.4593 1.6407 1.8931 0 3.66-.63103 1.8089-.67310 3.2393-1.851-.16827-10.77-7.0254-10.77-1.8089 0-3.1131.88344-1.3041.84137-2.0614 2.3979-.71517 1.5565-.71517 3.66z"/>
  </g>
  <g style="fill:#404040">
   <path style="fill:#404040" d="m-196.91 133.08v2.3558h-11.527v-2.3558l3.4496-.25241v-24.862l-3.4496-.25241v-2.3558h11.569q6.4365 0 9.5075 2.1876 3.1131 2.1876 3.1131 6.6889 0 4.88-3.3655 7.4041t-9.802 2.5241q-.7993 0-1.6827-.0421-.84137-.0841-1.6827-.21034v8.9185l3.8703.25241zm-3.8703-24.947v13.167q.75723.12621 1.6827.21034.92551.0421 1.7248.0421 4.4172 0 6.5627-1.7669 2.1876-1.7669 2.1876-5.3848 0-3.3655-2.0193-4.922t-6.4365-1.5565q-.92551 0-1.851.0421-.9255.0421-1.851.16827z"/>
   <path style="fill:#404040" d="m-163.93 135.61-.37861-3.0289q-1.4303 1.7248-3.1131 2.5662-1.6827.84137-3.7862.84137-3.3655 0-5.1744-1.9772-1.809-2.0193-1.809-5.7634v-11.695l-3.1551-.21034v-2.1455l6.3103-.58896h.88344v14.429q0 2.3979 1.0517 3.66t3.1131 1.2621q1.5565 0 2.9027-.63103 1.3462-.6731 2.5662-2.0614v-13.714l-3.3655-.21034v-2.1455l6.5206-.58896h.88344v19.057l3.1972.21034v2.1455l-5.7634.58896h-.88344z"/>
   <path style="fill:#404040" d="m-132.31 124.12q0 3.7441-1.3883 6.4365-1.3462 2.6503-3.9544 4.0386-2.5662 1.3883-6.2261 1.3883-2.1034 0-4.0386-.46276-1.9352-.42068-3.9544-1.3462v-27.387l-3.2393-.21034v-2.1455l6.3944-.58896h.88343v12.452q2.8186-2.9869 6.6889-2.9869 2.7344 0 4.7117 1.3462 1.9772 1.3041 3.0289 3.7441 1.0938 2.3979 1.0938 5.7213zm-10.012-7.8247q-1.5565 0-3.0289.71516-1.4303.6731-2.482 1.8931v13.63q1.0096.46275 1.9352.6731.96757.16827 2.1876.16827 3.5338 0 5.3427-2.1876 1.8089-2.2296 1.8089-6.5206 0-4.0386-1.5145-6.1841-1.4724-2.1876-4.2489-2.1876z"/>
   <path style="fill:#404040" d="m-125.64 106.79-3.2393-.21034v-2.1455l6.3944-.58896h.88344v29.196l2.9869.21035v2.1876h-10.012v-2.1876l2.9869-.21035v-26.251z"/>
   <path style="fill:#404040" d="m-110.48 109.82q-1.1779 0-1.809-.63103-.63103-.67309-.63103-1.8089t.71517-1.809q.71516-.67309 1.9772-.67309 1.1358 0 1.7669.67309.6731.63103.6731 1.7248 0 1.1779-.71516 1.851-.71517.67309-1.9772.67309zm5.4268 25.62h-10.012v-2.1876l2.9869-.21035v-16.491l-3.1972-.21034v-2.1455l6.3523-.58896h.88344v19.436l2.9869.21035v2.1876z"/>
   <path style="fill:#404040" d="m-84.937 129.21q0 2.1034-1.0517 3.6179-1.0096 1.5145-2.9448 2.3558-1.9352.7993-4.5434.7993-2.0193 0-3.9124-.37862-1.851-.33655-3.4917-1.0517l-.21034-5.3848h2.8186l.63103 3.5758q.92551.42069 1.9352.58896 1.0096.16828 2.3138.16828 2.1034 0 3.3655-1.0096t1.2621-2.6924q0-.96758-.46275-1.5986-.42068-.6731-1.4724-1.1358-1.0517-.46276-2.9027-.88344-2.6503-.58896-4.2489-1.4303-1.5986-.84137-2.3138-2.0193-.71517-1.1779-.71517-2.9448 0-1.9772 1.0096-3.4076 1.0096-1.4724 2.8607-2.2717 1.851-.7993 4.3751-.7993 3.702 0 6.773 1.3883l.21034 5.0482h-2.7765l-.58896-3.3234q-1.5145-.6731-3.702-.6731-2.0614 0-3.2813.92551-1.22.9255-1.22 2.482 0 1.0096.37862 1.6407.42068.63103 1.4724 1.0938 1.0517.42069 2.9027.84137 2.7765.58896 4.4172 1.4303 1.6827.7993 2.3979 2.0193.71516 1.22.71516 3.0289z"/>
   <path style="fill:#404040" d="m-71.043 133.25v2.1876h-10.096v-2.1876l2.9869-.21035v-26.251l-3.2393-.21034v-2.1455l6.3944-.58896h.88344v12.621q1.4303-1.5986 3.071-2.3558 1.6827-.7993 3.7441-.7993 3.4075 0 5.2165 2.0193 1.851 2.0193 1.851 5.8475v11.863l2.9869.21035v2.1876h-10.096v-2.1876l3.071-.21035v-11.653q0-2.44-1.0938-3.7441t-3.1551-1.3041q-1.5986 0-2.9869.67309-1.3462.63103-2.6082 2.0614v13.967l3.071.21035z"/>
   <path style="fill:#404040" d="m-35.725 134.01q-1.3462.92551-3.3655 1.4303-2.0193.54689-4.2489.54689-3.3234 0-5.6792-1.3041-2.3558-1.3462-3.5758-3.9124t-1.22-6.2261q0-3.4076 1.22-5.9317 1.2621-2.5241 3.5338-3.9124t5.3427-1.3883q4.2489 0 6.5206 2.8186 2.3138 2.8186 2.3138 8.0772v1.0938h-14.85q.25241 3.9544 2.0614 5.8896 1.851 1.8931 5.3427 1.8931 1.8089 0 3.4075-.46275 1.6407-.46276 3.1972-1.4724v2.8607zm-8.2034-18.132q-2.5241 0-4.0806 1.851-1.5145 1.8089-1.7248 5.0903h10.98q-.12620-3.5338-1.4303-5.2165-1.2621-1.7248-3.7441-1.7248z"/>
   <path style="fill:#404040" d="m-15.024 135.61-.33655-2.8186q-1.4724 1.6407-3.1551 2.44-1.6827.75723-3.7441.75723-2.7345 0-4.7117-1.3041t-3.071-3.702-1.0938-5.6792q0-3.7441 1.3041-6.4365 1.3462-2.6924 3.7862-4.1227 2.482-1.4303 5.9317-1.4303 2.44 0 4.5013.84137v-7.362l-3.4496-.21034v-2.1455l6.6048-.58896h.88344v28.817l3.1972.21034v2.1455l-5.7634.58896h-.88344zm-11.863-10.854q0 3.9544 1.5145 6.0999t4.2489 2.1455q3.1972 0 5.511-2.6082v-13.336q-1.0938-.58896-2.1876-.84137-1.0517-.29448-2.2717-.29448-3.3234 0-5.0903 2.3138-1.7248 2.2717-1.7248 6.5206z"/>
   <path style="fill:#404040" d="m-1.7709 135.82q-1.22 0-1.9352-.71516-.71516-.71516-.71516-1.9352 0-1.3462.75723-2.1034.79930-.75723 2.2296-.75723 1.22 0 1.9352.71517.71516.71516.71516 1.9352 0 1.3462-.79930 2.1034-.75723.75723-2.1876.75723zm0-16.827q-1.22 0-1.9352-.71516-.71516-.71516-.71516-1.9352 0-1.3462.75723-2.1034.79930-.75723 2.2296-.75723 1.22 0 1.9352.71517.71516.71516.71516 1.9352 0 1.3462-.79930 2.1034-.75723.75723-2.1876.75723z"/>
   <path style="fill:#404040" d="m34.708 133.17v2.2717h-14.472v-2.2717l5.1744-.33655v-22.675q-1.7248.7993-3.3234 1.5986-1.5565.75724-2.9448 1.4724v-2.7344q1.22-.71517 2.3558-1.3462 1.1358-.6731 2.44-1.3883 1.3462-.75723 3.1551-1.7248h2.44v26.798l5.1744.33655z"/>
   <path style="fill:#404040" d="m51.061 135.98q-3.3655 0-5.6792-1.7669-2.2717-1.7669-3.4496-5.0482t-1.1779-7.8668q0-4.8799 1.3041-8.4137 1.3041-3.5758 3.7862-5.4689 2.5241-1.9352 6.142-1.9352 3.3655 0 5.6372 1.7669 2.3138 1.7669 3.4917 5.0482 1.1779 3.2814 1.1779 7.8668 0 4.88-1.3041 8.4558-1.3041 3.5338-3.8282 5.4689-2.482 1.8931-6.0999 1.8931zm.67310-27.849q-3.3234 0-4.9641 3.3234-1.6407 3.2814-1.6407 9.5496 0 6.0158 1.5565 9.1709t4.6275 3.1551q3.3234 0 4.9641-3.3234t1.6407-9.5496q0-5.9737-1.5565-9.1289-1.5565-3.1972-4.6275-3.1972z"/>
   <path style="fill:#404040" d="m68.843 142.29h-4.1227l14.261-38.745h4.1227l-14.261 38.745z"/>
   <path style="fill:#404040" d="m106.61 108.89q-2.8186 7.0254-5.6792 13.672-2.8186 6.6468-5.5951 12.873h-4.6275q2.1455-4.3751 4.291-8.7923 2.1455-4.4593 4.2068-8.7923 2.0614-4.333 3.9124-8.3716h-12.957l-.88344 4.6696h-2.9027l.29448-8.1192h19.94v2.8606z"/>
   <path style="fill:#404040" d="m113.62 142.29h-4.1227l14.261-38.745h4.1227l-14.261 38.745z"/>
   <path style="fill:#404040" d="m150.89 127.61-.25241 7.8247h-19.814v-1.1779q0-2.0193.42068-3.66.42069-1.6827 1.3883-3.1972.96758-1.5145 2.5662-2.9448 1.5986-1.4724 3.9124-3.0289 1.8931-1.3041 3.1551-2.3138 1.2621-1.0096 1.9772-1.8931.71516-.88344 1.0096-1.7669.29448-.92551.29448-2.0614 0-2.44-1.4303-3.8282-1.4303-1.3883-4.1227-1.3883-2.7765 0-4.922 1.1358l-.88344 4.7537h-2.9027l.21034-6.0579q1.2621-.75724 2.7765-1.3041 1.5145-.58896 3.0289-.88344 1.5145-.33654 2.9448-.33654 3.0289 0 5.1744.9255 2.1455.92551 3.2813 2.6503 1.1358 1.6827 1.1358 4.0806 0 1.5986-.37862 2.9027-.33654 1.262-1.262 2.44-.88344 1.1779-2.3979 2.3979-1.5145 1.1779-3.8703 2.6082-2.0614 1.2621-3.4496 2.3558-1.3883 1.0517-2.2296 2.0614-.84137.96757-1.22 1.9772-.33655 1.0096-.33655 2.1876h12.41l.84137-4.4593h2.9448z"/>
   <path style="fill:#404040" d="m165.68 135.98q-3.3655 0-5.6792-1.7669-2.2717-1.7669-3.4496-5.0482t-1.1779-7.8668q0-4.8799 1.3041-8.4137 1.3041-3.5758 3.7862-5.4689 2.5241-1.9352 6.142-1.9352 3.3655 0 5.6372 1.7669 2.3138 1.7669 3.4917 5.0482 1.1779 3.2814 1.1779 7.8668 0 4.88-1.3041 8.4558-1.3041 3.5338-3.8282 5.4689-2.482 1.8931-6.0999 1.8931zm.6731-27.849q-3.3234 0-4.9641 3.3234-1.6407 3.2814-1.6407 9.5496 0 6.0158 1.5565 9.1709t4.6275 3.1551q3.3234 0 4.9641-3.3234t1.6407-9.5496q0-5.9737-1.5565-9.1289-1.5565-3.1972-4.6275-3.1972z"/>
   <path style="fill:#404040" d="m199.45 133.17v2.2717h-14.472v-2.2717l5.1744-.33655v-22.675q-1.7248.7993-3.3234 1.5986-1.5565.75724-2.9448 1.4724v-2.7344q1.22-.71517 2.3558-1.3462 1.1358-.6731 2.44-1.3883 1.3462-.75723 3.1551-1.7248h2.44v26.798l5.1744.33655z"/>
   <path style="fill:#404040" d="m226.87 119.28q0 3.8282-.96757 6.8992-.96758 3.071-2.7765 5.2586-1.7669 2.1876-4.291 3.3655-2.482 1.1779-5.5951 1.1779-1.7669 0-3.3655-.37862-1.5986-.33655-2.9448-1.0517v-2.9027q1.5986.6731 2.9869 1.0096 1.3883.29448 3.071.29448 2.8186 0 4.88-1.3462t3.2393-3.9124q1.22-2.5662 1.4724-6.2261-1.0096.84137-2.3138 1.4724-1.262.63103-2.6924.96758-1.3883.33655-2.8186.33655-2.8607 0-4.9641-1.0517-2.0614-1.0517-3.1972-3.0289-1.0938-2.0193-1.0938-4.7958 0-2.2296.71516-4.0386.75723-1.809 2.1034-3.1131 1.3883-1.3041 3.2813-2.0193 1.8931-.71516 4.2489-.71516 3.5338 0 5.9737 1.5986 2.482 1.5986 3.7441 4.6696 1.3041 3.071 1.3041 7.5303zm-17.122-4.2489q0 2.9869 1.5565 4.6696 1.5986 1.6407 4.4593 1.6407 1.8931 0 3.66-.63103 1.809-.67309 3.2393-1.851-.16827-10.77-7.0254-10.77-1.809 0-3.1131.88344-1.3041.84137-2.0614 2.3979-.71516 1.5565-.71516 3.66z"/>
  </g>
  <rect style="stroke:#404040;stroke-width:1.3376;fill:#404040" transform="rotate(30)" height="71.336" width="17.834" y="800.16" x="446.17"/>
  <rect style="stroke:#404040;stroke-width:1.4664;fill:#404040" transform="rotate(30)" height="17.705" width="43.183" y="853.73" x="420.76"/>
  <g style="fill:#404040">
   <path style="fill:#404040" d="m35.201 986.8v-68.292h24.547q13.181 0 20.249 5.8263 7.0679 5.8263 7.0679 16.715 0 7.1634-3.2474 12.226-3.1519 4.9667-9.2647 7.641-6.1128 2.5788-14.9 2.5788h-9.9333v23.305h-14.518zm14.518-34.862h9.1692q6.4949 0 9.8378-2.5788 3.4385-2.6744 3.4385-8.3096t-3.4385-8.3096q-3.3429-2.6744-9.7423-2.6744h-9.2647v21.872z"/>
   <path style="fill:#404040" d="m122.91 948.69q-7.0679 0-11.748 6.0173v32.092h-14.136v-49.476h12.13l.95513 7.641q5.2532-8.5006 13.181-8.5006 1.9102 0 3.3429.28654t2.7699.95513v12.703q-2.7699-1.7192-6.4949-1.7192z"/>
   <path style="fill:#404040" d="m176.14 984.31q-7.3545 3.725-17.383 3.725-8.1186 0-13.945-3.0564-5.8263-3.0564-8.9782-8.7872-3.0564-5.8263-3.0564-13.945 0-6.0173 1.6237-10.793 1.7192-4.8712 4.8712-8.3096 3.1519-3.4385 7.5455-5.2532t9.8378-1.8147q10.411 0 15.951 6.4949 5.5397 6.3994 5.5397 18.434v4.107h-31.519q.7641 6.0173 4.2026 8.8827 3.534 2.8654 10.124 2.8654 4.3936 0 7.9276-.95512 3.6295-.95513 7.259-3.0564v11.462zm-19.67-38.01q-4.0115 0-6.4949 2.7699-2.4833 2.6744-3.2474 7.7365h18.338q-.38206-5.4442-2.4833-7.9276-2.1013-2.5788-6.1128-2.5788z"/>
   <path style="fill:#404040" d="m217.19 948.3h-12.13v38.492h-14.136v-38.492h-8.0231v-10.984h8.0231v-1.5282q0-6.6859 2.2923-11.462 2.3878-4.8712 6.7814-7.3545 4.4891-2.5788 10.697-2.5788 5.5397 0 10.124 1.9102v11.079q-1.6237-.85962-3.534-1.2417-1.8147-.38205-3.6295-.38205-8.5961 0-8.5961 9.5513v2.0058h12.13v10.984z"/>
   <path style="fill:#404040" d="m264.75 984.31q-7.3545 3.725-17.383 3.725-8.1186 0-13.945-3.0564-5.8263-3.0564-8.9782-8.7872-3.0564-5.8263-3.0564-13.945 0-6.0173 1.6237-10.793 1.7192-4.8712 4.8712-8.3096 3.1519-3.4385 7.5455-5.2532t9.8378-1.8147q10.411 0 15.951 6.4949 5.5397 6.3994 5.5397 18.434v4.107h-31.519q.7641 6.0173 4.2026 8.8827 3.534 2.8654 10.124 2.8654 4.3936 0 7.9276-.95512 3.6295-.95513 7.259-3.0564v11.462zm-19.676-38.014q-4.0115 0-6.4949 2.7699-2.4833 2.6744-3.2474 7.7365h18.338q-.38205-5.4442-2.4833-7.9276-2.1013-2.5788-6.1128-2.5788z"/>
   <path style="fill:#404040" d="m302.55 948.69q-7.0679 0-11.748 6.0173v32.092h-14.136v-49.476h12.13l.95513 7.641q5.2532-8.5006 13.181-8.5006 1.9102 0 3.3429.28654t2.7699.95513v12.703q-2.7699-1.7192-6.4949-1.7192z"/>
   <path style="fill:#404040" d="m342.29 948.69q-7.0679 0-11.748 6.0173v32.092h-14.136v-49.476h12.13l.95512 7.641q5.2532-8.5006 13.181-8.5006 1.9102 0 3.3429.28654t2.7699.95513v12.703q-2.7699-1.7192-6.4949-1.7192z"/>
   <path style="fill:#404040" d="m395.52 984.31q-7.3545 3.725-17.383 3.725-8.1186 0-13.945-3.0564-5.8263-3.0564-8.9782-8.7872-3.0564-5.8263-3.0564-13.945 0-6.0173 1.6237-10.793 1.7192-4.8712 4.8712-8.3096 3.1519-3.4385 7.5455-5.2532t9.8378-1.8147q10.411 0 15.951 6.4949 5.5397 6.3994 5.5397 18.434v4.107h-31.519q.7641 6.0173 4.2026 8.8827 3.534 2.8654 10.124 2.8654 4.3936 0 7.9276-.95512 3.6295-.95513 7.259-3.0564v11.462zm-19.676-38.014q-4.0115 0-6.4949 2.7699-2.4833 2.6744-3.2474 7.7365h18.338q-.38205-5.4442-2.4833-7.9276-2.1013-2.5788-6.1128-2.5788z"/>
   <path style="fill:#404040" d="m440.29 986.8-.66859-5.4442q-2.8654 3.4385-6.3994 5.0622t-7.7365 1.6237q-6.3038 0-10.984-3.0564-4.5846-3.0564-7.0679-8.6916t-2.4833-13.276q0-8.3096 2.9609-14.327 2.9609-6.0173 8.3096-9.2647 5.4442-3.343 12.894-3.343 4.8712 0 9.1692 2.0058v-22.445h14.136v71.157h-12.13zm-20.917-24.356q0 6.8769 2.4833 10.506 2.5788 3.6295 7.5455 3.6295 2.5788 0 4.7756-.95512 2.1968-1.0506 4.107-3.2474v-23.019q-1.8147-.95513-3.534-1.3372-1.6237-.47757-3.534-.47757-5.6352 0-8.7872 3.916-3.0564 3.916-3.0564 10.984z"/>
  </g>
 </g>
</svg>
