<svg xmlns:rdf="http://www.w3.org/1999/02/22-rdf-syntax-ns#" xmlns="http://www.w3.org/2000/svg" height="272.91mm" width="598.72mm" version="1.1" xmlns:cc="http://creativecommons.org/ns#" xmlns:dc="http://purl.org/dc/elements/1.1/" viewBox="0 0 2121.4433 966.99994">
 <g transform="translate(1849.3 -431.72)">
  <rect style="stroke:#404040;stroke-dasharray:14, 14;stroke-width:7;fill:#dcdcdc" height="960" width="960" y="435.22" x="-1845.8"/>
  <rect style="stroke:#404040;stroke-dasharray:14, 14;stroke-width:7;fill:#dcdcdc" height="360" width="800" y="515.22" x="-1765.8"/>
  <rect style="stroke:#404040;stroke-dasharray:14, 14;stroke-width:7;fill:#dcdcdc" height="360" width="800" y="955.22" x="-1765.8"/>
  <rect style="stroke:#404040;stroke-dasharray:14, 14;stroke-width:7;fill:#dcdcdc" height="120" width="640" y="1115.2" x="-1685.8"/>
  <path style="stroke:#404040;stroke-width:7;fill:none" d="m-885.79 555.22h640"/>
  <path style="stroke:#404040;stroke-width:7;fill:none" d="m-965.79 795.22h720"/>
  <path style="stroke:#404040;stroke-width:7;fill:none" d="m-1045.8 1155.2h800"/>
  <g style="fill:#404040">
   <path style="fill:#404040" d="m-166.66 591.63v6.5931h-30.43v-6.5931l9.0021-.63395v-79.117l-9.7628-.63395v-6.4663l19.272-1.7751h2.6626v38.037q4.3108-4.818 9.2556-7.1002 5.0716-2.409 11.284-2.409 10.27 0 15.722 6.0859 5.5788 6.0859 5.5788 17.624v35.755l9.0021.63395v6.5931h-30.43v-6.5931l9.2556-.63395v-35.121q0-7.3538-3.2965-11.284-3.2965-3.9305-9.5092-3.9305-4.818 0-9.0021 2.0286-4.0573 1.9018-7.861 6.2127v42.094l9.2556.63395z"/>
   <path style="fill:#404040" d="m-57.929 591.38v6.8466h-43.616v-6.8466l15.595-1.0143v-68.34q-5.1984 2.409-10.016 4.818-4.6912 2.2822-8.8753 4.4376v-8.2413q3.6769-2.1554 7.1002-4.0573 3.4233-2.0286 7.3538-4.1841 4.0573-2.2822 9.5092-5.1984h7.3538v80.765l15.595 1.0143z"/>
   <path style="fill:#404040" d="m-.12669 511.88-9.7628-.63395v-6.4663l19.272-1.7751h2.6626v87.992l9.0021.63395v6.5931h-30.176v-6.5931l9.0021-.63395v-79.117z"/>
   <path style="fill:#404040" d="m86.389 593.91q-4.0573 2.7894-10.143 4.3108-6.0859 1.6483-12.806 1.6483-10.016 0-17.117-3.9305-7.1002-4.0573-10.777-11.791-3.6769-7.7342-3.6769-18.765 0-10.27 3.6769-17.877 3.8037-7.6074 10.65-11.791 6.8466-4.1841 16.102-4.1841 12.806 0 19.652 8.4949 6.9734 8.4949 6.9734 24.344v3.2965h-44.757q.76074 11.918 6.2127 17.751 5.5787 5.7055 16.102 5.7055 5.452 0 10.27-1.3947 4.9448-1.3947 9.636-4.4376v8.6217zm-24.724-54.64q-7.6074 0-12.299 5.5787-4.5644 5.452-5.1984 15.342h33.092q-.38037-10.65-4.3108-15.722-3.8037-5.1984-11.284-5.1984z"/>
   <path style="fill:#404040" d="m160.7 540.79q-3.6769 9.7628-7.7342 19.906-4.0573 10.016-8.1145 19.652-4.0573 9.5092-7.7342 17.877h-10.143q-3.6769-8.3681-7.7342-17.877-4.0573-9.636-8.1145-19.779-4.0573-10.27-7.7342-20.286l-7.9878-.50715v-6.5931h30.556v6.5931l-9.7628.50715q2.2822 6.9734 5.1984 14.834 3.043 7.861 6.0859 15.849 3.1697 7.861 6.2127 14.961 3.043-7.3538 6.2127-15.215 3.1698-7.861 6.0859-15.468 2.9162-7.7342 5.3252-14.454l-8.8753-1.0143v-6.5931h26.245v6.5931l-7.9878 1.0143z"/>
   <path style="fill:#404040" d="m228.78 593.91q-4.0573 2.7894-10.143 4.3108-6.0859 1.6483-12.806 1.6483-10.016 0-17.117-3.9305-7.1002-4.0573-10.777-11.791-3.6769-7.7342-3.6769-18.765 0-10.27 3.6769-17.877 3.8037-7.6074 10.65-11.791 6.8466-4.1841 16.102-4.1841 12.806 0 19.652 8.4949 6.9734 8.4949 6.9734 24.344v3.2965h-44.757q.76073 11.918 6.2127 17.751 5.5788 5.7055 16.102 5.7055 5.452 0 10.27-1.3947 4.9448-1.3947 9.636-4.4376v8.6217zm-24.724-54.646q-7.6074 0-12.299 5.5787-4.5644 5.452-5.1984 15.342h33.092q-.38037-10.65-4.3108-15.722-3.8037-5.1984-11.284-5.1984z"/>
   <path style="fill:#404040" d="m250.98 511.88-9.7628-.63395v-6.4663l19.272-1.7751h2.6626v87.992l9.0021.63395v6.5931h-30.176v-6.5931l9.0021-.63395v-79.117z"/>
  </g>
  <g style="fill:#404040">
   <path style="fill:#404040" d="m-166.66 821.95v6.5931h-30.43v-6.5931l9.0021-.63395v-79.117l-9.7628-.63395v-6.4663l19.272-1.7751h2.6626v38.037q4.3108-4.818 9.2556-7.1002 5.0716-2.409 11.284-2.409 10.27 0 15.722 6.0859 5.5788 6.0859 5.5788 17.624v35.755l9.0021.63395v6.5931h-30.43v-6.5931l9.2556-.63395v-35.121q0-7.3538-3.2965-11.284-3.2965-3.9305-9.5092-3.9305-4.818 0-9.0021 2.0286-4.0573 1.9018-7.861 6.2127v42.094l9.2556.63395z"/>
   <path style="fill:#404040" d="m-53.238 804.96-.76074 23.583h-59.718v-3.5501q0-6.0859 1.2679-11.031 1.2679-5.0716 4.1841-9.636t7.7342-8.8753q4.818-4.4376 11.791-9.1289 5.7055-3.9305 9.5092-6.9734 3.8037-3.043 5.9591-5.7055 2.1554-2.6626 3.043-5.3252.88753-2.7894.88753-6.2127 0-7.3538-4.3108-11.538-4.3108-4.1841-12.425-4.1841-8.3681 0-14.834 3.4233l-2.6626 14.327h-8.7485l.63395-18.258q3.8037-2.2822 8.3681-3.9305 4.5644-1.7751 9.1289-2.6626 4.5644-1.0143 8.8753-1.0143 9.1289 0 15.595 2.7894 6.4663 2.7894 9.8896 7.9878 3.4233 5.0716 3.4233 12.299 0 4.818-1.1411 8.7485-1.0143 3.8037-3.8037 7.3538-2.6626 3.5501-7.227 7.227-4.5644 3.5501-11.665 7.861-6.2127 3.8037-10.397 7.1002-4.1841 3.1697-6.7199 6.2127-2.5358 2.9162-3.6769 5.9591-1.0143 3.043-1.0143 6.5931h37.403l2.5358-13.44h8.8753z"/>
   <path style="fill:#404040" d="m-.12669 742.2-9.7628-.63395v-6.4663l19.272-1.7751h2.6626v87.992l9.0021.63395v6.5931h-30.176v-6.5931l9.0021-.63395v-79.117z"/>
   <path style="fill:#404040" d="m86.389 824.23q-4.0573 2.7894-10.143 4.3108-6.0859 1.6483-12.806 1.6483-10.016 0-17.117-3.9305-7.1002-4.0573-10.777-11.791-3.6769-7.7342-3.6769-18.765 0-10.27 3.6769-17.877 3.8037-7.6074 10.65-11.791 6.8466-4.1841 16.102-4.1841 12.806 0 19.652 8.4949 6.9734 8.4949 6.9734 24.344v3.2965h-44.757q.76074 11.918 6.2127 17.751 5.5787 5.7055 16.102 5.7055 5.452 0 10.27-1.3947 4.9448-1.3947 9.636-4.4376v8.6217zm-24.724-54.65q-7.6074 0-12.299 5.5787-4.5644 5.452-5.1984 15.342h33.092q-.38037-10.65-4.3108-15.722-3.8037-5.1984-11.284-5.1984z"/>
   <path style="fill:#404040" d="m160.7 771.1q-3.6769 9.7628-7.7342 19.906-4.0573 10.016-8.1145 19.652-4.0573 9.5092-7.7342 17.877h-10.143q-3.6769-8.3681-7.7342-17.877-4.0573-9.636-8.1145-19.779-4.0573-10.27-7.7342-20.286l-7.9878-.50715v-6.5931h30.556v6.5931l-9.7628.50715q2.2822 6.9734 5.1984 14.834 3.043 7.861 6.0859 15.849 3.1697 7.861 6.2127 14.961 3.043-7.3538 6.2127-15.215 3.1698-7.861 6.0859-15.468 2.9162-7.7342 5.3252-14.454l-8.8753-1.0143v-6.5931h26.245v6.5931l-7.9878 1.0143z"/>
   <path style="fill:#404040" d="m228.78 824.23q-4.0573 2.7894-10.143 4.3108-6.0859 1.6483-12.806 1.6483-10.016 0-17.117-3.9305-7.1002-4.0573-10.777-11.791-3.6769-7.7342-3.6769-18.765 0-10.27 3.6769-17.877 3.8037-7.6074 10.65-11.791 6.8466-4.1841 16.102-4.1841 12.806 0 19.652 8.4949 6.9734 8.4949 6.9734 24.344v3.2965h-44.757q.76073 11.918 6.2127 17.751 5.5788 5.7055 16.102 5.7055 5.452 0 10.27-1.3947 4.9448-1.3947 9.636-4.4376v8.6217zm-24.724-54.646q-7.6074 0-12.299 5.5787-4.5644 5.452-5.1984 15.342h33.092q-.38037-10.65-4.3108-15.722-3.8037-5.1984-11.284-5.1984z"/>
   <path style="fill:#404040" d="m250.98 742.2-9.7628-.63395v-6.4663l19.272-1.7751h2.6626v87.992l9.0021.63395v6.5931h-30.176v-6.5931l9.0021-.63395v-79.117z"/>
  </g>
  <g style="fill:#404040">
   <path style="fill:#404040" d="m-166.66 1181.6v6.593h-30.43v-6.593l9.0021-.634v-79.117l-9.7628-.634v-6.4662l19.272-1.7751h2.6626v38.037q4.3108-4.818 9.2556-7.1002 5.0716-2.409 11.284-2.409 10.27 0 15.722 6.0859 5.5788 6.0859 5.5788 17.624v35.755l9.0021.634v6.593h-30.43v-6.593l9.2556-.634v-35.121q0-7.3538-3.2965-11.284-3.2965-3.9305-9.5092-3.9305-4.818 0-9.0021 2.0287-4.0573 1.9018-7.861 6.2127v42.094l9.2556.634z"/>
   <path style="fill:#404040" d="m-53.998 1163.9q0 7.9878-4.0573 13.82-3.9305 5.8323-11.411 9.0021-7.4806 3.0429-17.877 3.0429-6.9734 0-13.44-1.5215-6.3395-1.3947-11.918-4.184l-.63395-18.892h8.8753l2.6626 13.947q3.1697 1.5215 6.5931 2.2822 3.5501.6339 7.4806.6339 9.7628 0 15.215-4.818 5.5787-4.9448 5.5787-13.82 0-8.495-5.8323-12.933-5.8323-4.4376-16.736-4.4376h-8.6217v-7.9878h7.9878q10.397 0 15.849-4.3108 5.5787-4.4377 5.5787-12.679 0-7.4806-4.6912-11.411-4.5644-4.0572-13.186-4.0572-3.4233 0-6.7199.6339-3.2965.634-6.2127 1.9019l-2.6626 13.82h-8.7485l.63394-17.877q3.4233-1.9019 7.7342-3.2965 4.3109-1.3947 8.8753-2.1555 4.5644-.7607 9.0021-.7607 8.8753 0 15.342 2.6626 6.4663 2.6626 9.8896 7.6074 3.5501 4.9448 3.5501 11.791 0 8.3681-5.1984 14.074-5.0716 5.5787-14.074 7.4805 10.016 1.3947 15.595 7.2271 5.5787 5.8323 5.5787 15.215z"/>
   <path style="fill:#404040" d="m-.12669 1101.8-9.7628-.634v-6.4662l19.272-1.7751h2.6626v87.992l9.0021.634v6.593h-30.176v-6.593l9.0021-.634v-79.117z"/>
   <path style="fill:#404040" d="m86.389 1183.8q-4.0573 2.7894-10.143 4.3108-6.0859 1.6483-12.806 1.6483-10.016 0-17.117-3.9305-7.1002-4.0572-10.777-11.791-3.6769-7.7342-3.6769-18.765 0-10.27 3.6769-17.877 3.8037-7.6074 10.65-11.792 6.8466-4.184 16.102-4.184 12.806 0 19.652 8.4949 6.9734 8.4949 6.9734 24.344v3.2965h-44.757q.76074 11.918 6.2127 17.751 5.5787 5.7055 16.102 5.7055 5.452 0 10.27-1.3947 4.9448-1.3947 9.636-4.4376v8.6217zm-24.724-54.646q-7.6074 0-12.299 5.5788-4.5644 5.4519-5.1984 15.342h33.092q-.38037-10.65-4.3108-15.722-3.8037-5.1984-11.284-5.1984z"/>
   <path style="fill:#404040" d="m160.7 1130.7q-3.6769 9.7628-7.7342 19.906-4.0573 10.016-8.1145 19.652-4.0573 9.5092-7.7342 17.877h-10.143q-3.6769-8.3681-7.7342-17.877-4.0573-9.636-8.1145-19.779-4.0573-10.27-7.7342-20.286l-7.9878-.5072v-6.5931h30.556v6.5931l-9.7628.5072q2.2822 6.9734 5.1984 14.834 3.043 7.8609 6.0859 15.849 3.1697 7.8609 6.2127 14.961 3.043-7.3538 6.2127-15.215 3.1698-7.861 6.0859-15.468 2.9162-7.7341 5.3252-14.454l-8.8753-1.0143v-6.5931h26.245v6.5931l-7.9878 1.0143z"/>
   <path style="fill:#404040" d="m228.78 1183.8q-4.0573 2.7894-10.143 4.3108-6.0859 1.6483-12.806 1.6483-10.016 0-17.117-3.9305-7.1002-4.0572-10.777-11.791-3.6769-7.7342-3.6769-18.765 0-10.27 3.6769-17.877 3.8037-7.6074 10.65-11.792 6.8466-4.184 16.102-4.184 12.806 0 19.652 8.4949 6.9734 8.4949 6.9734 24.344v3.2965h-44.757q.76073 11.918 6.2127 17.751 5.5788 5.7055 16.102 5.7055 5.452 0 10.27-1.3947 4.9448-1.3947 9.636-4.4376v8.6217zm-24.724-54.646q-7.6074 0-12.299 5.5788-4.5644 5.4519-5.1984 15.342h33.092q-.38037-10.65-4.3108-15.722-3.8037-5.1984-11.284-5.1984z"/>
   <path style="fill:#404040" d="m250.98 1101.8-9.7628-.634v-6.4662l19.272-1.7751h2.6626v87.992l9.0021.634v6.593h-30.176v-6.593l9.0021-.634v-79.117z"/>
  </g>
 </g>
</svg>
