<svg xmlns="http://www.w3.org/2000/svg" xmlns:xlink="http://www.w3.org/1999/xlink">
  <symbol id="bbc-logo" xmlns="http://www.w3.org/2000/svg" xmlns:xlink="http://www.w3.org/1999/xlink" viewBox="0 0 211.1 60.5">
    <path fill="currentColor" d="M.9.2v60h63.8V.3H.9zm73 0v60h63.9V.3H74zm73.3 0v60H211V.3h-63.8zM182 8.1a29 29 0 0 1 4.3.3h.4l.8.2a27.8 27.8 0 0 1 2 .4l.6.1a48.2 48.2 0 0 1 1.6.4l.2.1.7.2 1 .3.8.3.9.3 1.3.5 1.4.5v8l-.8-.4-1.2-.6-.8-.4-1.1-.5-1.5-.7-1.2-.4-.7-.3a24.4 24.4 0 0 0-6.2-1.3h-.8l-1.2-.1h-.6a20.2 20.2 0 0 0-8 1.6c-1.7.8-3.4 2-4.9 3.4l-.3.3a12.8 12.8 0 0 0-1.9 2.6l-.3.6a13.9 13.9 0 0 0-1.6 6.8 18.4 18.4 0 0 0 .7 4.8 13.5 13.5 0 0 0 1.6 3.4l.4.6a15 15 0 0 0 1.5 1.7l.1.1.2.2.3.3a16.7 16.7 0 0 0 3.7 2.3l.6.3.3.1.5.2a20.5 20.5 0 0 0 8.4 1.2 25.1 25.1 0 0 0 2.7-.2l.5-.1a29.3 29.3 0 0 0 11.2-4.4l.6-.3.3-.2v8.2l-.5.2-1 .5a53 53 0 0 1-2.3 1l-.7.2-.4.2a32.4 32.4 0 0 1-8.1 1.7h-.2a45 45 0 0 1-9.6-.4 28.2 28.2 0 0 1-8.8-3.5l-1-.7-.8-.5-.7-.7-1-.8v-.2a21.3 21.3 0 0 1-6.3-12.4v-.3a19.4 19.4 0 0 1 0-5 21.8 21.8 0 0 1 3-8.6l.4-.5a22.5 22.5 0 0 1 11-8.7 27 27 0 0 1 5.5-1.5h.4l.3-.1h.3l1.2-.2h.8l1.4-.1h.6zm-164.3.5h14c7.6 0 11 4 11 4s3 2.6 3 7.2-2 6.4-2.7 7c-1.2 1.3-2.8 2-2.8 2s3.6.8 6.4 3.6c3.3 3.3 3 7.6 3 7.6s.3 4.2-3.3 7.7C41.8 52.1 34 52 34 52H17.6V8.6zm73.1 0h14c7.6 0 11 4 11 4s3 2.6 3 7.2-2 6.4-2.7 7c-1.2 1.3-2.8 2-2.8 2s3.6.8 6.4 3.6c3.3 3.3 3 7.6 3 7.6s.3 4.2-3.3 7.7C115 52.1 107 52 107 52H90.7V8.6zm-66 6.8v11.2h5a14.8 14.8 0 0 0 3.5-.7c.9-.3 1.7-.8 2.3-1.4.5-.4.8-1 1-1.5.3-.6.4-1.3.4-1.7v-.6-.5c0-.5-.1-1.3-.5-2-.2-.4-.4-.8-.8-1.1l-1.4-1c-1-.4-2.3-.6-3.3-.7h-6.2zm73 0v11.2h5.2a14.8 14.8 0 0 0 3.4-.7 6 6 0 0 0 2.3-1.4c.5-.4.8-1 1-1.5.3-.6.4-1.3.4-1.7v-.6-.5c0-.5 0-1.3-.5-2-.2-.4-.4-.8-.8-1.1a5 5 0 0 0-1.4-1 9.9 9.9 0 0 0-4.5-.7h-5zm-73 18V45h9l3-.6c1-.4 2-.8 2.7-1.6.2-.2.5-.5.6-.8.7-1 .8-2 .8-2.5v-.3-.3l-.1-1.2a4.7 4.7 0 0 0-1.9-2.7l-1.4-.8a11 11 0 0 0-3.7-.9 19.4 19.4 0 0 0-1.7 0h-7.4zm73 0V45h9.1l3-.6c1-.4 2-.8 2.7-1.6a4.9 4.9 0 0 0 1.4-3.3v-.3-.3-1.2a4.7 4.7 0 0 0-2-2.7l-1.4-.8a11 11 0 0 0-3.7-.9 19.5 19.5 0 0 0-1.7 0h-7.4z"/>
  </symbol>
</svg>