<svg xmlns="http://www.w3.org/2000/svg" xmlns:xlink="http://www.w3.org/1999/xlink">
  <symbol id="codegel-logo" viewBox="0 0 1101.9 202.4"><path fill="#404040" d="M1032.9 0v26l6.3.4c8.6.7 12.4 2.9 15 8.6 1.7 4 2 5.9 1.4 15.6-.3 6.1-1 12.7-1.6 14.6-1.8 5.7-1.3 18 .8 22.5 2 4.6 8.9 11.1 12.6 12 3.5 1 3.1 1.9-1.4 4a24 24 0 0 0-11.5 11.7c-1.8 4.3-2.1 16.5-.6 21.8.6 2 1.4 8.3 1.7 14.2 1 18-2.7 23.6-15.8 24.6l-6.9.5v25.9l15.3-.4c14.3-.4 15.6-.6 21-3.2 10-5 16-13.5 17.6-25.2 1-6.9.2-20.3-2-34.3-2.2-14.7 2.4-23.7 12.7-24.9l4.4-.4V88.5l-4.4-.5c-10.3-1.2-15-10.2-12.6-25 2.1-14 3-27.3 2-34.2A31.5 31.5 0 0 0 1069 3.6c-5.3-2.6-6.6-2.8-21-3.2L1033 0zM585.4.2c-14.5 0-21.2 1.4-28 6-4 3-9.4 10-11.3 15.2-2.4 6.7-2.7 20.1-.7 33.2 3.5 23 .5 31.3-11.6 33.4l-4.4.7v24.9l4.4.8c12.1 2 15 10.4 11.6 33.3-2 13.1-1.7 26.5.7 33.2 2 5.3 7.2 12.4 11.6 15.4 1.8 1.2 5.7 3 8.5 4 4 1.4 8.4 1.8 19 1.8h13.7v-26h-4.8c-10.9 0-16.1-3.8-18.3-13.3-1-4.4-.9-7.4.5-16.7 2.4-16.8 2.1-28.4-.7-33.4-1.9-3.4-8.2-8.8-13-11-1-.4-1-.6 0-1.1 4.8-2.2 11.1-7.5 13-11 2.9-5 3-15.5.6-33.5-1.4-10.8-1.5-13.3-.3-17.4 2.5-9 7.6-12.5 18.2-12.5h4.8V.2h-13.5zM386.9 2.7l-16 .3-16 .3v25c0 27.7.5 26-7.1 23.3-7.1-2.7-23.6-2.2-33 .8A51.4 51.4 0 0 0 280.3 90a110 110 0 0 0-1 38.1c3.6 21 15.6 35.5 33.1 40.3 1.6.4 8 .7 14 .5 12.7-.2 17.7-2 25.8-8.8 2.7-2.2 5-3.8 5.3-3.5.3.3.8 2.7 1.2 5.3l.7 4.9 13.8.3 13.7.2V2.7zM697.5 6c-13-.1-25.6 1.5-36.2 5-11.9 4-18.5 8.2-28.5 18.1-7.3 7.2-9.4 10-13.3 18a92.6 92.6 0 0 0-8.7 49.8c1.8 15.6 3.8 23 8.7 33 3.8 8 6 11 12.8 17.6a69.2 69.2 0 0 0 42.6 21c18.3 3 42.6 1 60.6-5 6-1.9 11.9-4.2 13.1-5l2.3-1.5v-78h-61.1l.3 13.3.3 13.3 14 .5 14 .5v30l-5.4 1.8a54.5 54.5 0 0 1-17 1.8c-17.8 0-28.3-4-37.6-14.3-10.7-11.9-14.9-31.4-11-51.3 2-10.3 5.4-17.4 11.5-23.9 9.9-10.5 22.3-15 40.5-14.9 14.2.1 25.9 2.5 37.2 7.8a51 51 0 0 0 9 3.5c1.9 0 2-29.3 0-30.8-.7-.6-5.5-2.5-10.7-4.3a125 125 0 0 0-37.4-6zm-619.9.7A72 72 0 0 0 2.7 62.2a140 140 0 0 0-1.9 42C6 140.6 28.8 164 64.1 169c19.5 2.8 42 0 59-7.5l5.7-2.6.3-15.3c.2-8.5 0-15.4-.3-15.4s-4.4 1.7-9 3.9a75.9 75.9 0 0 1-34.5 8c-25.8 0-43-12.8-48.5-36a112 112 0 0 1 0-32.3c5.3-22.5 23.6-36 48.6-36 12.6 0 22.4 2.3 33.7 8L128 48V16.5l-6-2.7c-12.4-5.6-20-7-39.5-7h-4.8zM917 9v158h108v-29.9l-36.8-.3-36.7-.2-.5-63.5-.5-63.5-16.7-.3-16.8-.3zm-137 0v78.4c0 43 .3 78.7.7 79 .3.4 25.7.6 56.2.4l55.6-.2v-28l-38.8-.3-38.7-.2v-38h65v-29h-32.3a667 667 0 0 1-32.8-.4c-.2-.3-.3-7.7-.1-16.5l.3-16 36.7-.4 36.7-.2v-28l-54.3-.3-54.2-.2zM203.4 50a74 74 0 0 0-17.4 1.7c-25.9 6.9-40.1 27.7-40.1 58.6 0 29.6 15.3 51.5 40.3 57.5a111 111 0 0 0 31.9.4 51.1 51.1 0 0 0 38.5-35.4c2.5-7.3 2.7-9.4 2.7-23 0-13.9-.2-15.7-2.8-23.3a51 51 0 0 0-36.1-34.7 68 68 0 0 0-17-1.8zm263 0a56.7 56.7 0 0 0-28.7 6.4c-7 3.6-16 13.4-20.1 22a63.2 63.2 0 0 0-6.3 28.4c-1.8 32.6 14 55.4 42.8 61.5 2.3.5 11.7.7 20.8.5 16.7-.3 24.9-1.8 33.3-6.2l2.7-1.4v-13c0-8.2-.4-13-1-13s-3.2 1.1-5.8 2.4A66.3 66.3 0 0 1 463 142c-3.2-1-7.4-3.2-10-5.4-4.6-4-9-12-9-16.6v-2.7l35.8-.3 35.7-.2v-12c-.2-17.5-4.4-31.3-12.5-40.3-9.4-10.3-19.6-14.4-36.5-14.5zm-.5 23.6h1.9C477 75 483 81.8 484.6 93l.6 4.3h-41.3v-2.3c0-3 5.2-13.7 7.6-16 3.6-3 9.7-5.4 14.4-5.4zm-262.6 2.7c4.7 0 9.3 1.8 13.2 5.2 8.3 7.3 12.1 23.6 9 38.6-2.6 12-7 18.3-14.8 21.6-8.3 3.5-17.7 1-24-6.3-9.9-11.6-9.9-39.7 0-51.3a21.5 21.5 0 0 1 16.6-7.8zm135.6.6c5.7 0 8.5.6 11.8 2.2l4.2 2.2V133l-4.1 3.5a32 32 0 0 1-8.7 5.1c-13 4.4-24.2-1.6-28.8-15.4-2.6-8.1-2.4-24.6.5-32 5-12.3 12.5-17.5 25.1-17.4z"/></symbol>
</svg>

