<svg xmlns:rdf="http://www.w3.org/1999/02/22-rdf-syntax-ns#" xmlns="http://www.w3.org/2000/svg" height="1036.6" width="925" version="1.1" xmlns:cc="http://creativecommons.org/ns#" xmlns:xlink="http://www.w3.org/1999/xlink" viewBox="0 0 867.20184 971.79153" xmlns:dc="http://purl.org/dc/elements/1.1/">
 <path style="stroke-linejoin:round;stroke:#000000;stroke-linecap:round;stroke-width:65.626;fill:none" d="m32.813 475h102.3v417.06h-102.3zm233.17 441.18c-15.486-12.012-33.662-26.413-40.391-32.002-7.231-6.007-29.949-11.786-55.559-14.133-46.844 19.297-31.451 19.953-30.701-165.41.343-84.794.602-210.39 2.981-219 3.91-14.139-25.535 11.714 8.147 9.976 27.517-1.419 40.953-5.387 51.365-15.169 7.756-7.286 14.101-15.6 14.101-18.477 40.428-124.46 180.55-236.28 212.84-372.26.232-27.611 14.837-59.605 61.079-56.932 34.58 1.999 69.415 25.867 77.951 38.651 46.429 87.686-50.003 222.01-20.802 279.07 5.313 8.603 12.54 17.854 16.061 20.556s51.453 4.405 106.52 3.783c105.51-1.191 121.54 1.765 149.34 27.529 33.966 60.426-4.9564 100.75-54.915 129.02 97.032 30.052 73.367 120.23-12.868 139.48 110.49 74.569 24.96 115.63-5.413 127.13 72.296 53.117 46.778 97.487 9.854 121.49-47.394 23.828-167.81 18.96-239.13 18.857l-222.3-.322z"/>
</svg>
