<?xml version="1.0" encoding="UTF-8" standalone="no"?>
<svg
   xmlns:dc="http://purl.org/dc/elements/1.1/"
   xmlns:cc="http://creativecommons.org/ns#"
   xmlns:rdf="http://www.w3.org/1999/02/22-rdf-syntax-ns#"
   xmlns:svg="http://www.w3.org/2000/svg"
   xmlns="http://www.w3.org/2000/svg"
   xmlns:sodipodi="http://sodipodi.sourceforge.net/DTD/sodipodi-0.dtd"
   xmlns:inkscape="http://www.inkscape.org/namespaces/inkscape"
   height="270.93179mm"
   width="597.07721mm"
   version="1.1"
   viewBox="0 0 2115.64 959.99423"
   id="svg12051"
   inkscape:version="0.91 r13725"
   sodipodi:docname="article_order.svg">
  <metadata
     id="metadata12259">
    <rdf:RDF>
      <cc:Work
         rdf:about="">
        <dc:format>image/svg+xml</dc:format>
        <dc:type
           rdf:resource="http://purl.org/dc/dcmitype/StillImage" />
        <dc:title></dc:title>
      </cc:Work>
    </rdf:RDF>
  </metadata>
  <defs
     id="defs12257" />
  <sodipodi:namedview
     pagecolor="#ffffff"
     bordercolor="#666666"
     borderopacity="1"
     objecttolerance="10"
     gridtolerance="10"
     guidetolerance="10"
     inkscape:pageopacity="0"
     inkscape:pageshadow="2"
     inkscape:window-width="1440"
     inkscape:window-height="788"
     id="namedview12255"
     showgrid="true"
     fit-margin-top="0"
     fit-margin-left="0"
     fit-margin-right="0"
     fit-margin-bottom="0"
     inkscape:zoom="0.31291324"
     inkscape:cx="1148.1914"
     inkscape:cy="141.25511"
     inkscape:window-x="0"
     inkscape:window-y="1"
     inkscape:window-maximized="1"
     inkscape:current-layer="svg12051">
    <inkscape:grid
       type="xygrid"
       id="grid12901"
       originx="2.4414061e-05"
       originy="-134.21074" />
  </sodipodi:namedview>
  <rect
     id="rect12055"
     x="3.3881318e-21"
     y="-0.0032959171"
     width="960"
     height="960"
     style="fill:#dcdcdc;stroke-width:0" />
  <rect
     id="rect12057"
     x="1155.64"
     y="-0.0032959171"
     width="960"
     height="960"
     style="fill:#dcdcdc;stroke-width:0" />
  <g
     id="g12059"
     style="fill:#404040"
     transform="translate(1446.4,106.1667)">
    <path
       inkscape:connector-curvature="0"
       id="path12061"
       d="m -1334.4,126.03 q -4.7358,-9.4715 -9.2563,-18.943 -4.5205,-9.5791 -8.9333,-19.051 l 0,52.308 -15.822,0 0,-76.956 19.912,0 q 5.0587,11.839 10.333,23.679 5.2739,11.732 10.763,23.248 5.3816,-11.516 10.656,-23.141 5.2739,-11.732 10.225,-23.786 l 19.374,0 0,76.956 -15.822,0 0,-52.524 q -4.4129,9.6868 -9.041,19.266 -4.5205,9.4715 -9.1486,18.943 l -13.238,0 z"
       style="fill:#404040" />
    <path
       inkscape:connector-curvature="0"
       id="path12063"
       d="m -1229.5,141.42 q -9.2562,0 -11.516,-6.1349 -3.4442,3.2289 -7.4265,4.8434 -3.9823,1.6145 -8.8257,1.6145 -8.3952,0 -13.131,-4.3052 -4.7358,-4.4128 -4.7358,-12.162 0,-8.5028 6.4578,-13.023 6.5655,-4.6281 18.835,-4.6281 1.7221,0 3.6594,0.21526 2.045,0.10763 3.9824,0.43052 l 0,-2.4755 q 0,-5.0586 -2.7984,-7.5341 -2.7984,-2.4755 -8.6105,-2.4755 -4.8433,0 -9.1486,1.2916 -4.1976,1.2916 -8.1799,4.09 l 0,-13.346 q 4.6281,-2.2602 9.5791,-3.4442 4.951,-1.1839 10.01,-1.1839 11.732,0 18.082,5.9197 6.3502,5.8121 6.3502,16.683 l 0,20.88 q 0,1.9374 0.6458,2.906 0.6458,0.86104 2.3679,0.86104 0.861,0 1.6144,-0.10763 0.7535,-0.21526 1.5069,-0.64578 l 0,9.7944 q -1.7221,0.86105 -4.09,1.3992 -2.2602,0.53815 -4.6281,0.53815 z m -30.137,-17.544 q 0,6.5655 7.5342,6.5655 5.7044,0 9.902,-4.6281 l 0,-8.5028 q -1.5069,-0.32289 -3.2289,-0.43052 -1.6145,-0.21526 -3.229,-0.21526 -5.5968,0 -8.2875,1.7221 -2.6908,1.7221 -2.6908,5.4892 z"
       style="fill:#404040" />
    <path
       inkscape:connector-curvature="0"
       id="path12065"
       d="m -1204.6,59.832 q 4.3052,0 6.7807,2.2602 2.4755,2.1526 2.4755,6.0273 0,3.7671 -2.4755,6.0273 -2.4755,2.1526 -6.7807,2.1526 -4.3053,0 -6.7808,-2.1526 -2.4755,-2.2602 -2.4755,-6.0273 0,-3.8747 2.4755,-6.0273 2.4755,-2.2602 6.7808,-2.2602 z m -7.9647,24.755 15.929,0 0,55.753 -15.929,0 0,-55.753 z"
       style="fill:#404040" />
    <path
       inkscape:connector-curvature="0"
       id="path12067"
       d="m -1155.8,96.212 q -6.2425,0 -10.548,5.2739 l 0,38.855 -15.929,0 0,-55.753 13.669,0 0.861,6.7807 q 6.8884,-8.1799 16.898,-8.1799 9.1486,0 14.207,5.7044 5.0586,5.5968 5.0586,16.037 l 0,35.41 -15.929,0 0,-34.765 q 0,-4.6281 -2.1526,-6.996 -2.1526,-2.3679 -6.135,-2.3679 z"
       style="fill:#404040" />
    <path
       inkscape:connector-curvature="0"
       id="path12069"
       d="m -1066.2,96.212 q -6.2426,0 -10.548,5.2739 l 0,38.855 -15.929,0 0,-80.185 15.929,0 0,29.706 q 6.4578,-6.6731 15.499,-6.6731 9.1486,0 14.207,5.7044 5.0587,5.5968 5.0587,16.037 l 0,35.41 -15.929,0 0,-34.765 q 0,-4.6281 -2.1526,-6.996 -2.1526,-2.3679 -6.1349,-2.3679 z"
       style="fill:#404040" />
    <path
       inkscape:connector-curvature="0"
       id="path12071"
       d="m -982.11,137.54 q -8.2876,4.1976 -19.589,4.1976 -9.1486,0 -15.714,-3.4442 -6.5654,-3.4442 -10.117,-9.902 -3.4442,-6.5655 -3.4442,-15.714 0,-6.7807 1.8297,-12.162 1.9373,-5.4892 5.4892,-9.3639 3.5518,-3.8747 8.5028,-5.9197 4.951,-2.045 11.086,-2.045 11.732,0 17.974,7.3189 6.2426,7.2113 6.2426,20.773 l 0,4.6281 -35.518,0 q 0.8611,6.7807 4.7358,10.01 3.9823,3.2289 11.409,3.2289 4.951,0 8.9333,-1.0763 4.09,-1.0763 8.1799,-3.4442 l 0,12.916 z m -22.172,-42.837 q -4.5205,0 -7.3189,3.1213 -2.7984,3.0137 -3.6595,8.7181 l 20.665,0 q -0.43052,-6.1349 -2.7984,-8.9333 -2.3679,-2.906 -6.8883,-2.906 z"
       style="fill:#404040" />
    <path
       inkscape:connector-curvature="0"
       id="path12073"
       d="m -926.39,141.42 q -9.2562,0 -11.516,-6.1349 -3.4442,3.2289 -7.4265,4.8434 -3.9823,1.6145 -8.8257,1.6145 -8.3952,0 -13.131,-4.3052 -4.7358,-4.4128 -4.7358,-12.162 0,-8.5028 6.4578,-13.023 6.5655,-4.6281 18.835,-4.6281 1.7221,0 3.6594,0.21526 2.045,0.10763 3.9823,0.43052 l 0,-2.4755 q 0,-5.0586 -2.7984,-7.5341 -2.7984,-2.4755 -8.6104,-2.4755 -4.8434,0 -9.1486,1.2916 -4.1976,1.2916 -8.1799,4.09 l 0,-13.346 q 4.6281,-2.2602 9.5791,-3.4442 4.951,-1.1839 10.01,-1.1839 11.732,0 18.082,5.9197 6.3502,5.8121 6.3502,16.683 l 0,20.88 q 0,1.9374 0.64578,2.906 0.64579,0.86104 2.3679,0.86104 0.86104,0 1.6144,-0.10763 0.75342,-0.21526 1.5068,-0.64578 l 0,9.7944 q -1.7221,0.86105 -4.09,1.3992 -2.2602,0.53815 -4.6281,0.53815 z m -30.137,-17.544 q 0,6.5655 7.5341,6.5655 5.7044,0 9.902,-4.6281 l 0,-8.5028 q -1.5068,-0.32289 -3.2289,-0.43052 -1.6145,-0.21526 -3.2289,-0.21526 -5.5968,0 -8.2876,1.7221 -2.6908,1.7221 -2.6908,5.4892 z"
       style="fill:#404040" />
    <path
       inkscape:connector-curvature="0"
       id="path12075"
       d="m -872.38,140.34 -0.75342,-6.135 q -3.2289,3.8747 -7.2112,5.7044 -3.9823,1.8297 -8.7181,1.8297 -7.1036,0 -12.378,-3.4442 -5.1663,-3.4442 -7.9647,-9.7944 -2.7984,-6.3502 -2.7984,-14.961 0,-9.3639 3.3366,-16.145 3.3366,-6.7807 9.3639,-10.44 6.135,-3.7671 14.53,-3.7671 5.4892,0 10.333,2.2602 l 0,-25.293 15.929,0 0,80.185 -13.669,0 z m -23.571,-27.446 q 0,7.7494 2.7984,11.839 2.906,4.09 8.5028,4.09 2.906,0 5.3815,-1.0763 2.4755,-1.1839 4.6281,-3.6594 l 0,-25.939 q -2.045,-1.0763 -3.9823,-1.5068 -1.8297,-0.53815 -3.9823,-0.53815 -6.3502,0 -9.902,4.4129 -3.4442,4.4128 -3.4442,12.378 z"
       style="fill:#404040" />
    <path
       inkscape:connector-curvature="0"
       id="path12077"
       d="m -836.27,59.832 q 4.3052,0 6.7807,2.2602 2.4755,2.1526 2.4755,6.0273 0,3.7671 -2.4755,6.0273 -2.4755,2.1526 -6.7807,2.1526 -4.3052,0 -6.7807,-2.1526 -2.4755,-2.2602 -2.4755,-6.0273 0,-3.8747 2.4755,-6.0273 2.4755,-2.2602 6.7807,-2.2602 z m -7.9647,24.755 15.929,0 0,55.753 -15.929,0 0,-55.753 z"
       style="fill:#404040" />
    <path
       inkscape:connector-curvature="0"
       id="path12079"
       d="m -787.49,96.212 q -6.2426,0 -10.548,5.2739 l 0,38.855 -15.929,0 0,-55.753 13.669,0 0.86105,6.7807 q 6.8884,-8.1799 16.898,-8.1799 9.1486,0 14.207,5.7044 5.0586,5.5968 5.0586,16.037 l 0,35.41 -15.929,0 0,-34.765 q 0,-4.6281 -2.1526,-6.996 -2.1526,-2.3679 -6.1349,-2.3679 z"
       style="fill:#404040" />
    <path
       inkscape:connector-curvature="0"
       id="path12081"
       d="m -698.74,139.26 q 0,13.131 -7.4265,19.912 -7.4265,6.8884 -21.741,6.8884 -5.812,0 -10.871,-1.0763 -4.951,-1.0763 -9.1486,-3.3366 l 0,-13.346 q 3.6594,2.3679 8.3952,3.6594 4.7357,1.2916 9.6868,1.2916 15.176,0 15.176,-13.239 l 0,-6.5655 q -3.0137,3.2289 -6.5655,4.7358 -3.5518,1.5068 -7.857,1.5068 -7.1036,0 -12.27,-3.3366 -5.1663,-3.3365 -8.0723,-9.4715 -2.7984,-6.135 -2.7984,-14.422 0,-9.2562 3.6594,-15.822 3.6594,-6.5655 10.548,-10.01 6.996,-3.4442 16.898,-3.4442 5.3815,0 10.763,1.2916 5.3815,1.1839 11.624,3.8747 l 0,50.909 z m -37.24,-27.446 q 0,7.2112 2.906,11.086 2.906,3.8747 8.3952,3.8747 5.9197,0 10.01,-4.6281 l 0,-24.647 q -1.9374,-0.75341 -3.7671,-1.0763 -1.8297,-0.32289 -3.9823,-0.32289 -6.5655,0 -10.117,4.09 -3.4442,3.9823 -3.4442,11.624 z"
       style="fill:#404040" />
  </g>
  <path
     inkscape:connector-curvature="0"
     id="path12083"
     d="m 76.500024,323.4967 799.999996,0"
     style="fill:none;stroke:#404040;stroke-width:3" />
  <path
     inkscape:connector-curvature="0"
     id="path12085"
     d="m 76.500024,363.4967 719.999996,0"
     style="fill:none;stroke:#404040;stroke-width:3" />
  <path
     inkscape:connector-curvature="0"
     id="path12087"
     d="m 76.500024,403.4967 759.999996,0"
     style="fill:none;stroke:#404040;stroke-width:3" />
  <path
     inkscape:connector-curvature="0"
     id="path12089"
     d="m 76.500024,443.4967 439.999996,0"
     style="fill:none;stroke:#404040;stroke-width:3" />
  <path
     inkscape:connector-curvature="0"
     id="path12091"
     d="m 76.500024,563.4967 679.999996,0"
     style="fill:none;stroke:#404040;stroke-width:3" />
  <path
     inkscape:connector-curvature="0"
     id="path12093"
     d="m 76.500024,603.4967 759.999996,0"
     style="fill:none;stroke:#404040;stroke-width:3" />
  <path
     inkscape:connector-curvature="0"
     id="path12095"
     d="m 76.500024,643.4967 799.999996,0"
     style="fill:none;stroke:#404040;stroke-width:3" />
  <path
     inkscape:connector-curvature="0"
     id="path12097"
     d="m 76.500024,683.4967 479.999996,0"
     style="fill:none;stroke:#404040;stroke-width:3" />
  <path
     inkscape:connector-curvature="0"
     id="path12099"
     d="m 76.500024,803.4967 679.999996,0"
     style="fill:none;stroke:#404040;stroke-width:3" />
  <path
     inkscape:connector-curvature="0"
     id="path12101"
     d="m 76.500024,843.4967 479.999996,0"
     style="fill:none;stroke:#404040;stroke-width:3" />
  <path
     inkscape:connector-curvature="0"
     id="path12103"
     d="m 76.500024,883.4967 359.999996,0"
     style="fill:none;stroke:#404040;stroke-width:3" />
  <g
     id="g12105"
     style="fill:#404040"
     transform="translate(1446.4,106.1667)">
    <path
       inkscape:connector-curvature="0"
       id="path12107"
       d="m -171.52,46.025 q -4.7358,-9.4715 -9.2562,-18.943 -4.5205,-9.5791 -8.9334,-19.051 l 0,52.308 -15.822,0 0,-76.956 19.912,0 q 5.0586,11.839 10.333,23.679 5.2739,11.732 10.763,23.248 5.3815,-11.516 10.655,-23.141 5.2739,-11.732 10.225,-23.786 l 19.374,0 0,76.956 -15.822,0 0,-52.524 q -4.4128,9.6868 -9.041,19.266 -4.5205,9.4715 -9.1486,18.943 l -13.239,0 z"
       style="fill:#404040" />
    <path
       inkscape:connector-curvature="0"
       id="path12109"
       d="m -66.661,61.416 q -9.2562,0 -11.516,-6.1349 -3.4442,3.2289 -7.4265,4.8434 -3.9823,1.6145 -8.8257,1.6145 -8.3952,0 -13.131,-4.3052 -4.7358,-4.4129 -4.7358,-12.162 0,-8.5028 6.4578,-13.023 6.5655,-4.6281 18.835,-4.6281 1.7221,0 3.6594,0.21526 2.045,0.10763 3.9823,0.43052 l 0,-2.4755 q 0,-5.0586 -2.7984,-7.5341 -2.7984,-2.4755 -8.6104,-2.4755 -4.8434,0 -9.1486,1.2916 -4.1976,1.2916 -8.1799,4.09 l 0,-13.346 q 4.6281,-2.2602 9.5791,-3.4442 4.951,-1.1839 10.01,-1.1839 11.732,0 18.082,5.9197 6.3502,5.8121 6.3502,16.683 l 0,20.88 q 0,1.9374 0.64578,2.906 0.64578,0.86104 2.3679,0.86104 0.86104,0 1.6145,-0.10763 0.75341,-0.21526 1.5068,-0.64578 l 0,9.7944 q -1.7221,0.86104 -4.09,1.3992 -2.2602,0.53815 -4.6281,0.53815 z M -96.798,43.873 q 0,6.5655 7.5341,6.5655 5.7044,0 9.902,-4.6281 l 0,-8.5028 q -1.5068,-0.32289 -3.2289,-0.43052 -1.6145,-0.21526 -3.2289,-0.21526 -5.5968,0 -8.2876,1.7221 -2.6908,1.7221 -2.6908,5.4892 z"
       style="fill:#404040" />
    <path
       inkscape:connector-curvature="0"
       id="path12111"
       d="m -41.715,-20.168 q 4.3052,0 6.7807,2.2602 2.4755,2.1526 2.4755,6.0273 0,3.7671 -2.4755,6.0273 -2.4755,2.1526 -6.7807,2.1526 -4.3052,0 -6.7807,-2.1526 -2.4755,-2.2602 -2.4755,-6.0273 0,-3.8747 2.4755,-6.0273 2.4755,-2.2602 6.7807,-2.2602 z m -7.9647,24.755 15.929,0 0,55.753 -15.929,0 0,-55.753 z"
       style="fill:#404040" />
    <path
       inkscape:connector-curvature="0"
       id="path12113"
       d="m 7.069,16.212 q -6.2426,0 -10.548,5.2739 l 0,38.855 -15.929,0 0,-55.753 13.669,0 0.86104,6.7807 q 6.8884,-8.1808 16.898,-8.1808 9.1486,0 14.207,5.7044 5.0586,5.5968 5.0586,16.037 l 0,35.41 -15.929,0 0,-34.765 q 0,-4.6281 -2.1526,-6.996 -2.1526,-2.3679 -6.1349,-2.3679 z"
       style="fill:#404040" />
    <path
       inkscape:connector-curvature="0"
       id="path12115"
       d="m 96.621,16.212 q -6.2426,0 -10.548,5.2739 l 0,38.855 -15.929,0 0,-80.185 15.929,0 0,29.706 q 6.4578,-6.6731 15.499,-6.6731 9.1486,0 14.207,5.7044 5.0586,5.5968 5.0586,16.037 l 0,35.41 -15.929,0 0,-34.765 q 0,-4.6281 -2.1526,-6.996 -2.1526,-2.3679 -6.1349,-2.3679 z"
       style="fill:#404040" />
    <path
       inkscape:connector-curvature="0"
       id="path12117"
       d="m 180.75,57.542 q -8.2876,4.1976 -19.589,4.1976 -9.1486,0 -15.714,-3.4442 -6.5655,-3.4442 -10.117,-9.902 -3.4442,-6.5655 -3.4442,-15.714 0,-6.7807 1.8297,-12.162 1.9374,-5.4892 5.4892,-9.3639 3.5518,-3.8747 8.5028,-5.9197 4.951,-2.045 11.086,-2.045 11.732,0 17.974,7.3189 6.2426,7.2113 6.2426,20.773 l 0,4.6281 -35.518,0 q 0.86105,6.7807 4.7358,10.01 3.9823,3.2289 11.409,3.2289 4.951,0 8.9333,-1.0763 4.09,-1.0763 8.1799,-3.4442 l 0,12.916 z M 158.57,14.705 q -4.5205,0 -7.3189,3.1213 -2.7984,3.0137 -3.6594,8.7181 l 20.665,0 q -0.43052,-6.1349 -2.7984,-8.9333 -2.3679,-2.906 -6.8884,-2.906 z"
       style="fill:#404040" />
    <path
       inkscape:connector-curvature="0"
       id="path12119"
       d="m 236.47,61.416 q -9.2562,0 -11.516,-6.1349 -3.4442,3.2289 -7.4265,4.8434 -3.9823,1.6145 -8.8257,1.6145 -8.3952,0 -13.131,-4.3052 -4.7358,-4.4129 -4.7358,-12.162 0,-8.5028 6.4578,-13.023 6.5655,-4.6281 18.835,-4.6281 1.7221,0 3.6594,0.21526 2.045,0.10763 3.9823,0.43052 l 0,-2.4755 q 0,-5.0586 -2.7984,-7.5341 -2.7984,-2.4755 -8.6104,-2.4755 -4.8434,0 -9.1486,1.2916 -4.1976,1.2916 -8.1799,4.09 l 0,-13.346 q 4.6281,-2.2602 9.5791,-3.4442 4.951,-1.1839 10.01,-1.1839 11.732,0 18.082,5.9197 6.3502,5.8121 6.3502,16.683 l 0,20.88 q 0,1.9374 0.64578,2.906 0.64579,0.86104 2.3679,0.86104 0.86104,0 1.6145,-0.10763 0.75341,-0.21526 1.5068,-0.64578 l 0,9.7944 q -1.7221,0.86104 -4.09,1.3992 -2.2602,0.53815 -4.6281,0.53815 z M 206.33,43.873 q 0,6.5655 7.5341,6.5655 5.7044,0 9.902,-4.6281 l 0,-8.5028 q -1.5068,-0.32289 -3.2289,-0.43052 -1.6145,-0.21526 -3.2289,-0.21526 -5.5968,0 -8.2876,1.7221 -2.6908,1.7221 -2.6908,5.4892 z"
       style="fill:#404040" />
    <path
       inkscape:connector-curvature="0"
       id="path12121"
       d="m 290.48,60.34 -0.75341,-6.1349 q -3.2289,3.8747 -7.2113,5.7044 -3.9823,1.8297 -8.7181,1.8297 -7.1036,0 -12.378,-3.4442 -5.1663,-3.4442 -7.9647,-9.7944 -2.7984,-6.3502 -2.7984,-14.961 0,-9.3639 3.3366,-16.145 3.3366,-6.7807 9.3639,-10.44 6.135,-3.7671 14.53,-3.7671 5.4892,0 10.333,2.2602 l 0,-25.293 15.929,0 0,80.185 -13.669,0 z M 266.91,32.894 q 0,7.7494 2.7984,11.839 2.906,4.09 8.5028,4.09 2.906,0 5.3815,-1.0763 2.4755,-1.1839 4.6281,-3.6594 l 0,-25.939 q -2.045,-1.0763 -3.9823,-1.5068 -1.8297,-0.53815 -3.9823,-0.53815 -6.3502,0 -9.902,4.4129 -3.4442,4.4129 -3.4442,12.378 z"
       style="fill:#404040" />
    <path
       inkscape:connector-curvature="0"
       id="path12123"
       d="m 326.58,-20.168 q 4.3052,0 6.7807,2.2602 2.4755,2.1526 2.4755,6.0273 0,3.7671 -2.4755,6.0273 -2.4755,2.1526 -6.7807,2.1526 -4.3052,0 -6.7807,-2.1526 -2.4755,-2.2602 -2.4755,-6.0273 0,-3.8747 2.4755,-6.0273 2.4755,-2.2602 6.7807,-2.2602 z m -7.9647,24.755 15.929,0 0,55.753 -15.929,0 0,-55.753 z"
       style="fill:#404040" />
    <path
       inkscape:connector-curvature="0"
       id="path12125"
       d="m 375.37,16.212 q -6.2426,0 -10.548,5.2739 l 0,38.855 -15.929,0 0,-55.753 13.669,0 0.86105,6.7807 q 6.8884,-8.1799 16.898,-8.1799 9.1486,0 14.207,5.7044 5.0586,5.5968 5.0586,16.037 l 0,35.41 -15.929,0 0,-34.765 q 0,-4.6281 -2.1526,-6.996 -2.1526,-2.3679 -6.1349,-2.3679 z"
       style="fill:#404040" />
    <path
       inkscape:connector-curvature="0"
       id="path12127"
       d="m 464.12,59.264 q 0,13.131 -7.4265,19.912 -7.4265,6.8884 -21.741,6.8884 -5.8121,0 -10.871,-1.0763 -4.951,-1.0763 -9.1486,-3.3366 l 0,-13.346 q 3.6594,2.3679 8.3952,3.6594 4.7358,1.2916 9.6868,1.2916 15.176,0 15.176,-13.239 l 0,-6.5655 q -3.0136,3.2289 -6.5655,4.7357 -3.5518,1.5068 -7.857,1.5068 -7.1036,0 -12.27,-3.3365 -5.1663,-3.3365 -8.0723,-9.4715 -2.7984,-6.1349 -2.7984,-14.423 0,-9.2562 3.6594,-15.822 3.6594,-6.5655 10.548,-10.01 6.996,-3.4442 16.898,-3.4442 5.3815,0 10.763,1.2916 5.3815,1.1839 11.624,3.8747 l 0,50.909 z M 426.88,31.818 q 0,7.2113 2.906,11.086 2.906,3.8747 8.3952,3.8747 5.9197,0 10.01,-4.6281 l 0,-24.647 q -1.9374,-0.75341 -3.7671,-1.0763 -1.8297,-0.32289 -3.9823,-0.32289 -6.5655,0 -10.117,4.09 -3.4442,3.9823 -3.4442,11.624 z"
       style="fill:#404040" />
  </g>
  <path
     inkscape:connector-curvature="0"
     id="path12129"
     style="fill:none;stroke:#404040;stroke-width:3"
     d="m 1239.38,323.4967 800,0" />
  <path
     inkscape:connector-curvature="0"
     id="path12131"
     style="fill:none;stroke:#404040;stroke-width:3"
     d="m 1239.38,363.4967 720,0" />
  <path
     inkscape:connector-curvature="0"
     id="path12133"
     style="fill:none;stroke:#404040;stroke-width:3"
     d="m 1239.38,403.4967 760,0" />
  <path
     inkscape:connector-curvature="0"
     id="path12135"
     style="fill:none;stroke:#404040;stroke-width:3"
     d="m 1239.38,443.4967 440,0" />
  <path
     inkscape:connector-curvature="0"
     id="path12137"
     style="fill:none;stroke:#404040;stroke-width:3"
     d="m 1239.38,563.4967 680,0" />
  <path
     inkscape:connector-curvature="0"
     id="path12139"
     style="fill:none;stroke:#404040;stroke-width:3"
     d="m 1239.38,603.4967 760,0" />
  <path
     inkscape:connector-curvature="0"
     id="path12141"
     style="fill:none;stroke:#404040;stroke-width:3"
     d="m 1239.38,643.4967 800,0" />
  <path
     inkscape:connector-curvature="0"
     id="path12143"
     style="fill:none;stroke:#404040;stroke-width:3"
     d="m 1239.38,683.4967 480,0" />
  <path
     inkscape:connector-curvature="0"
     id="path12145"
     style="fill:none;stroke:#404040;stroke-width:3"
     d="m 1239.38,803.4967 680,0" />
  <path
     inkscape:connector-curvature="0"
     id="path12147"
     style="fill:none;stroke:#404040;stroke-width:3"
     d="m 1239.38,843.4967 480,0" />
  <path
     inkscape:connector-curvature="0"
     id="path12149"
     style="fill:none;stroke:#404040;stroke-width:3"
     d="m 1239.38,883.4967 360,0" />
  <g
     id="g12151"
     style="fill:#404040"
     transform="translate(1446.4,106.1667)">
    <path
       inkscape:connector-curvature="0"
       id="path12153"
       d="m -1355.8,13.939 0,2.3558 -11.527,0 0,-2.3558 3.4496,-0.25241 0,-24.862 -3.4496,-0.25241 0,-2.3558 11.569,0 q 6.4365,0 9.5075,2.1876 3.1131,2.1876 3.1131,6.6889 0,4.8799 -3.3655,7.4041 -3.3655,2.5241 -9.8019,2.5241 -0.7993,0 -1.6828,-0.042069 -0.8414,-0.084137 -1.6827,-0.21034 l 0,8.9185 3.8703,0.25241 z m -3.8703,-24.947 0,13.167 q 0.7572,0.12621 1.6827,0.21034 0.9255,0.042069 1.7248,0.042069 4.4172,0 6.5627,-1.7669 2.1876,-1.7669 2.1876,-5.3848 0,-3.3655 -2.0193,-4.922 -2.0193,-1.5565 -6.4365,-1.5565 -0.9255,0 -1.851,0.04207 -0.9255,0.04207 -1.851,0.16827 z"
       style="fill:#404040" />
    <path
       inkscape:connector-curvature="0"
       id="path12155"
       d="m -1322.8,16.463 -0.3786,-3.0289 q -1.4304,1.7248 -3.1131,2.5662 -1.6827,0.84137 -3.7862,0.84137 -3.3655,0 -5.1744,-1.9772 -1.8089,-2.0193 -1.8089,-5.7634 l 0,-11.695 -3.1552,-0.21034 0,-2.1455 6.3103,-0.58896 0.8834,0 0,14.429 q 0,2.3979 1.0517,3.66 1.0518,1.2621 3.1131,1.2621 1.5566,0 2.9027,-0.63103 1.3462,-0.6731 2.5662,-2.0614 l 0,-13.714 -3.3655,-0.21034 0,-2.1455 6.5207,-0.58896 0.8834,0 0,19.057 3.1972,0.21034 0,2.1455 -5.7634,0.58896 -0.8834,0 z"
       style="fill:#404040" />
    <path
       inkscape:connector-curvature="0"
       id="path12157"
       d="m -1291.2,4.9781 q 0,3.7441 -1.3883,6.4365 -1.3462,2.6503 -3.9544,4.0386 -2.5662,1.3883 -6.2262,1.3883 -2.1034,0 -4.0386,-0.46275 -1.9351,-0.42068 -3.9544,-1.3462 l 0,-27.387 -3.2393,-0.21034 0,-2.1455 6.3944,-0.58896 0.8835,0 0,12.452 q 2.8186,-2.9869 6.6889,-2.9869 2.7344,0 4.7116,1.3462 1.9773,1.3041 3.029,3.7441 1.0938,2.3979 1.0938,5.7213 z m -10.012,-7.8247 q -1.5566,0 -3.029,0.71516 -1.4303,0.6731 -2.482,1.8931 l 0,13.63 q 1.0096,0.46275 1.9351,0.6731 0.9676,0.16827 2.1876,0.16827 3.5337,0 5.3427,-2.1876 1.8089,-2.2296 1.8089,-6.5206 0,-4.0386 -1.5144,-6.1841 -1.4724,-2.1876 -4.2489,-2.1876 z"
       style="fill:#404040" />
    <path
       inkscape:connector-curvature="0"
       id="path12159"
       d="m -1284.5,-12.354 -3.2393,-0.21034 0,-2.1455 6.3944,-0.58896 0.8835,0 0,29.196 2.9868,0.21034 0,2.1876 -10.012,0 0,-2.1876 2.9869,-0.21034 0,-26.251 z"
       style="fill:#404040" />
    <path
       inkscape:connector-curvature="0"
       id="path12161"
       d="m -1269.3,-9.3251 q -1.1779,0 -1.809,-0.63103 -0.631,-0.6731 -0.631,-1.8089 0,-1.1358 0.7152,-1.8089 0.7151,-0.6731 1.9772,-0.6731 1.1358,0 1.7669,0.6731 0.6731,0.63103 0.6731,1.7248 0,1.1779 -0.7152,1.851 -0.7152,0.6731 -1.9772,0.6731 z m 5.4268,25.62 -10.012,0 0,-2.1876 2.9869,-0.21034 0,-16.491 -3.1972,-0.21034 0,-2.1455 6.3523,-0.58896 0.8835,0 0,19.436 2.9868,0.21034 0,2.1876 z"
       style="fill:#404040" />
    <path
       inkscape:connector-curvature="0"
       id="path12163"
       d="m -1243.8,10.068 q 0,2.1034 -1.0517,3.6179 -1.0096,1.5145 -2.9448,2.3558 -1.9351,0.7993 -4.5434,0.7993 -2.0193,0 -3.9123,-0.37862 -1.8511,-0.33655 -3.4917,-1.0517 l -0.2104,-5.3848 2.8186,0 0.631,3.5758 q 0.9256,0.42068 1.9352,0.58896 1.0096,0.16827 2.3138,0.16827 2.1034,0 3.3654,-1.0096 1.2621,-1.0096 1.2621,-2.6924 0,-0.96758 -0.4628,-1.5986 -0.4206,-0.6731 -1.4724,-1.1358 -1.0517,-0.46275 -2.9027,-0.88344 -2.6503,-0.58896 -4.2489,-1.4303 -1.5986,-0.84137 -2.3138,-2.0193 -0.7151,-1.1779 -0.7151,-2.9448 0,-1.9772 1.0096,-3.4075 1.0097,-1.4724 2.8607,-2.2717 1.851,-0.7993 4.3751,-0.7993 3.702,0 6.773,1.3883 l 0.2104,5.0482 -2.7766,0 -0.5889,-3.3234 q -1.5145,-0.6731 -3.702,-0.6731 -2.0614,0 -3.2814,0.92551 -1.22,0.92551 -1.22,2.482 0,1.0096 0.3786,1.6407 0.4207,0.63103 1.4724,1.0938 1.0518,0.42068 2.9028,0.84137 2.7765,0.58896 4.4172,1.4303 1.6827,0.7993 2.3979,2.0193 0.7151,1.22 0.7151,3.0289 z"
       style="fill:#404040" />
    <path
       inkscape:connector-curvature="0"
       id="path12165"
       d="m -1229.9,14.107 0,2.1876 -10.096,0 0,-2.1876 2.9869,-0.21034 0,-26.251 -3.2393,-0.21034 0,-2.1455 6.3944,-0.58896 0.8835,0 0,12.621 q 1.4303,-1.5986 3.071,-2.3558 1.6827,-0.7993 3.7441,-0.7993 3.4075,0 5.2165,2.0193 1.851,2.0193 1.851,5.8475 l 0,11.863 2.9868,0.21034 0,2.1876 -10.096,0 0,-2.1876 3.071,-0.21034 0,-11.653 q 0,-2.44 -1.0938,-3.7441 -1.0938,-1.3041 -3.1551,-1.3041 -1.5986,0 -2.9869,0.6731 -1.3462,0.63103 -2.6082,2.0614 l 0,13.967 3.071,0.21034 z"
       style="fill:#404040" />
    <path
       inkscape:connector-curvature="0"
       id="path12167"
       d="m -1194.6,14.864 q -1.3462,0.92551 -3.3655,1.4303 -2.0193,0.54689 -4.2489,0.54689 -3.3234,0 -5.6792,-1.3041 -2.3559,-1.3462 -3.5759,-3.9124 -1.22,-2.5662 -1.22,-6.2261 0,-3.4075 1.22,-5.9317 1.2621,-2.5241 3.5338,-3.9124 2.2717,-1.3883 5.3427,-1.3883 4.2489,0 6.5206,2.8186 2.3138,2.8186 2.3138,8.0772 l 0,1.0938 -14.85,0 q 0.2524,3.9544 2.0613,5.8896 1.8511,1.8931 5.3427,1.8931 1.809,0 3.4076,-0.46275 1.6407,-0.46275 3.1972,-1.4724 l 0,2.8607 z m -8.2034,-18.132 q -2.5241,0 -4.0806,1.851 -1.5145,1.8089 -1.7248,5.0903 l 10.98,0 q -0.1262,-3.5338 -1.4304,-5.2165 -1.262,-1.7248 -3.7441,-1.7248 z"
       style="fill:#404040" />
    <path
       inkscape:connector-curvature="0"
       id="path12169"
       d="m -1173.9,16.463 -0.3365,-2.8186 q -1.4724,1.6407 -3.1552,2.44 -1.6827,0.75723 -3.7441,0.75723 -2.7344,0 -4.7116,-1.3041 -1.9772,-1.3041 -3.071,-3.702 -1.0938,-2.3979 -1.0938,-5.6792 0,-3.7441 1.3041,-6.4365 1.3462,-2.6924 3.7862,-4.1227 2.482,-1.4303 5.9316,-1.4303 2.44,0 4.5014,0.84137 l 0,-7.362 -3.4496,-0.21034 0,-2.1455 6.6047,-0.58896 0.8834,0 0,28.817 3.1973,0.21034 0,2.1455 -5.7634,0.58896 -0.8835,0 z m -11.863,-10.854 q 0,3.9544 1.5145,6.0999 1.5144,2.1455 4.2489,2.1455 3.1972,0 5.511,-2.6082 l 0,-13.336 q -1.0938,-0.58896 -2.1876,-0.84137 -1.0517,-0.29448 -2.2717,-0.29448 -3.3234,0 -5.0903,2.3138 -1.7248,2.2717 -1.7248,6.5206 z"
       style="fill:#404040" />
    <path
       inkscape:connector-curvature="0"
       id="path12171"
       d="m -1160.6,16.673 q -1.22,0 -1.9352,-0.71516 -0.7151,-0.71516 -0.7151,-1.9352 0,-1.3462 0.7572,-2.1034 0.7993,-0.75723 2.2296,-0.75723 1.22,0 1.9352,0.71516 0.7151,0.71516 0.7151,1.9352 0,1.3462 -0.7993,2.1034 -0.7572,0.75723 -2.1875,0.75723 z m 0,-16.827 q -1.22,0 -1.9352,-0.71516 -0.7151,-0.71516 -0.7151,-1.9352 0,-1.3462 0.7572,-2.1034 0.7993,-0.75723 2.2296,-0.75723 1.22,0 1.9352,0.71516 0.7151,0.71516 0.7151,1.9352 0,1.3462 -0.7993,2.1034 -0.7572,0.75723 -2.1875,0.75723 z"
       style="fill:#404040" />
    <path
       inkscape:connector-curvature="0"
       id="path12173"
       d="m -1124.1,14.023 0,2.2717 -14.472,0 0,-2.2717 5.1744,-0.33655 0,-22.675 q -1.7248,0.7993 -3.3234,1.5986 -1.5565,0.75723 -2.9448,1.4724 l 0,-2.7345 q 1.22,-0.71516 2.3559,-1.3462 1.1358,-0.6731 2.4399,-1.3883 1.3462,-0.75723 3.1552,-1.7248 l 2.44,0 0,26.798 5.1744,0.33655 z"
       style="fill:#404040" />
    <path
       inkscape:connector-curvature="0"
       id="path12175"
       d="m -1107.8,16.841 q -3.3654,0 -5.6792,-1.7669 -2.2717,-1.7669 -3.4496,-5.0482 -1.1779,-3.2813 -1.1779,-7.8668 0,-4.8799 1.3041,-8.4137 1.3041,-3.5758 3.7861,-5.4689 2.5242,-1.9352 6.142,-1.9352 3.3655,0 5.6372,1.7669 2.3138,1.7669 3.4917,5.0482 1.1779,3.2813 1.1779,7.8668 0,4.8799 -1.3041,8.4558 -1.3041,3.5338 -3.8282,5.4689 -2.4821,1.8931 -6.1,1.8931 z m 0.6731,-27.849 q -3.3234,0 -4.9641,3.3234 -1.6406,3.2813 -1.6406,9.5495 0,6.0158 1.5565,9.1709 1.5565,3.1551 4.6275,3.1551 3.3235,0 4.9641,-3.3234 1.6407,-3.3234 1.6407,-9.5496 0,-5.9737 -1.5565,-9.1289 -1.5566,-3.1972 -4.6276,-3.1972 z"
       style="fill:#404040" />
    <path
       inkscape:connector-curvature="0"
       id="path12177"
       d="m -1090,23.152 -4.1227,0 14.261,-38.745 4.1228,0 -14.261,38.745 z"
       style="fill:#404040" />
    <path
       inkscape:connector-curvature="0"
       id="path12179"
       d="m -1052.2,-10.251 q -2.8186,7.0254 -5.6792,13.672 -2.8186,6.6468 -5.5951,12.873 l -4.6276,0 q 2.1455,-4.3751 4.291,-8.7923 2.1455,-4.4593 4.2069,-8.7923 2.0613,-4.3331 3.9123,-8.3716 l -12.957,0 -0.8834,4.6696 -2.9027,0 0.2945,-8.1192 19.94,0 0,2.8607 z"
       style="fill:#404040" />
    <path
       inkscape:connector-curvature="0"
       id="path12181"
       d="m -1045.2,23.152 -4.1227,0 14.261,-38.745 4.1227,0 -14.261,38.745 z"
       style="fill:#404040" />
    <path
       inkscape:connector-curvature="0"
       id="path12183"
       d="m -1008,8.4698 -0.2524,7.8247 -19.814,0 0,-1.1779 q 0,-2.0193 0.4207,-3.66 0.4206,-1.6827 1.3882,-3.1972 0.9676,-1.5145 2.5662,-2.9448 1.5986,-1.4724 3.9124,-3.0289 1.893,-1.3041 3.1551,-2.3138 1.2621,-1.0096 1.9772,-1.8931 0.7152,-0.88344 1.0097,-1.7669 0.2944,-0.92551 0.2944,-2.0614 0,-2.44 -1.4303,-3.8282 -1.4303,-1.3883 -4.1227,-1.3883 -2.7765,0 -4.922,1.1358 l -0.8835,4.7537 -2.9027,0 0.2104,-6.0579 q 1.262,-0.75723 2.7765,-1.3041 1.5144,-0.58896 3.0289,-0.88344 1.5145,-0.33655 2.9448,-0.33655 3.0289,0 5.1744,0.92551 2.1455,0.92551 3.2814,2.6503 1.1358,1.6827 1.1358,4.0806 0,1.5986 -0.3786,2.9027 -0.3365,1.2621 -1.262,2.44 -0.8835,1.1779 -2.3979,2.3979 -1.5145,1.1779 -3.8704,2.6082 -2.0613,1.2621 -3.4496,2.3558 -1.3882,1.0517 -2.2296,2.0614 -0.8414,0.96758 -1.22,1.9772 -0.3365,1.0096 -0.3365,2.1876 l 12.41,0 0.8413,-4.4593 2.9448,0 z"
       style="fill:#404040" />
    <path
       inkscape:connector-curvature="0"
       id="path12185"
       d="m -993.18,16.841 q -3.3655,0 -5.6792,-1.7669 -2.2717,-1.7669 -3.4496,-5.0482 -1.1779,-3.2813 -1.1779,-7.8668 0,-4.8799 1.3041,-8.4137 1.3041,-3.5758 3.7862,-5.4689 2.5241,-1.9352 6.142,-1.9352 3.3655,0 5.6372,1.7669 2.3138,1.7669 3.4917,5.0482 1.1779,3.2813 1.1779,7.8668 0,4.8799 -1.3041,8.4558 -1.3041,3.5338 -3.8282,5.4689 -2.482,1.8931 -6.0999,1.8931 z m 0.6731,-27.849 q -3.3234,0 -4.9641,3.3234 -1.6407,3.2813 -1.6407,9.5495 0,6.0158 1.5565,9.1709 1.5565,3.1551 4.6275,3.1551 3.3234,0 4.9641,-3.3234 1.6407,-3.3234 1.6407,-9.5496 0,-5.9737 -1.5565,-9.1289 -1.5565,-3.1972 -4.6275,-3.1972 z"
       style="fill:#404040" />
    <path
       inkscape:connector-curvature="0"
       id="path12187"
       d="m -959.41,14.023 0,2.2717 -14.472,0 0,-2.2717 5.1744,-0.33655 0,-22.675 q -1.7248,0.7993 -3.3234,1.5986 -1.5565,0.75723 -2.9448,1.4724 l 0,-2.7345 q 1.22,-0.71516 2.3558,-1.3462 1.1358,-0.6731 2.44,-1.3883 1.3462,-0.75723 3.1551,-1.7248 l 2.44,0 0,26.798 5.1744,0.33655 z"
       style="fill:#404040" />
    <path
       inkscape:connector-curvature="0"
       id="path12189"
       d="m -931.99,0.14026 q 0,3.8282 -0.96757,6.8992 -0.96758,3.071 -2.7765,5.2586 -1.7669,2.1876 -4.291,3.3655 -2.482,1.1779 -5.5951,1.1779 -1.7669,0 -3.3655,-0.37862 -1.5986,-0.33655 -2.9448,-1.0517 l 0,-2.9027 q 1.5986,0.6731 2.9869,1.0096 1.3883,0.29448 3.071,0.29448 2.8186,0 4.8799,-1.3462 2.0614,-1.3462 3.2393,-3.9124 1.22,-2.5662 1.4724,-6.2261 -1.0096,0.84137 -2.3138,1.4724 -1.2621,0.63103 -2.6924,0.96758 -1.3883,0.33655 -2.8186,0.33655 -2.8606,0 -4.9641,-1.0517 -2.0614,-1.0517 -3.1972,-3.0289 -1.0938,-2.0193 -1.0938,-4.7958 0,-2.2296 0.71517,-4.0386 0.75723,-1.8089 2.1034,-3.1131 1.3883,-1.3041 3.2814,-2.0193 1.8931,-0.71516 4.2489,-0.71516 3.5338,0 5.9737,1.5986 2.482,1.5986 3.7441,4.6696 1.3041,3.071 1.3041,7.5303 z m -17.122,-4.2489 q 0,2.9869 1.5565,4.6696 1.5986,1.6407 4.4593,1.6407 1.8931,0 3.66,-0.63103 1.8089,-0.6731 3.2393,-1.851 -0.16827,-10.77 -7.0254,-10.77 -1.8089,0 -3.1131,0.88344 -1.3041,0.84137 -2.0614,2.3979 -0.71517,1.5565 -0.71517,3.66 z"
       style="fill:#404040" />
  </g>
  <g
     id="g12191"
     style="fill:#404040"
     transform="translate(1446.4,106.1667)">
    <path
       inkscape:connector-curvature="0"
       id="path12193"
       d="m -196.91,133.08 0,2.3558 -11.527,0 0,-2.3558 3.4496,-0.25241 0,-24.862 -3.4496,-0.25241 0,-2.3558 11.569,0 q 6.4365,0 9.5075,2.1876 3.1131,2.1876 3.1131,6.6889 0,4.88 -3.3655,7.4041 -3.3655,2.5241 -9.802,2.5241 -0.7993,0 -1.6827,-0.0421 -0.84137,-0.0841 -1.6827,-0.21034 l 0,8.9185 3.8703,0.25241 z m -3.8703,-24.947 0,13.167 q 0.75723,0.12621 1.6827,0.21034 0.92551,0.0421 1.7248,0.0421 4.4172,0 6.5627,-1.7669 2.1876,-1.7669 2.1876,-5.3848 0,-3.3655 -2.0193,-4.922 -2.0193,-1.5565 -6.4365,-1.5565 -0.92551,0 -1.851,0.0421 -0.9255,0.0421 -1.851,0.16827 z"
       style="fill:#404040" />
    <path
       inkscape:connector-curvature="0"
       id="path12195"
       d="m -163.93,135.61 -0.37861,-3.0289 q -1.4303,1.7248 -3.1131,2.5662 -1.6827,0.84137 -3.7862,0.84137 -3.3655,0 -5.1744,-1.9772 -1.809,-2.0193 -1.809,-5.7634 l 0,-11.695 -3.1551,-0.21034 0,-2.1455 6.3103,-0.58896 0.88344,0 0,14.429 q 0,2.3979 1.0517,3.66 1.0517,1.2621 3.1131,1.2621 1.5565,0 2.9027,-0.63103 1.3462,-0.6731 2.5662,-2.0614 l 0,-13.714 -3.3655,-0.21034 0,-2.1455 6.5206,-0.58896 0.88344,0 0,19.057 3.1972,0.21034 0,2.1455 -5.7634,0.58896 -0.88344,0 z"
       style="fill:#404040" />
    <path
       inkscape:connector-curvature="0"
       id="path12197"
       d="m -132.31,124.12 q 0,3.7441 -1.3883,6.4365 -1.3462,2.6503 -3.9544,4.0386 -2.5662,1.3883 -6.2261,1.3883 -2.1034,0 -4.0386,-0.46276 -1.9352,-0.42068 -3.9544,-1.3462 l 0,-27.387 -3.2393,-0.21034 0,-2.1455 6.3944,-0.58896 0.88343,0 0,12.452 q 2.8186,-2.9869 6.6889,-2.9869 2.7344,0 4.7117,1.3462 1.9772,1.3041 3.0289,3.7441 1.0938,2.3979 1.0938,5.7213 z m -10.012,-7.8247 q -1.5565,0 -3.0289,0.71516 -1.4303,0.6731 -2.482,1.8931 l 0,13.63 q 1.0096,0.46275 1.9352,0.6731 0.96757,0.16827 2.1876,0.16827 3.5338,0 5.3427,-2.1876 1.8089,-2.2296 1.8089,-6.5206 0,-4.0386 -1.5145,-6.1841 -1.4724,-2.1876 -4.2489,-2.1876 z"
       style="fill:#404040" />
    <path
       inkscape:connector-curvature="0"
       id="path12199"
       d="m -125.64,106.79 -3.2393,-0.21034 0,-2.1455 6.3944,-0.58896 0.88344,0 0,29.196 2.9869,0.21035 0,2.1876 -10.012,0 0,-2.1876 2.9869,-0.21035 0,-26.251 z"
       style="fill:#404040" />
    <path
       inkscape:connector-curvature="0"
       id="path12201"
       d="m -110.48,109.82 q -1.1779,0 -1.809,-0.63103 -0.63103,-0.67309 -0.63103,-1.8089 0,-1.13581 0.71517,-1.809 0.71516,-0.67309 1.9772,-0.67309 1.1358,0 1.7669,0.67309 0.6731,0.63103 0.6731,1.7248 0,1.1779 -0.71516,1.851 -0.71517,0.67309 -1.9772,0.67309 z m 5.4268,25.62 -10.012,0 0,-2.1876 2.9869,-0.21035 0,-16.491 -3.1972,-0.21034 0,-2.1455 6.3523,-0.58896 0.88344,0 0,19.436 2.9869,0.21035 0,2.1876 z"
       style="fill:#404040" />
    <path
       inkscape:connector-curvature="0"
       id="path12203"
       d="m -84.937,129.21 q 0,2.1034 -1.0517,3.6179 -1.0096,1.5145 -2.9448,2.3558 -1.9352,0.7993 -4.5434,0.7993 -2.0193,0 -3.9124,-0.37862 -1.851,-0.33655 -3.4917,-1.0517 l -0.21034,-5.3848 2.8186,0 0.63103,3.5758 q 0.92551,0.42069 1.9352,0.58896 1.0096,0.16828 2.3138,0.16828 2.1034,0 3.3655,-1.0096 1.2621,-1.0096 1.2621,-2.6924 0,-0.96758 -0.46275,-1.5986 -0.42068,-0.6731 -1.4724,-1.1358 -1.0517,-0.46276 -2.9027,-0.88344 -2.6503,-0.58896 -4.2489,-1.4303 -1.5986,-0.84137 -2.3138,-2.0193 -0.71517,-1.1779 -0.71517,-2.9448 0,-1.9772 1.0096,-3.4076 1.0096,-1.4724 2.8607,-2.2717 1.851,-0.7993 4.3751,-0.7993 3.702,0 6.773,1.3883 l 0.21034,5.0482 -2.7765,0 -0.58896,-3.3234 q -1.5145,-0.6731 -3.702,-0.6731 -2.0614,0 -3.2813,0.92551 -1.22,0.9255 -1.22,2.482 0,1.0096 0.37862,1.6407 0.42068,0.63103 1.4724,1.0938 1.0517,0.42069 2.9027,0.84137 2.7765,0.58896 4.4172,1.4303 1.6827,0.7993 2.3979,2.0193 0.71516,1.22 0.71516,3.0289 z"
       style="fill:#404040" />
    <path
       inkscape:connector-curvature="0"
       id="path12205"
       d="m -71.043,133.25 0,2.1876 -10.096,0 0,-2.1876 2.9869,-0.21035 0,-26.251 -3.2393,-0.21034 0,-2.1455 6.3944,-0.58896 0.88344,0 0,12.621 q 1.4303,-1.5986 3.071,-2.3558 1.6827,-0.7993 3.7441,-0.7993 3.4075,0 5.2165,2.0193 1.851,2.0193 1.851,5.8475 l 0,11.863 2.9869,0.21035 0,2.1876 -10.096,0 0,-2.1876 3.071,-0.21035 0,-11.653 q 0,-2.44 -1.0938,-3.7441 -1.0938,-1.3041 -3.1551,-1.3041 -1.5986,0 -2.9869,0.67309 -1.3462,0.63103 -2.6082,2.0614 l 0,13.967 3.071,0.21035 z"
       style="fill:#404040" />
    <path
       inkscape:connector-curvature="0"
       id="path12207"
       d="m -35.725,134.01 q -1.3462,0.92551 -3.3655,1.4303 -2.0193,0.54689 -4.2489,0.54689 -3.3234,0 -5.6792,-1.3041 -2.3558,-1.3462 -3.5758,-3.9124 -1.22,-2.5662 -1.22,-6.2261 0,-3.4076 1.22,-5.9317 1.2621,-2.5241 3.5338,-3.9124 2.2717,-1.3883 5.3427,-1.3883 4.2489,0 6.5206,2.8186 2.3138,2.8186 2.3138,8.0772 l 0,1.0938 -14.85,0 q 0.25241,3.9544 2.0614,5.8896 1.851,1.8931 5.3427,1.8931 1.8089,0 3.4075,-0.46275 1.6407,-0.46276 3.1972,-1.4724 l 0,2.8607 z m -8.2034,-18.132 q -2.5241,0 -4.0806,1.851 -1.5145,1.8089 -1.7248,5.0903 l 10.98,0 q -0.1262,-3.5338 -1.4303,-5.2165 -1.2621,-1.7248 -3.7441,-1.7248 z"
       style="fill:#404040" />
    <path
       inkscape:connector-curvature="0"
       id="path12209"
       d="m -15.024,135.61 -0.33655,-2.8186 q -1.4724,1.6407 -3.1551,2.44 -1.6827,0.75723 -3.7441,0.75723 -2.7345,0 -4.7117,-1.3041 -1.9772,-1.3041 -3.071,-3.702 -1.0938,-2.3979 -1.0938,-5.6792 0,-3.7441 1.3041,-6.4365 1.3462,-2.6924 3.7862,-4.1227 2.482,-1.4303 5.9317,-1.4303 2.44,0 4.5013,0.84137 l 0,-7.362 -3.4496,-0.21034 0,-2.1455 6.6048,-0.58896 0.88344,0 0,28.817 3.1972,0.21034 0,2.1455 -5.7634,0.58896 -0.88344,0 z m -11.863,-10.854 q 0,3.9544 1.5145,6.0999 1.5145,2.1455 4.2489,2.1455 3.1972,0 5.511,-2.6082 l 0,-13.336 q -1.0938,-0.58896 -2.1876,-0.84137 -1.0517,-0.29448 -2.2717,-0.29448 -3.3234,0 -5.0903,2.3138 -1.7248,2.2717 -1.7248,6.5206 z"
       style="fill:#404040" />
    <path
       inkscape:connector-curvature="0"
       id="path12211"
       d="m -1.7709,135.82 q -1.22,0 -1.9352,-0.71516 -0.71516,-0.71516 -0.71516,-1.9352 0,-1.3462 0.75723,-2.1034 0.7993,-0.75723 2.2296,-0.75723 1.22,0 1.9352,0.71517 0.71516,0.71516 0.71516,1.9352 0,1.3462 -0.7993,2.1034 -0.75723,0.75723 -2.1876,0.75723 z m 0,-16.827 q -1.22,0 -1.9352,-0.71516 -0.71516,-0.71516 -0.71516,-1.9352 0,-1.3462 0.75723,-2.1034 0.7993,-0.75723 2.2296,-0.75723 1.22,0 1.9352,0.71517 0.71516,0.71516 0.71516,1.9352 0,1.3462 -0.7993,2.1034 -0.75723,0.75723 -2.1876,0.75723 z"
       style="fill:#404040" />
    <path
       inkscape:connector-curvature="0"
       id="path12213"
       d="m 34.708,133.17 0,2.2717 -14.472,0 0,-2.2717 5.1744,-0.33655 0,-22.675 q -1.7248,0.7993 -3.3234,1.5986 -1.5565,0.75724 -2.9448,1.4724 l 0,-2.7344 q 1.22,-0.71517 2.3558,-1.3462 1.1358,-0.6731 2.44,-1.3883 1.3462,-0.75723 3.1551,-1.7248 l 2.44,0 0,26.798 5.1744,0.33655 z"
       style="fill:#404040" />
    <path
       inkscape:connector-curvature="0"
       id="path12215"
       d="m 51.061,135.98 q -3.3655,0 -5.6792,-1.7669 -2.2717,-1.7669 -3.4496,-5.0482 -1.1779,-3.2813 -1.1779,-7.8668 0,-4.8799 1.3041,-8.4137 1.3041,-3.5758 3.7862,-5.4689 2.5241,-1.9352 6.142,-1.9352 3.3655,0 5.6372,1.7669 2.3138,1.7669 3.4917,5.0482 1.1779,3.2814 1.1779,7.8668 0,4.88 -1.3041,8.4558 -1.3041,3.5338 -3.8282,5.4689 -2.482,1.8931 -6.0999,1.8931 z m 0.6731,-27.849 q -3.3234,0 -4.9641,3.3234 -1.6407,3.2814 -1.6407,9.5496 0,6.0158 1.5565,9.1709 1.5565,3.1551 4.6275,3.1551 3.3234,0 4.9641,-3.3234 1.6407,-3.3234 1.6407,-9.5496 0,-5.9737 -1.5565,-9.1289 -1.5565,-3.1972 -4.6275,-3.1972 z"
       style="fill:#404040" />
    <path
       inkscape:connector-curvature="0"
       id="path12217"
       d="m 68.843,142.29 -4.1227,0 14.261,-38.745 4.1227,0 -14.261,38.745 z"
       style="fill:#404040" />
    <path
       inkscape:connector-curvature="0"
       id="path12219"
       d="m 106.61,108.89 q -2.8186,7.0254 -5.6792,13.672 -2.8186,6.6468 -5.5951,12.873 l -4.6275,0 q 2.1455,-4.3751 4.291,-8.7923 2.1455,-4.4593 4.2068,-8.7923 2.0614,-4.333 3.9124,-8.3716 l -12.957,0 -0.88344,4.6696 -2.9027,0 0.29448,-8.1192 19.94,0 0,2.8606 z"
       style="fill:#404040" />
    <path
       inkscape:connector-curvature="0"
       id="path12221"
       d="m 113.62,142.29 -4.1227,0 14.261,-38.745 4.1227,0 -14.261,38.745 z"
       style="fill:#404040" />
    <path
       inkscape:connector-curvature="0"
       id="path12223"
       d="m 150.89,127.61 -0.25241,7.8247 -19.814,0 0,-1.1779 q 0,-2.0193 0.42068,-3.66 0.42069,-1.6827 1.3883,-3.1972 0.96758,-1.5145 2.5662,-2.9448 1.5986,-1.4724 3.9124,-3.0289 1.8931,-1.3041 3.1551,-2.3138 1.2621,-1.0096 1.9772,-1.8931 0.71516,-0.88344 1.0096,-1.7669 0.29448,-0.92551 0.29448,-2.0614 0,-2.44 -1.4303,-3.8282 -1.4303,-1.3883 -4.1227,-1.3883 -2.7765,0 -4.922,1.1358 l -0.88344,4.7537 -2.9027,0 0.21034,-6.0579 q 1.2621,-0.75724 2.7765,-1.3041 1.5145,-0.58896 3.0289,-0.88344 1.5145,-0.33654 2.9448,-0.33654 3.0289,0 5.1744,0.9255 2.1455,0.92551 3.2813,2.6503 1.1358,1.6827 1.1358,4.0806 0,1.5986 -0.37862,2.9027 -0.33654,1.262 -1.262,2.44 -0.88344,1.1779 -2.3979,2.3979 -1.5145,1.1779 -3.8703,2.6082 -2.0614,1.2621 -3.4496,2.3558 -1.3883,1.0517 -2.2296,2.0614 -0.84137,0.96757 -1.22,1.9772 -0.33655,1.0096 -0.33655,2.1876 l 12.41,0 0.84137,-4.4593 2.9448,0 z"
       style="fill:#404040" />
    <path
       inkscape:connector-curvature="0"
       id="path12225"
       d="m 165.68,135.98 q -3.3655,0 -5.6792,-1.7669 -2.2717,-1.7669 -3.4496,-5.0482 -1.1779,-3.2813 -1.1779,-7.8668 0,-4.8799 1.3041,-8.4137 1.3041,-3.5758 3.7862,-5.4689 2.5241,-1.9352 6.142,-1.9352 3.3655,0 5.6372,1.7669 2.3138,1.7669 3.4917,5.0482 1.1779,3.2814 1.1779,7.8668 0,4.88 -1.3041,8.4558 -1.3041,3.5338 -3.8282,5.4689 -2.482,1.8931 -6.0999,1.8931 z m 0.6731,-27.849 q -3.3234,0 -4.9641,3.3234 -1.6407,3.2814 -1.6407,9.5496 0,6.0158 1.5565,9.1709 1.5565,3.1551 4.6275,3.1551 3.3234,0 4.9641,-3.3234 1.6407,-3.3234 1.6407,-9.5496 0,-5.9737 -1.5565,-9.1289 -1.5565,-3.1972 -4.6275,-3.1972 z"
       style="fill:#404040" />
    <path
       inkscape:connector-curvature="0"
       id="path12227"
       d="m 199.45,133.17 0,2.2717 -14.472,0 0,-2.2717 5.1744,-0.33655 0,-22.675 q -1.7248,0.7993 -3.3234,1.5986 -1.5565,0.75724 -2.9448,1.4724 l 0,-2.7344 q 1.22,-0.71517 2.3558,-1.3462 1.1358,-0.6731 2.44,-1.3883 1.3462,-0.75723 3.1551,-1.7248 l 2.44,0 0,26.798 5.1744,0.33655 z"
       style="fill:#404040" />
    <path
       inkscape:connector-curvature="0"
       id="path12229"
       d="m 226.87,119.28 q 0,3.8282 -0.96757,6.8992 -0.96758,3.071 -2.7765,5.2586 -1.7669,2.1876 -4.291,3.3655 -2.482,1.1779 -5.5951,1.1779 -1.7669,0 -3.3655,-0.37862 -1.5986,-0.33655 -2.9448,-1.0517 l 0,-2.9027 q 1.5986,0.6731 2.9869,1.0096 1.3883,0.29448 3.071,0.29448 2.8186,0 4.88,-1.3462 2.0614,-1.3462 3.2393,-3.9124 1.22,-2.5662 1.4724,-6.2261 -1.0096,0.84137 -2.3138,1.4724 -1.262,0.63103 -2.6924,0.96758 -1.3883,0.33655 -2.8186,0.33655 -2.8607,0 -4.9641,-1.0517 -2.0614,-1.0517 -3.1972,-3.0289 -1.0938,-2.0193 -1.0938,-4.7958 0,-2.2296 0.71516,-4.0386 0.75723,-1.809 2.1034,-3.1131 1.3883,-1.3041 3.2813,-2.0193 1.8931,-0.71516 4.2489,-0.71516 3.5338,0 5.9737,1.5986 2.482,1.5986 3.7441,4.6696 1.3041,3.071 1.3041,7.5303 z m -17.122,-4.2489 q 0,2.9869 1.5565,4.6696 1.5986,1.6407 4.4593,1.6407 1.8931,0 3.66,-0.63103 1.809,-0.67309 3.2393,-1.851 -0.16827,-10.77 -7.0254,-10.77 -1.809,0 -3.1131,0.88344 -1.3041,0.84137 -2.0614,2.3979 -0.71516,1.5565 -0.71516,3.66 z"
       style="fill:#404040" />
  </g>
  <rect
     style="opacity:1;fill:#404040;fill-opacity:1;stroke:#dcdcdc;stroke-width:0;stroke-linecap:butt;stroke-linejoin:miter;stroke-miterlimit:4;stroke-dasharray:none;stroke-dashoffset:0;stroke-opacity:1"
     id="rect12903"
     width="103.27365"
     height="516.36829"
     x="-163.44344"
     y="503.17462"
     transform="matrix(0.70710682,-0.70710674,0.70710682,0.70710674,0,0)" />
  <rect
     style="opacity:1;fill:#404040;fill-opacity:1;stroke:#dcdcdc;stroke-width:0;stroke-linecap:butt;stroke-linejoin:miter;stroke-miterlimit:4;stroke-dasharray:none;stroke-dashoffset:0;stroke-opacity:1"
     id="rect12905"
     width="516.36829"
     height="103.27367"
     x="-369.99081"
     y="709.72205"
     transform="matrix(0.70710682,-0.70710674,0.70710682,0.70710674,0,0)" />
  <rect
     y="-545.07294"
     x="1710.5709"
     height="461.10019"
     width="92.220047"
     id="rect12907"
     style="opacity:1;fill:#404040;fill-opacity:1;stroke:#dcdcdc;stroke-width:0;stroke-linecap:butt;stroke-linejoin:miter;stroke-miterlimit:4;stroke-dasharray:none;stroke-dashoffset:0;stroke-opacity:1"
     transform="matrix(0.86602543,0.49999996,-0.50000004,0.86602538,0,0)" />
  <rect
     style="opacity:1;fill:#404040;fill-opacity:1;stroke:#dcdcdc;stroke-width:0;stroke-linecap:butt;stroke-linejoin:miter;stroke-miterlimit:4;stroke-dasharray:none;stroke-dashoffset:0;stroke-opacity:1"
     id="rect12911"
     width="276.6601"
     height="92.220039"
     x="1521.5916"
     y="-176.19295"
     transform="matrix(0.86602543,0.49999996,-0.50000004,0.86602538,0,0)" />
</svg>
