<svg xmlns:rdf="http://www.w3.org/1999/02/22-rdf-syntax-ns#" xmlns="http://www.w3.org/2000/svg" height="237.07mm" width="361.24mm" version="1.1" xmlns:cc="http://creativecommons.org/ns#" xmlns:dc="http://purl.org/dc/elements/1.1/" viewBox="0 0 1280 839.99999">
 <g transform="translate(723.57 -112.36)">
  <rect style="stroke-width:0;fill:#404040" height="160" width="1280" y="112.36" x="-723.57"/>
  <rect style="stroke-width:0;fill:#767676" height="120" width="1280" y="832.36" x="-723.57"/>
  <rect style="stroke-width:0;fill:#cccccc" height="480" width="960" y="312.36" x="-563.57"/>
  <g style="fill:#000000">
   <path style="fill:#ffffff" d="m-286.8 216.35v4.7743h-20.291v-4.7743l6.9909-.85256v-50.045l-6.9909-.51153v-4.7743h16.028q8.0993 11.595 16.369 23.786 8.355 12.106 16.284 24.383v-42.542l-6.9909-.85256v-4.7743h20.12v4.7743l-6.8204.85256v55.331h-7.2467q-8.1845-12.618-16.966-25.577-8.7813-12.959-17.477-25.406v45.356l6.9909.85256z"/>
   <path style="fill:#ffffff" d="m-209.62 221.46-.68204-5.6269q-2.5577 3.0692-6.2236 4.7743-3.5807 1.6198-8.0993 1.6198-4.1775 0-7.2467-1.4493-2.9839-1.5346-4.689-4.2628-1.6198-2.7282-1.6198-6.3942 0-6.7352 4.9448-10.316 5.0301-3.5807 14.408-3.5807 1.7904 0 3.8365.17051t4.0923.51153v-4.6038q0-5.1153-2.5577-7.5877-2.4724-2.4724-7.673-2.4724-3.666 0-6.9909 1.1083-3.325 1.0231-6.8204 3.325v-5.8826q3.4102-2.1314 7.4172-3.325 4.0922-1.1936 8.355-1.1936 7.8435 0 12.021 4.007t4.1775 11.595v23.616l6.4794.42628v4.348l-11.339 1.1936h-1.7904zm-20.376-12.362q0 3.666 2.0461 5.6268 2.1314 1.9609 6.1384 1.9609 3.2397 0 5.7974-1.2788 2.6429-1.2788 5.1153-4.0923v-9.3781q-2.3872-.59679-4.348-.85255-1.9609-.25577-3.8365-.25577-5.5416 0-8.2698 2.0461-2.6429 2.0461-2.6429 6.2236z"/>
   <path style="fill:#ffffff" d="m-150.97 182.5q-2.4724 6.5647-5.2006 13.385-2.7282 6.7352-5.4563 13.215-2.7282 6.3942-5.2006 12.021h-6.8204q-2.4724-5.6269-5.2006-12.021-2.7282-6.4794-5.4564-13.3-2.7282-6.9057-5.2006-13.641l-5.3711-.34103v-4.4333h20.547v4.4333l-6.5647.34103q1.5346 4.689 3.4955 9.9749 2.0461 5.2858 4.0923 10.657 2.1314 5.2858 4.1775 10.06 2.0461-4.9448 4.1775-10.231 2.1314-5.2858 4.0923-10.401 1.9609-5.2006 3.5807-9.7191l-5.9679-.68205v-4.4333h17.648v4.4333l-5.3711.68205z"/>
   <path style="fill:#ffffff" d="m-131.81 169.2q-2.3872 0-3.666-1.2788-1.2788-1.3641-1.2788-3.666t1.4493-3.666 4.007-1.3641q2.3019 0 3.5807 1.3641 1.3641 1.2788 1.3641 3.4955 0 2.3872-1.4494 3.7512-1.4493 1.3641-4.007 1.3641zm10.998 51.921h-20.291v-4.4333l6.0531-.42628v-33.42l-6.4794-.42628v-4.348l12.874-1.1936h1.7904v39.388l6.0531.42628v4.4333z"/>
   <path style="fill:#ffffff" d="m-73.554 226.24q0 3.4102-1.6199 6.2236-1.5346 2.8134-4.5185 4.7743-2.9839 2.0461-7.0762 3.1544t-9.0371 1.1083q-9.1223 0-14.067-2.8987-4.8596-2.8987-4.8596-8.355 0-3.8365 2.4724-6.7352 2.5577-2.8987 7.0762-4.348-2.2166-1.0231-3.4955-2.7282-1.1936-1.7051-1.1936-3.9217 0-2.5577 1.3641-4.4333 1.4494-1.9609 4.1775-3.4102-3.9218-1.6198-6.0531-4.8596-2.1314-3.325-2.1314-7.9288 0-4.8596 2.2166-8.355 2.3019-3.4955 6.4794-5.3711t9.8896-1.8756q2.1314 0 4.007.34102 1.8756.25576 3.4102.7673h14.067v5.1153l-8.0993-.7673q3.8365 3.666 3.8365 9.1223 0 4.689-2.3019 8.1845-2.2166 3.4955-6.4794 5.3711-4.1775 1.8756-9.9749 1.8756-2.5577 0-4.8596-.42627-2.3872 1.8756-2.3872 4.5185 0 1.7904 1.1936 2.8134 1.2788.93781 3.5807 1.0231l9.8896.34102q14.493.51154 14.493 11.68zm-20.888-45.015q-4.7743 0-7.5025 2.7282-2.6429 2.6429-2.6429 7.5025 0 4.7743 2.4724 7.332 2.5577 2.5577 7.332 2.5577 4.9448 0 7.5877-2.6429 2.6429-2.7282 2.6429-7.5877 0-4.7743-2.5577-7.332t-7.332-2.5577zm-12.959 47.828q0 7.1614 12.106 7.1614 6.8204 0 10.572-2.3872 3.7512-2.3019 3.7512-6.5647 0-3.0692-2.1314-4.6038t-6.6499-1.7051l-10.572-.42628q-3.4102 1.1936-5.2858 3.325-1.7904 2.2166-1.7904 5.2006z"/>
   <path style="fill:#ffffff" d="m-39.109 221.46-.68204-5.6269q-2.5577 3.0692-6.2236 4.7743-3.5807 1.6198-8.0993 1.6198-4.1775 0-7.2467-1.4493-2.9839-1.5346-4.689-4.2628-1.6199-2.7282-1.6199-6.3942 0-6.7352 4.9448-10.316 5.0301-3.5807 14.408-3.5807 1.7904 0 3.8365.17051t4.0923.51153v-4.6038q0-5.1153-2.5577-7.5877-2.4724-2.4724-7.673-2.4724-3.666 0-6.9909 1.1083-3.325 1.0231-6.8204 3.325v-5.8826q3.4102-2.1314 7.4172-3.325 4.0923-1.1936 8.355-1.1936 7.8435 0 12.021 4.007t4.1775 11.595v23.616l6.4794.42628v4.348l-11.339 1.1936h-1.7904zm-20.376-12.362q0 3.666 2.0461 5.6268 2.1314 1.9609 6.1384 1.9609 3.2397 0 5.7974-1.2788 2.6429-1.2788 5.1153-4.0923v-9.3781q-2.3872-.59679-4.348-.85255-1.9609-.25577-3.8365-.25577-5.5416 0-8.2698 2.0461-2.6429 2.0461-2.6429 6.2236z"/>
   <path style="fill:#ffffff" d="m7.9089 219.93q-2.5577 1.1936-4.7743 1.7051-2.1314.51153-4.9448.51153-6.2236 0-9.2928-3.4102-2.9839-3.4102-2.9839-10.486v-25.577h-8.5255v-4.5185l8.5255-.59678v-12.192l8.1845-1.8756v13.897h12.703v5.2858h-12.703v24.895q0 4.6038 1.4493 6.7352 1.5346 2.0461 5.0301 2.0461 1.8756 0 3.7512-.51154 1.8756-.59678 3.5807-1.6198v5.7121z"/>
   <path style="fill:#ffffff" d="m23.219 169.2q-2.3872 0-3.666-1.2788-1.2788-1.3641-1.2788-3.666t1.4493-3.666 4.007-1.3641q2.3019 0 3.5807 1.3641 1.3641 1.2788 1.3641 3.4955 0 2.3872-1.4493 3.7512-1.4493 1.3641-4.007 1.3641zm10.998 51.921h-20.291v-4.4333l6.0531-.42628v-33.42l-6.4794-.42628v-4.348l12.874-1.1936h1.7904v39.388l6.0531.42628v4.4333z"/>
   <path style="fill:#ffffff" d="m61.692 222.23q-6.3942 0-10.913-2.6429-4.5185-2.6429-6.9057-7.5877t-2.3872-11.85q0-7.332 2.6429-12.703 2.7282-5.3711 7.5877-8.2698 4.9448-2.8987 11.765-2.8987 6.3089 0 10.827 2.6429 4.6038 2.6429 6.9909 7.5877 2.3872 4.9448 2.3872 11.85 0 7.4172-2.7282 12.788-2.6429 5.2858-7.5877 8.1845t-11.68 2.8987zm1.1936-40.752q-6.0531 0-9.4633 4.7743-3.325 4.7743-3.325 13.385 0 8.355 3.1544 12.874 3.2397 4.5185 9.0371 4.5185 6.0531 0 9.3781-4.7743 3.4102-4.7743 3.4102-13.385 0-8.2698-3.2397-12.788-3.1544-4.6038-8.9518-4.6038z"/>
   <path style="fill:#ffffff" d="m111.98 216.69v4.4333h-20.461v-4.4333l6.0531-.42628v-33.42l-6.4794-.42628v-4.348l11.595-1.1936h1.7904l.85255 6.3089q2.9839-3.4955 6.4794-5.2006t7.7582-1.7051q6.9057 0 10.572 4.0922 3.7512 4.0923 3.7512 11.85v24.042l6.0531.42628v4.4333h-20.461v-4.4333l6.2236-.42628v-23.616q0-4.9448-2.2166-7.5877t-6.3942-2.6429q-3.2397 0-6.0531 1.3641-2.7282 1.2788-5.2858 4.1775v28.305l6.2236.42628z"/>
  </g>
  <g style="fill:#000000">
   <path style="fill:#ffffff" d="m-191 922.29h-23.189v-4.7743l6.9909-.51153v-50.386l-6.9909-.51153v-4.7743h46.123l.59678 15.687h-5.9679l-1.9609-10.401h-23.189v21.911h14.664l1.4493-7.2467h5.0301v19.95h-5.0301l-1.4493-7.5025h-14.664v23.275l7.5877.51153v4.7743z"/>
   <path style="fill:#ffffff" d="m-144.39 923.4q-6.3942 0-10.913-2.6429-4.5185-2.6429-6.9057-7.5877t-2.3872-11.85q0-7.332 2.6429-12.703 2.7282-5.3711 7.5877-8.2698 4.9448-2.8987 11.765-2.8987 6.3089 0 10.827 2.6429 4.6038 2.6429 6.9909 7.5877 2.3872 4.9448 2.3872 11.85 0 7.4172-2.7282 12.788-2.6429 5.2858-7.5877 8.1845t-11.68 2.8987zm1.1936-40.752q-6.0531 0-9.4634 4.7743-3.325 4.7743-3.325 13.385 0 8.355 3.1544 12.874 3.2397 4.5185 9.0371 4.5185 6.0531 0 9.3781-4.7743 3.4102-4.7743 3.4102-13.385 0-8.2698-3.2397-12.788-3.1544-4.6038-8.9518-4.6038z"/>
   <path style="fill:#ffffff" d="m-94.27 923.4q-6.3942 0-10.913-2.6429-4.5185-2.6429-6.9057-7.5877t-2.3872-11.85q0-7.332 2.6429-12.703 2.7282-5.3711 7.5877-8.2698 4.9448-2.8987 11.765-2.8987 6.3089 0 10.827 2.6429 4.6038 2.6429 6.9909 7.5877 2.3872 4.9448 2.3872 11.85 0 7.4172-2.7282 12.788-2.6429 5.2858-7.5877 8.1845t-11.68 2.8987zm1.1936-40.752q-6.0531 0-9.4634 4.7743-3.325 4.7743-3.325 13.385 0 8.355 3.1544 12.874 3.2397 4.5185 9.0371 4.5185 6.0531 0 9.3781-4.7743 3.4102-4.7743 3.4102-13.385 0-8.2698-3.2397-12.788-3.1544-4.6038-8.9518-4.6038z"/>
   <path style="fill:#ffffff" d="m-36.988 921.09q-2.5577 1.1936-4.7743 1.7051-2.1314.51153-4.9448.51153-6.2236 0-9.2928-3.4102-2.9839-3.4102-2.9839-10.486v-25.577h-8.5255v-4.5185l8.5255-.59679v-12.192l8.1845-1.8756v13.897h12.703v5.2858h-12.703v24.895q0 4.6038 1.4493 6.7352 1.5346 2.0461 5.0301 2.0461 1.8756 0 3.7512-.51153 1.8756-.59678 3.5807-1.6198v5.7121z"/>
   <path style="fill:#ffffff" d="m5.7742 919.39q-2.7282 1.8756-6.8204 2.8987-4.0923 1.1083-8.6108 1.1083-6.7352 0-11.509-2.6429-4.7743-2.7282-7.2467-7.9288t-2.4724-12.618q0-6.9057 2.4724-12.021 2.5577-5.1153 7.1615-7.9288 4.6038-2.8134 10.827-2.8134 8.6108 0 13.215 5.7121 4.689 5.7121 4.689 16.369v2.2166h-30.095q.51153 8.014 4.1775 11.936 3.7512 3.8365 10.827 3.8365 3.666 0 6.9057-.9378 3.325-.93781 6.4794-2.9839v5.7974zm-16.625-36.75q-5.1153 0-8.2698 3.7512-3.0692 3.666-3.4955 10.316h22.252q-.25577-7.1614-2.8987-10.572-2.5577-3.4955-7.5877-3.4955z"/>
   <path style="fill:#ffffff" d="m36.898 917.85v4.4333h-21.911v-4.4333l6.0531-.42628v-33.42l-6.4794-.42628v-4.348l11.509-1.1936h1.7904l1.0231 7.673q2.2166-3.8365 5.2858-5.8826 3.1544-2.0461 6.9057-2.0461 1.7904 0 3.325.34102t2.6429.93781v7.5877q-1.4493-.85255-3.1544-1.3641-1.6199-.51153-3.4955-.51153-7.0762 0-11.168 6.4794v26.173l7.673.42628z"/>
  </g>
  <g style="fill:#404040">
   <path style="fill:#404040" d="m-335.59 532.76v4.7743h-20.291v-4.7743l6.9909-.85256v-50.045l-6.9909-.51154v-4.7743h17.818q4.689 11.424 9.5486 22.678t9.7191 21.996q5.0301-10.998 9.8896-22.252 4.9448-11.339 9.3781-22.422h18.159v4.7743l-6.9909.51154v50.386l6.9909.51153v4.7743h-22.507v-4.7743l6.9909-.51153v-46.464q-4.6038 10.998-9.6338 22.593-5.0301 11.509-10.145 22.593h-6.0531q-3.2397-6.9909-6.6499-14.579-3.4102-7.673-6.8204-15.431-3.325-7.7582-6.3942-15.175v46.123l6.9909.85256z"/>
   <path style="fill:#404040" d="m-243.93 537.88-.68204-5.6268q-2.5577 3.0692-6.2236 4.7743-3.5807 1.6198-8.0993 1.6198-4.1775 0-7.2467-1.4493-2.9839-1.5346-4.689-4.2628-1.6198-2.7282-1.6198-6.3942 0-6.7352 4.9448-10.316 5.0301-3.5807 14.408-3.5807 1.7904 0 3.8365.17051t4.0922.51154v-4.6038q0-5.1153-2.5577-7.5877-2.4724-2.4724-7.673-2.4724-3.666 0-6.9909 1.1083-3.325 1.0231-6.8204 3.325v-5.8826q3.4102-2.1314 7.4172-3.325 4.0922-1.1936 8.355-1.1936 7.8435 0 12.021 4.007t4.1775 11.595v23.616l6.4794.42628v4.348l-11.339 1.1936h-1.7904zm-20.376-12.362q0 3.666 2.0461 5.6269 2.1314 1.9609 6.1384 1.9609 3.2397 0 5.7974-1.2788 2.6429-1.2788 5.1153-4.0923v-9.3781q-2.3872-.59679-4.348-.85255-1.9609-.25577-3.8365-.25577-5.5416 0-8.2698 2.0461-2.6429 2.0461-2.6429 6.2236z"/>
   <path style="fill:#404040" d="m-215.07 485.61q-2.3872 0-3.666-1.2788-1.2788-1.3641-1.2788-3.666t1.4493-3.666 4.007-1.3641q2.3019 0 3.5807 1.3641 1.3641 1.2788 1.3641 3.4955 0 2.3872-1.4493 3.7512-1.4493 1.3641-4.007 1.3641zm10.998 51.921h-20.291v-4.4333l6.0531-.42628v-33.42l-6.4794-.42628v-4.348l12.874-1.1936h1.7904v39.388l6.0531.42628v4.4333z"/>
   <path style="fill:#404040" d="m-176.42 533.1v4.4333h-20.461v-4.4333l6.0531-.42628v-33.42l-6.4794-.42628v-4.348l11.595-1.1936h1.7904l.85255 6.3089q2.9839-3.4955 6.4794-5.2006t7.7582-1.7051q6.9057 0 10.572 4.0922 3.7512 4.0923 3.7512 11.85v24.042l6.0531.42628v4.4333h-20.461v-4.4333l6.2236-.42628v-23.616q0-4.9448-2.2166-7.5877t-6.3942-2.6429q-3.2397 0-6.0531 1.3641-2.7282 1.2788-5.2858 4.1775v28.305l6.2236.42628z"/>
   <path style="fill:#404040" d="m-84.38 534.29q-2.8987 2.1314-6.8204 3.2397t-8.355 1.1083q-6.6499 0-11.424-2.6429-4.7743-2.7282-7.332-7.673t-2.5577-11.765q0-5.3711 1.5346-9.7191 1.6198-4.348 4.5185-7.5025 2.9839-3.2397 6.9909-4.9448 4.0922-1.7051 9.0371-1.7051 3.9217 0 7.332.93781 3.4955.93781 6.3942 2.8987l.51153 11.595h-5.7121l-1.5346-8.6108q-2.4724-1.6199-6.8204-1.6199-4.1775 0-7.2467 2.2166t-4.7743 6.2236q-1.6198 3.9217-1.6198 9.3781 0 8.0993 3.8365 12.618 3.8365 4.4333 10.827 4.4333 7.4172 0 13.215-4.348v5.8826z"/>
   <path style="fill:#404040" d="m-56.87 538.64q-6.3942 0-10.913-2.6429-4.5185-2.6429-6.9057-7.5877t-2.3872-11.85q0-7.332 2.6429-12.703 2.7282-5.3711 7.5877-8.2698 4.9448-2.8987 11.765-2.8987 6.3089 0 10.827 2.6429 4.6038 2.6429 6.9909 7.5877 2.3872 4.9448 2.3872 11.85 0 7.4172-2.7282 12.788-2.6429 5.2858-7.5877 8.1845t-11.68 2.8987zm1.1936-40.752q-6.0531 0-9.4633 4.7743-3.325 4.7743-3.325 13.385 0 8.355 3.1544 12.874 3.2397 4.5185 9.0371 4.5185 6.0531 0 9.3781-4.7743 3.4102-4.7743 3.4102-13.385 0-8.2698-3.2397-12.788-3.1544-4.6038-8.9518-4.6038z"/>
   <path style="fill:#404040" d="m-6.5792 533.1v4.4333h-20.461v-4.4333l6.0531-.42628v-33.42l-6.4794-.42628v-4.348l11.595-1.1936h1.7904l.85255 6.3089q2.9839-3.4955 6.4794-5.2006t7.7582-1.7051q6.9057 0 10.572 4.0922 3.7512 4.0923 3.7512 11.85v24.042l6.0531.42628v4.4333h-20.461v-4.4333l6.2236-.42628v-23.616q0-4.9448-2.2166-7.5877t-6.3942-2.6429q-3.2397 0-6.0531 1.3641-2.7282 1.2788-5.2858 4.1775v28.305l6.2236.42628z"/>
   <path style="fill:#404040" d="m54.862 536.34q-2.5577 1.1936-4.7743 1.7051-2.1314.51153-4.9448.51153-6.2236 0-9.2928-3.4102-2.9839-3.4102-2.9839-10.486v-25.577h-8.5255v-4.5185l8.5255-.59679v-12.192l8.1845-1.8756v13.897h12.703v5.2858h-12.703v24.895q0 4.6038 1.4493 6.7352 1.5346 2.0461 5.0301 2.0461 1.8756 0 3.7512-.51153 1.8756-.59679 3.5807-1.6199v5.7121z"/>
   <path style="fill:#404040" d="m97.624 534.64q-2.7282 1.8756-6.8204 2.8987-4.0923 1.1083-8.6108 1.1083-6.7352 0-11.509-2.6429-4.7743-2.7282-7.2467-7.9288t-2.4724-12.618q0-6.9057 2.4724-12.021 2.5577-5.1153 7.1614-7.9288 4.6038-2.8134 10.827-2.8134 8.6108 0 13.215 5.7121 4.689 5.7121 4.689 16.369v2.2166h-30.095q.51153 8.014 4.1775 11.936 3.7512 3.8365 10.827 3.8365 3.666 0 6.9057-.93781 3.325-.93781 6.4794-2.9839v5.7974zm-16.625-36.75q-5.1153 0-8.2698 3.7512-3.0692 3.666-3.4955 10.316h22.252q-.25577-7.1614-2.8987-10.572-2.5577-3.4955-7.5877-3.4955z"/>
   <path style="fill:#404040" d="m127.3 533.1v4.4333h-20.461v-4.4333l6.0531-.42628v-33.42l-6.4794-.42628v-4.348l11.595-1.1936h1.7904l.85255 6.3089q2.9839-3.4955 6.4794-5.2006t7.7582-1.7051q6.9057 0 10.572 4.0922 3.7512 4.0923 3.7512 11.85v24.042l6.0531.42628v4.4333h-20.461v-4.4333l6.2236-.42628v-23.616q0-4.9448-2.2166-7.5877t-6.3942-2.6429q-3.2397 0-6.0531 1.3641-2.7282 1.2788-5.2858 4.1775v28.305l6.2236.42628z"/>
   <path style="fill:#404040" d="m188.74 536.34q-2.5577 1.1936-4.7743 1.7051-2.1314.51153-4.9448.51153-6.2236 0-9.2928-3.4102-2.9839-3.4102-2.9839-10.486v-25.577h-8.5255v-4.5185l8.5255-.59679v-12.192l8.1845-1.8756v13.897h12.703v5.2858h-12.703v24.895q0 4.6038 1.4494 6.7352 1.5346 2.0461 5.0301 2.0461 1.8756 0 3.7512-.51153 1.8756-.59679 3.5807-1.6199v5.7121z"/>
   <path style="fill:#404040" d="m-193.29 601.49q0-5.1 1.08-9.96 1.08-4.92 3.18-9.36 2.16-4.5 5.22-8.34h4.68q-2.52 3.84-4.32 8.34-1.8 4.44-2.76 9.36-.96 4.86-.96 9.96t.96 9.96 2.76 9.3q1.8 4.5 4.32 8.34h-4.68q-4.62-5.76-7.08-12.84-2.4-7.14-2.4-14.76z"/>
   <path style="fill:#404040" d="m-155.16 619.55-.48-3.96q-1.8 2.16-4.38 3.36-2.52 1.14-5.7 1.14-2.94 0-5.1-1.02-2.1-1.08-3.3-3-1.14-1.92-1.14-4.5 0-4.74 3.48-7.26 3.54-2.52 10.14-2.52 1.26 0 2.7.12t2.88.36v-3.24q0-3.6-1.8-5.34-1.74-1.74-5.4-1.74-2.58 0-4.92.78-2.34.72-4.8 2.34v-4.14q2.4-1.5 5.22-2.34 2.88-.84 5.88-.84 5.52 0 8.46 2.82t2.94 8.16v16.62l4.56.3v3.06l-7.98.84h-1.26zm-14.34-8.7q0 2.58 1.44 3.96 1.5 1.38 4.32 1.38 2.28 0 4.08-.9 1.86-.9 3.6-2.88v-6.6q-1.68-.42-3.06-.6t-2.7-.18q-3.9 0-5.82 1.44-1.86 1.44-1.86 4.38z"/>
   <path style="fill:#404040" d="m-125.97 616.19v3.12h-15.42v-3.12l4.26-.3v-23.52l-4.56-.3v-3.06l8.1-.84h1.26l.72 5.4q1.56-2.7 3.72-4.14 2.22-1.44 4.86-1.44 1.26 0 2.34.24t1.86.66v5.34q-1.02-.6-2.22-.96-1.14-.36-2.46-.36-4.98 0-7.86 4.56v18.42l5.4.3z"/>
   <path style="fill:#404040" d="m-95.117 618.47q-1.8.84-3.36 1.2-1.5.36-3.48.36-4.38 0-6.54-2.4-2.1-2.4-2.1-7.38v-18h-6v-3.18l6-.42v-8.58l5.76-1.32v9.78h8.94v3.72h-8.94v17.52q0 3.24 1.02 4.74 1.08 1.44 3.54 1.44 1.32 0 2.64-.36 1.32-.42 2.52-1.14v4.02z"/>
   <path style="fill:#404040" d="m-84.343 582.77q-1.68 0-2.58-.9-.9-.96-.9-2.58t1.02-2.58 2.82-.96q1.62 0 2.52.96.96.9.96 2.46 0 1.68-1.02 2.64t-2.82.96zm7.74 36.54h-14.28v-3.12l4.26-.3v-23.52l-4.56-.3v-3.06l9.06-.84h1.26v27.72l4.26.3v3.12z"/>
   <path style="fill:#404040" d="m-45.807 617.03q-2.04 1.5-4.8 2.28t-5.88.78q-4.68 0-8.04-1.86-3.36-1.92-5.16-5.4t-1.8-8.28q0-3.78 1.08-6.84 1.14-3.06 3.18-5.28 2.1-2.28 4.92-3.48 2.88-1.2 6.36-1.2 2.76 0 5.16.66 2.46.66 4.5 2.04l.36 8.16h-4.02l-1.08-6.06q-1.74-1.14-4.8-1.14-2.94 0-5.1 1.56t-3.36 4.38q-1.14 2.76-1.14 6.6 0 5.7 2.7 8.88 2.7 3.12 7.62 3.12 5.22 0 9.3-3.06v4.14z"/>
   <path style="fill:#404040" d="m-36.706 578.45-4.62-.3v-3.06l9.12-.84h1.26v41.64l4.26.3v3.12h-14.28v-3.12l4.26-.3v-37.44z"/>
   <path style="fill:#404040" d="m4.2351 617.27q-1.92 1.32-4.8 2.04-2.88.78-6.06.78-4.74 0-8.1-1.86-3.36-1.92-5.1-5.58t-1.74-8.88q0-4.86 1.74-8.46 1.8-3.6 5.04-5.58t7.62-1.98q6.06 0 9.3 4.02 3.3 4.02 3.3 11.52v1.56h-21.18q.36 5.64 2.94 8.4 2.64 2.7 7.62 2.7 2.58 0 4.86-.66 2.34-.66 4.56-2.1v4.08zm-11.7-25.86q-3.6 0-5.82 2.64-2.16 2.58-2.46 7.26h15.66q-.18-5.04-2.04-7.44-1.8-2.46-5.34-2.46z"/>
   <path style="fill:#404040" d="m23.499 601.49q0 7.62-2.46 14.76-2.4 7.08-7.02 12.84h-4.68q2.52-3.84 4.32-8.34 1.8-4.44 2.76-9.3t.96-9.96-.96-9.96q-.96-4.92-2.76-9.36-1.8-4.5-4.32-8.34h4.68q3.12 3.84 5.22 8.34 2.1 4.44 3.18 9.36 1.08 4.86 1.08 9.96z"/>
  </g>
 </g>
</svg>
