<svg xmlns:rdf="http://www.w3.org/1999/02/22-rdf-syntax-ns#" xmlns="http://www.w3.org/2000/svg" height="36.322mm" width="174.9mm" version="1.1" xmlns:cc="http://creativecommons.org/ns#" xmlns:dc="http://purl.org/dc/elements/1.1/" viewBox="0 0 619.7119 128.69999">
 <g transform="translate(903.62 -383.66)">
  <g style="fill:#404040">
   <path style="fill:#404040" d="m-808.04 475.82q0 11.34-5.76 19.62-5.58 8.1-16.2 12.6-10.44 4.32-25.2 4.32h-48.42v-128.7h45.54q20.7 0 31.86 8.28t11.16 23.76q0 9.9-4.86 16.92t-14.22 10.98q12.42 3.42 19.26 11.7t6.84 20.52zm-78.3-36.9h26.64q13.14 0 19.98-5.58 7.02-5.58 7.02-15.84 0-19.8-26.82-19.8h-26.82v41.22zm0 59.4h29.7q14.76 0 22.68-5.76 7.92-5.94 7.92-16.74 0-23.22-30.24-23.22h-30.06v45.72z"/>
   <path style="fill:#404040" d="m-765.04 460.52v51.84h-17.64v-128.7h41.58q24.48 0 37.44 10.08 13.14 9.9 13.14 28.44 0 12.96-7.02 21.96t-19.98 13.14q18 26.82 34.74 55.08h-20.7q-7.56-13.32-15.48-26.1-7.74-12.96-16.2-25.92-2.88.18-6.12.18h-23.76zm0-14.4h22.5q17.1 0 25.56-5.94t8.46-18q0-24.12-33.84-24.12h-22.68v48.06z"/>
   <path style="fill:#404040" d="m-568.39 512.36q-3.24-8.82-6.48-17.46-3.06-8.64-6.3-17.28h-60.48q-6.48 17.1-12.78 34.74h-18.54q12.78-33.84 25.74-66.06 13.14-32.22 26.64-62.64h18.72q14.04 32.22 27 64.44 13.14 32.22 25.56 64.26h-19.08zm-67.5-49.86h48.96q-6.12-15.66-12.24-30.96t-12.24-30.42q-6.3 15.3-12.42 30.6t-12.06 30.78z"/>
   <path style="fill:#404040" d="m-443.49 512.36q-11.34-17.28-23.22-34.92-11.7-17.64-23.58-34.74-11.7-17.28-23.22-33.48v103.14h-17.1v-128.7h17.82q18 24.84 35.28 50.58 17.46 25.56 34.74 52.02v-102.6h17.1v128.7h-17.82z"/>
   <path style="fill:#404040" d="m-392.45 383.66h44.82q19.8 0 34.02 7.56 14.4 7.38 21.96 21.6 7.74 14.22 7.74 34.74t-7.74 35.1q-7.56 14.4-21.96 22.14-14.22 7.56-34.2 7.56h-44.64v-128.7zm43.38 113.58q22.32 0 34.38-12.6 12.24-12.6 12.24-37.08 0-24.12-12.06-36.36-11.88-12.42-34.38-12.42h-25.74v98.46h25.56z"/>
  </g>
 </g>
</svg>
