<svg xmlns="http://www.w3.org/2000/svg" xmlns:xlink="http://www.w3.org/1999/xlink">
  <symbol id="gel-logo" viewBox="0 0 478.2 165.8">
    <path fill="currentColor" d="M42.8 0C36.5 0 31 1.2 26.3 3.6a25.7 25.7 0 0 0-10.6 10.3 33.3 33.3 0 0 0-3.6 16A91.7 91.7 0 0 0 14 49c.4 2.8.7 5.6.7 8.3 0 5.3-1.2 9.2-3.5 11.7-2.2 2.4-6 3.6-11.3 3.6v20.4c5.3 0 9 1.2 11.3 3.7 2.3 2.4 3.5 6.3 3.5 11.6 0 2.8-.3 5.7-.8 8.4-.4 2.7-1 5.5-1.4 8.7-.4 3-.5 6.4-.5 10.4 0 6.1 1.2 11.4 3.6 15.8 2.5 4.6 6 8 10.6 10.5a35.9 35.9 0 0 0 16.5 3.6h14v-21.4h-5.5c-4.7 0-8.2-1.3-10.4-3.8a16.1 16.1 0 0 1-3.3-10.8 88.1 88.1 0 0 1 2-19c.5-2.8.7-5.7.7-8.6 0-4.9-1.4-9-4.3-12.4s-6.9-5.7-12-7C29 81.6 33 79.3 36 76s4.3-7.5 4.3-12.5c0-2.8-.2-5.7-.7-8.4l-1.4-9c-.4-3.1-.6-6.5-.6-10.1 0-4.7 1.1-8.3 3.3-10.8 2.2-2.5 5.7-3.8 10.4-3.8h5.6V0h-14zm378.5 0v21.4h5.6c4.7 0 8 1.3 10.2 3.8 2.3 2.5 3.5 6.1 3.5 10.8a181 181 0 0 1-2 19c-.5 3-.7 5.8-.7 8.5 0 5 1.4 9.1 4.3 12.5s6.9 5.7 12 7a22.8 22.8 0 0 0-12 7 17.7 17.7 0 0 0-4.3 12.2c0 2.8.2 5.6.7 8.5a162.7 162.7 0 0 1 2 19c0 4.8-1.2 8.4-3.5 10.9-2.1 2.5-5.5 3.8-10.2 3.8h-5.6v21.4h14c6.4 0 11.9-1.2 16.4-3.6 4.7-2.4 8.2-5.9 10.6-10.5 2.6-4.4 3.8-9.7 3.8-15.8 0-4-.2-7.4-.7-10.4l-1.4-8.7c-.4-2.7-.6-5.6-.6-8.4 0-5.3 1.2-9.2 3.4-11.6 2.3-2.5 6.1-3.7 11.4-3.7V72.7c-5.3 0-9-1.2-11.4-3.6-2.2-2.5-3.4-6.4-3.4-11.7 0-2.7.2-5.5.6-8.3l1.4-8.8c.4-3 .7-6.6.7-10.4a32 32 0 0 0-3.8-16C460 9.4 456.4 6 451.7 3.6c-4.5-2.4-10-3.6-16.4-3.6h-14zM137.6 15c-10.4 0-19.9 1.6-28.4 4.7a60 60 0 0 0-35.5 34.7A74 74 0 0 0 69 82a82 82 0 0 0 4.5 28 60.3 60.3 0 0 0 13.3 21.3c5.9 5.8 13 10.2 21.2 13.3 8.4 3 17.9 4.5 28.3 4.5a114.7 114.7 0 0 0 47-10.2V74.8h-49v21.8h23v25.9a64.6 64.6 0 0 1-19.2 2.9c-13 0-23-3.7-29.9-11.2A45.9 45.9 0 0 1 97.7 82c0-9.1 1.7-16.9 5-23.2s8.2-11.2 14.6-14.6 14.1-5 23.2-5a78.4 78.4 0 0 1 39.3 10.2V24a103.5 103.5 0 0 0-42.1-8.8zm70.3 2.7v128.7h92v-23h-64.3V91.7h54v-23h-54v-28h60.8v-23H208zm111.4 0v128.7H347V95.5h51.3v-23H347V40.8h58.2v-23h-85.9z"/>
  </symbol>
</svg>

