<svg xmlns="http://www.w3.org/2000/svg" xmlns:xlink="http://www.w3.org/1999/xlink">
  <symbol id="gel-icon-linkedin" viewBox="0 0 32 32">
     <g transform="translate(751.41 -930.16)">
      <path d="m-750.43 941.99c2.2005.0124 4.401.0247 6.6015.0371l.0366 19.719h-6.6381zm10.269 16.708c.0582-5.8948.0479-10.752.0479-16.706h6.6345l.0196 1.3632.0196 1.3632.24893-.3469c.37237-.51892 1.1383-1.2864 1.6269-1.6302 1.2588-.88564 2.6198-1.2351 4.5042-1.1565 3.6798.1535 6.1527 2.3359 6.9324 6.1181.24943 1.2098.28515 2.2346.28632 8.2138l.0010 5.8302h-6.6376v-5.4229c0-3.3966-.029-5.6801-.0776-6.1111-.2136-1.8935-.99354-3.0035-2.3674-3.3692-.80686-.21477-2.0378-.0469-2.7711.37789-.40465.2344-1.113.9852-1.365 1.4468-.42425.77708-.41722.65673-.41722 7.1385v5.94h-6.7333l.0478-3.0488zm-8.2269-19.553c-2.1296-.60227-3.0969-2.9605-2.0277-4.9435.40836-.75734 1.3791-1.4287 2.3556-1.629.62167-.12756 1.9006-.0507 2.416.14535 1.2663.48152 2.017 1.4244 2.2111 2.7771.23856 1.6627-.86429 3.2388-2.5707 3.6736-.60301.15369-1.7995.14188-2.3843-.0235z"/>
    </g>
  </symbol>

  <symbol id="gel-icon-twitter" viewBox="0 0 32 32">
    <g transform="translate(751.41 -930.16)">
      <path  d="m-742.22 959.25c-2.6682-.11133-5.8733-1.0864-8.2103-2.4979-.27703-.16728-.5075-.3063-.51211-.30888-.005 0 .59603-.007 1.3348-.007 2.904.0803 5.786-1.1063 7.9293-2.5986l.15469-.13048-.42374-.0333c-1-.078-2.2556-.53901-3.132-1.1501-.52874-.3687-1.1352-.97208-1.5258-1.5181-.32434-.45341-.80539-1.3693-.85842-1.6345l-.0284-.14222.54567.0645c.40541.0475.68807.0509 1.0997.0135.64939-.0598 1.1333-.14576 1.1333-.20169 0-.0217-.10766-.0625-.23926-.091-.9033-.19388-2.134-.89013-2.8898-1.6349-.97733-.96305-1.7044-2.3889-1.8542-3.6362-.0732-.60949-.0988-.97078-.0707-.99889.0139-.0142.21219.0604.44066.16571.71405.32837 1.7273.5805 2.1979.54697l.22427-.0163-.2173-.15111c-.49897-.34697-1.1578-1.0437-1.5597-1.6494-.26246-.39559-.64794-1.2432-.78466-1.7254-.19641-.69257-.23938-1.023-.23846-1.8334.00068-.77867.0827-1.3029.31537-2.0199.11744-.36196.48958-1.1599.53917-1.156.0172 0 .13351.12798.25817.28134.59962.73785 2.1264 2.1642 3.057 2.8559.34494.25641.974.68845 1.0023.68845.0152 0 .12245.0652.23826.14446 2.6401 1.4778 5.3982 2.6786 8.5255 2.7266h.23536l-.0311-.15621c-.0172-.086-.0554-.41587-.0849-.73311-.0546-.58728-.004-1.5043.10964-1.9566.30986-1.2411.82003-2.1929 1.6305-3.0418 1.8684-1.9571 4.6785-2.5475 7.192-1.511.65141.26863 1.5466.8581 1.9734 1.2995.10952.11323.23558.2059.28014.2059.14251 0 .85912-.19579 1.6003-.43719.43216-.14073 1.0558-.40013 1.5615-.64941.46306-.22831.84787-.40936.85515-.40237.0284.0272-.22642.62769-.42876 1.0105-.42748.8086-1.2713 1.7667-1.9564 2.2215-.31514.20923-.38122.28662-.21372.2505.0647-.0143.28743-.0502.49509-.0799.71721-.10365 1.9792-.46244 2.6362-.74939.13388-.0584.26446-.10631.29018-.10631.0662 0-.40772.64791-.86575 1.1837-.43263.50604-1.2736 1.3363-1.5819 1.5618-.11082.0811-.30914.23522-.44074.34263l-.23925.19523-.00051.71309c-.00096 1.8099-.29265 3.7796-.80594 5.4479-2.2177 7.0403-8.7012 12.009-15.035 12.918-.83458.12648-2.2911.174-3.6266.11826z"/>
    </g>
  </symbol>

  <symbol id="gel-icon-facebook" viewBox="0 0 32 32">
    <g transform="translate(751.41 -930.16)">
      <path d="m-738.63 954.7v-7.1633h-4.8076v-5.5769h4.8076c.0583-1.6654-.0869-3.3895.0334-5.048.21565-2.5269 1.2603-4.3326 3.1618-5.4653.78052-.46495 1.6959-.77056 2.7341-.91278.96528-.1323 4.0464-.0665 5.2884.11293.11458.0164.21914.0303.23236.0308.0133.00034.024 1.1248.024 2.4987v2.4982l-1.899.0114-1.899.0114-.32051.087c-.44641.12082-.69899.25241-.93366.48639-.32146.32054-.53971.84214-.61733 1.4754-.0521 1.5298-.0354 2.5782-.0355 4.2147 2.5935.0776 3.5753.0476 5.5141.0393.00097.0217-.16105 1.2768-.35962 2.7883l-.36101 2.7484h-4.7935v14.327h-5.7691c.00003-2.3878-.00007-4.7756 0-7.1633z"/>
    </g>
  </symbol>  
</svg>