<svg xmlns:rdf="http://www.w3.org/1999/02/22-rdf-syntax-ns#" xmlns="http://www.w3.org/2000/svg" height="180.72mm" width="361.24mm" version="1.1" xmlns:cc="http://creativecommons.org/ns#" xmlns:xlink="http://www.w3.org/1999/xlink" viewBox="0 0 1280 640.3251" xmlns:dc="http://purl.org/dc/elements/1.1/">
 <defs>
  <clipPath id="SVGID_2_">
   <use xlink:href="#SVGID_1_" height="100%" width="100%" y="0" x="0" overflow="visible"/>
  </clipPath>
  <clipPath id="b">
   <use xlink:href="#SVGID_1_" height="100%" width="100%" y="0" x="0" overflow="visible"/>
  </clipPath>
  <clipPath id="a">
   <use xlink:href="#SVGID_1_" height="100%" width="100%" y="0" x="0" overflow="visible"/>
  </clipPath>
 </defs>
 <rect style="stroke-width:0;fill:#767676" height="120" width="1280" y="-.011109" x="3.3881e-21"/>
 <rect style="stroke-width:0;fill:#cccccc" height="480" width="1277.2" y="160.33" x="1.403"/>
 <path d="m187.41 8.567c-.28-.048-.568-.095-.86-.14l-.346-.05c-.487-.067-.984-.123-1.484-.17-.34-.033-.68-.056-1.018-.076-.603-.037-1.2-.052-1.774-.052-.262 0-.412.005-.668.008-.483.008-.952.03-1.415.06-.264.017-.523.04-.78.062-.38.034-.756.075-1.125.122l-.31.042-.342.05-.423.067c-.186.03-.367.062-.547.095-.25.047-.5.097-.746.148-1.514.32-2.914.746-4.208 1.25-.666.26-1.31.54-1.917.84-.507.247-.996.504-1.464.774-.455.263-.893.528-1.312.81-.242.16-.48.323-.71.49-.198.143-.395.286-.586.434-.403.313-.795.63-1.16.955-.342.303-.675.61-.984.918-.267.267-.534.537-.787.82-.255.287-.51.576-.754.877-.265.328-.526.663-.776 1.01-.184.257-.364.518-.538.784-.12.18-.234.362-.348.546-.666 1.088-1.25 2.254-1.727 3.497-.598 1.55-1.03 3.216-1.267 4.99-.074.557-.132 1.124-.165 1.704-.025.445-.043.896-.043 1.353 0 .342.003.68.025 1.014.023.35.05.694.09 1.036l.025.24c.052.406.114.805.19 1.2.03.152.062.307.095.46.07.328.147.652.233.97.112.413.23.818.364 1.216.165.487.34.964.534 1.426.308.735.644 1.44 1.008 2.103.214.39.433.77.66 1.133.183.292.37.57.56.846.248.36.507.707.762 1.037.27.35.55.677.82.99.34.39.683.748 1.013 1.077l.18.175c.274.264.57.55.913.84.233.198.474.406.737.612.245.192.497.39.768.583.322.23.66.466 1.02.698.38.244.78.49 1.207.728.843.472 1.773.925 2.797 1.337.382.152.778.3 1.188.44.405.138.82.267 1.252.392.734.208 1.507.395 2.318.553.652.127 1.332.232 2.034.317.698.084 1.42.15 2.17.187.363.018.732.032 1.107.038.172.003.347.007.52.007 1.343 0 2.584-.05 3.733-.146l.226-.02c.46-.042.9-.09 1.33-.142.656-.082 1.285-.18 1.88-.285.377-.07.74-.143 1.095-.218.55-.118 1.072-.246 1.572-.378.367-.097.724-.2 1.065-.303.41-.123.807-.254 1.18-.382l.364-.127c.18-.064.427-.152.718-.266.384-.15.848-.333 1.375-.558.313-.135.655-.288 1.004-.45.31-.14.64-.3.968-.46.14-.068.28-.132.42-.203v-8.19c-.094.06-.196.12-.293.178l-.562.34c-.56.34-1.1.658-1.643.954-.595.322-1.175.62-1.75.892-1.014.477-1.983.88-2.924 1.217-1.783.64-3.424 1.05-4.87 1.3-.17.03-.34.058-.506.084-.4.063-.78.11-1.148.15-.572.063-1.1.095-1.58.118-.31.013-.6.02-.87.02-.58 0-1.178-.015-1.787-.058-.713-.05-1.44-.13-2.172-.254-1.185-.198-2.373-.5-3.537-.92-.17-.062-.343-.132-.514-.2-.11-.042-.225-.09-.333-.136-.192-.082-.38-.163-.57-.252-.398-.19-.797-.393-1.185-.612-.19-.11-.378-.224-.578-.347-.194-.123-.39-.25-.578-.38-.24-.168-.476-.338-.708-.52-.22-.175-.45-.362-.64-.53l-.272-.244-.135-.124-.08-.076-.1-.095c-.367-.366-.705-.735-1.012-1.104-.172-.208-.334-.416-.488-.626-.15-.2-.287-.406-.42-.606-.127-.19-.246-.386-.358-.577-.17-.29-.324-.58-.465-.865-.122-.245-.232-.49-.336-.732-.176-.41-.327-.828-.453-1.222-.1-.308-.183-.615-.256-.91-.214-.854-.326-1.637-.388-2.3-.023-.258-.04-.495-.05-.714-.015-.328-.02-.612-.02-.84 0-.15.002-.322.01-.52.018-.468.055-1.06.153-1.736.06-.41.144-.85.252-1.31.073-.307.16-.616.258-.938.09-.292.195-.585.31-.886.075-.203.162-.405.25-.61.12-.277.254-.553.398-.835.108-.21.228-.42.35-.633.27-.467.575-.93.92-1.39.125-.164.253-.33.388-.493.173-.21.357-.425.548-.63.097-.102.193-.21.294-.312 1.5-1.5 3.19-2.624 4.938-3.42.27-.123.548-.234.822-.344.28-.11.553-.208.836-.304.302-.1.61-.194.913-.28.288-.08.58-.15.865-.217.288-.067.58-.123.865-.176.317-.06.633-.106.947-.15.316-.04.63-.074.94-.1.598-.052 1.184-.078 1.755-.078.193 0 .38-.002.57.003.423.01.838.024 1.242.05.282.02.556.037.826.062.517.048 1.015.112 1.488.184.42.063.828.136 1.208.21.59.117 1.126.248 1.607.374.315.082.603.168.867.246.396.118.735.224.998.315.455.157.706.25.706.25.403.143.795.302 1.184.457.52.208 1.016.435 1.494.65.397.178.772.364 1.127.537.292.142.563.286.82.418.448.23.826.442 1.138.61l.835.455v-8.04s-.503-.208-1.37-.534c-.382-.146-.834-.317-1.348-.5-.287-.1-.586-.21-.907-.317-.254-.086-.516-.18-.79-.267-.306-.097-.623-.203-.952-.302-.235-.07-.48-.145-.724-.215l-.22-.062c-.238-.068-.48-.136-.728-.202-.29-.077-.587-.153-.888-.227l-.58-.14c-.318-.072-.64-.143-.966-.21-.33-.073-.668-.134-1.007-.196zm-40.205-8.357h63.818v60.058h-63.818v-60.058zm-49.048 33.12v11.8h7.663s.153-.004.404-.014c.258-.01.623-.023 1.065-.06.836-.078 1.928-.23 2.99-.59.963-.324 1.9-.81 2.615-1.526.275-.275.503-.562.687-.852.6-.946.753-1.91.786-2.455.018-.236.017-.375.017-.375s.004-.106 0-.29c-.01-.228-.036-.67-.158-1.142-.144-.56-.415-1.21-.896-1.803-.09-.113-.19-.226-.297-.333-.21-.21-.438-.414-.688-.598-.42-.308-.9-.572-1.42-.798-.688-.297-1.46-.52-2.306-.68-.433-.08-.893-.147-1.362-.19-.29-.03-.58-.05-.883-.067-.262-.017-.538-.028-.81-.028-2.72 0-7.41-.003-7.41-.003zm0-17.945v11.19h3.71s.248 0 .575-.01c.256-.008.562-.026.835-.04.763-.057 1.82-.163 2.876-.458.206-.058.413-.122.616-.194.828-.295 1.622-.726 2.24-1.333.49-.482.815-1.02 1.03-1.542.262-.64.354-1.253.392-1.687.034-.387.032-.633.032-.633s.008-.185-.008-.475c-.026-.488-.127-1.28-.51-2.043-.187-.366-.44-.718-.786-1.06-.417-.41-.923-.727-1.468-.968-1.045-.46-2.24-.644-3.247-.71-.438-.03-.837-.037-1.177-.037h-5.11z" clip-path="url(#SVGID_2_)" class="st0" transform="matrix(.39682 0 0 .39682 .11208 -201.01)"/>
 <path d="m90.413 8.632v43.253h16.283s7.94.22 12.324-4.166c3.568-3.568 3.312-7.697 3.312-7.697s.257-4.31-3.047-7.616c-2.815-2.814-6.41-3.564-6.41-3.564s1.624-.762 2.872-2.01c.584-.585 2.662-2.462 2.662-7.018 0-4.59-3.057-7.23-3.057-7.23s-3.345-3.954-10.9-3.954h-14.04v.002zm-16.74-8.422h63.817v60.058h-63.818v-60.058zm-49.048 33.12v11.8h7.663s.153-.004.404-.014c.26-.01.623-.023 1.065-.06.835-.078 1.928-.23 2.99-.59.963-.324 1.9-.81 2.614-1.526.277-.275.505-.562.687-.852.602-.946.753-1.91.787-2.455.018-.236.016-.375.016-.375s.004-.106 0-.29c-.008-.228-.036-.67-.157-1.142-.144-.56-.414-1.21-.895-1.803-.09-.113-.19-.226-.297-.333-.21-.21-.437-.414-.687-.598-.42-.308-.9-.572-1.42-.798-.688-.297-1.458-.52-2.306-.68-.433-.08-.892-.147-1.362-.19-.29-.03-.58-.05-.883-.067-.262-.017-.538-.028-.81-.028-2.718 0-7.407-.003-7.407-.003zm0-17.945v11.19h3.71s.248 0 .575-.01c.257-.008.562-.026.834-.04.763-.057 1.82-.163 2.876-.458.206-.058.413-.122.616-.194.828-.295 1.622-.726 2.24-1.333.49-.482.814-1.02 1.028-1.542.263-.64.355-1.253.393-1.687.034-.387.032-.633.032-.633s.007-.185-.008-.475c-.026-.488-.128-1.28-.51-2.043-.187-.366-.44-.718-.786-1.06-.417-.41-.923-.727-1.468-.968-1.044-.46-2.24-.644-3.247-.71-.437-.03-.836-.037-1.176-.037h-5.11z" clip-path="url(#SVGID_2_)" class="st0" transform="matrix(.39682 0 0 .39682 .11208 -201.01)"/>
 <path d="m16.878 8.632v43.253h16.282s7.94.22 12.324-4.166c3.57-3.568 3.312-7.697 3.312-7.697s.258-4.31-3.046-7.616c-2.815-2.814-6.41-3.564-6.41-3.564s1.625-.762 2.872-2.01c.583-.585 2.662-2.462 2.662-7.018 0-4.59-3.055-7.23-3.055-7.23s-3.346-3.954-10.902-3.954h-14.04v.002zm-16.74-8.422h63.816v60.058h-63.817v-60.058z" clip-path="url(#SVGID_2_)" class="st0" transform="matrix(.39682 0 0 .39682 .11208 -201.01)"/>
 <path d="m187.41 8.567c-.28-.048-.568-.095-.86-.14l-.346-.05c-.487-.067-.984-.123-1.484-.17-.34-.033-.68-.056-1.018-.076-.603-.037-1.2-.052-1.774-.052-.262 0-.412.005-.668.008-.483.008-.952.03-1.415.06-.264.017-.523.04-.78.062-.38.034-.756.075-1.125.122l-.31.042-.342.05-.423.067c-.186.03-.367.062-.547.095-.25.047-.5.097-.746.148-1.514.32-2.914.746-4.208 1.25-.666.26-1.31.54-1.917.84-.507.247-.996.504-1.464.774-.455.263-.893.528-1.312.81-.242.16-.48.323-.71.49-.198.143-.395.286-.586.434-.403.313-.795.63-1.16.955-.342.303-.675.61-.984.918-.267.267-.534.537-.787.82-.255.287-.51.576-.754.877-.265.328-.526.663-.776 1.01-.184.257-.364.518-.538.784-.12.18-.234.362-.348.546-.666 1.088-1.25 2.254-1.727 3.497-.598 1.55-1.03 3.216-1.267 4.99-.074.557-.132 1.124-.165 1.704-.025.445-.043.896-.043 1.353 0 .342.003.68.025 1.014.023.35.05.694.09 1.036l.025.24c.052.406.114.805.19 1.2.03.152.062.307.095.46.07.328.147.652.233.97.112.413.23.818.364 1.216.165.487.34.964.534 1.426.308.735.644 1.44 1.008 2.103.214.39.433.77.66 1.133.183.292.37.57.56.846.248.36.507.707.762 1.037.27.35.55.677.82.99.34.39.683.748 1.013 1.077l.18.175c.274.264.57.55.913.84.233.198.474.406.737.612.245.192.497.39.768.583.322.23.66.466 1.02.698.38.244.78.49 1.207.728.843.472 1.773.925 2.797 1.337.382.152.778.3 1.188.44.405.138.82.267 1.252.392.734.208 1.507.395 2.318.553.652.127 1.332.232 2.034.317.698.084 1.42.15 2.17.187.363.018.732.032 1.107.038.172.003.347.007.52.007 1.343 0 2.584-.05 3.733-.146l.226-.02c.46-.042.9-.09 1.33-.142.656-.082 1.285-.18 1.88-.285.377-.07.74-.143 1.095-.218.55-.118 1.072-.246 1.572-.378.367-.097.724-.2 1.065-.303.41-.123.807-.254 1.18-.382l.364-.127c.18-.064.427-.152.718-.266.384-.15.848-.333 1.375-.558.313-.135.655-.288 1.004-.45.31-.14.64-.3.968-.46.14-.068.28-.132.42-.203v-8.19c-.094.06-.196.12-.293.178l-.562.34c-.56.34-1.1.658-1.643.954-.595.322-1.175.62-1.75.892-1.014.477-1.983.88-2.924 1.217-1.783.64-3.424 1.05-4.87 1.3-.17.03-.34.058-.506.084-.4.063-.78.11-1.148.15-.572.063-1.1.095-1.58.118-.31.013-.6.02-.87.02-.58 0-1.178-.015-1.787-.058-.713-.05-1.44-.13-2.172-.254-1.185-.198-2.373-.5-3.537-.92-.17-.062-.343-.132-.514-.2-.11-.042-.225-.09-.333-.136-.192-.082-.38-.163-.57-.252-.398-.19-.797-.393-1.185-.612-.19-.11-.378-.224-.578-.347-.194-.123-.39-.25-.578-.38-.24-.168-.476-.338-.708-.52-.22-.175-.45-.362-.64-.53l-.272-.244-.135-.124-.08-.076-.1-.095c-.367-.366-.705-.735-1.012-1.104-.172-.208-.334-.416-.488-.626-.15-.2-.287-.406-.42-.606-.127-.19-.246-.386-.358-.577-.17-.29-.324-.58-.465-.865-.122-.245-.232-.49-.336-.732-.176-.41-.327-.828-.453-1.222-.1-.308-.183-.615-.256-.91-.214-.854-.326-1.637-.388-2.3-.023-.258-.04-.495-.05-.714-.015-.328-.02-.612-.02-.84 0-.15.002-.322.01-.52.018-.468.055-1.06.153-1.736.06-.41.144-.85.252-1.31.073-.307.16-.616.258-.938.09-.292.195-.585.31-.886.075-.203.162-.405.25-.61.12-.277.254-.553.398-.835.108-.21.228-.42.35-.633.27-.467.575-.93.92-1.39.125-.164.253-.33.388-.493.173-.21.357-.425.548-.63.097-.102.193-.21.294-.312 1.5-1.5 3.19-2.624 4.938-3.42.27-.123.548-.234.822-.344.28-.11.553-.208.836-.304.302-.1.61-.194.913-.28.288-.08.58-.15.865-.217.288-.067.58-.123.865-.176.317-.06.633-.106.947-.15.316-.04.63-.074.94-.1.598-.052 1.184-.078 1.755-.078.193 0 .38-.002.57.003.423.01.838.024 1.242.05.282.02.556.037.826.062.517.048 1.015.112 1.488.184.42.063.828.136 1.208.21.59.117 1.126.248 1.607.374.315.082.603.168.867.246.396.118.735.224.998.315.455.157.706.25.706.25.403.143.795.302 1.184.457.52.208 1.016.435 1.494.65.397.178.772.364 1.127.537.292.142.563.286.82.418.448.23.826.442 1.138.61l.835.455v-8.04s-.503-.208-1.37-.534c-.382-.146-.834-.317-1.348-.5-.287-.1-.586-.21-.907-.317-.254-.086-.516-.18-.79-.267-.306-.097-.623-.203-.952-.302-.235-.07-.48-.145-.724-.215l-.22-.062c-.238-.068-.48-.136-.728-.202-.29-.077-.587-.153-.888-.227l-.58-.14c-.318-.072-.64-.143-.966-.21-.33-.073-.668-.134-1.007-.196zm-40.205-8.357h63.818v60.058h-63.818v-60.058zm-49.048 33.12v11.8h7.663s.153-.004.404-.014c.258-.01.623-.023 1.065-.06.836-.078 1.928-.23 2.99-.59.963-.324 1.9-.81 2.615-1.526.275-.275.503-.562.687-.852.6-.946.753-1.91.786-2.455.018-.236.017-.375.017-.375s.004-.106 0-.29c-.01-.228-.036-.67-.158-1.142-.144-.56-.415-1.21-.896-1.803-.09-.113-.19-.226-.297-.333-.21-.21-.438-.414-.688-.598-.42-.308-.9-.572-1.42-.798-.688-.297-1.46-.52-2.306-.68-.433-.08-.893-.147-1.362-.19-.29-.03-.58-.05-.883-.067-.262-.017-.538-.028-.81-.028-2.72 0-7.41-.003-7.41-.003zm0-17.945v11.19h3.71s.248 0 .575-.01c.256-.008.562-.026.835-.04.763-.057 1.82-.163 2.876-.458.206-.058.413-.122.616-.194.828-.295 1.622-.726 2.24-1.333.49-.482.815-1.02 1.03-1.542.262-.64.354-1.253.392-1.687.034-.387.032-.633.032-.633s.008-.185-.008-.475c-.026-.488-.127-1.28-.51-2.043-.187-.366-.44-.718-.786-1.06-.417-.41-.923-.727-1.468-.968-1.045-.46-2.24-.644-3.247-.71-.438-.03-.837-.037-1.177-.037h-5.11z" clip-path="url(#b)" class="st0" transform="matrix(.39682 0 0 .39682 .11208 -201.01)"/>
 <path d="m90.413 8.632v43.253h16.283s7.94.22 12.324-4.166c3.568-3.568 3.312-7.697 3.312-7.697s.257-4.31-3.047-7.616c-2.815-2.814-6.41-3.564-6.41-3.564s1.624-.762 2.872-2.01c.584-.585 2.662-2.462 2.662-7.018 0-4.59-3.057-7.23-3.057-7.23s-3.345-3.954-10.9-3.954h-14.04v.002zm-16.74-8.422h63.817v60.058h-63.818v-60.058zm-49.048 33.12v11.8h7.663s.153-.004.404-.014c.26-.01.623-.023 1.065-.06.835-.078 1.928-.23 2.99-.59.963-.324 1.9-.81 2.614-1.526.277-.275.505-.562.687-.852.602-.946.753-1.91.787-2.455.018-.236.016-.375.016-.375s.004-.106 0-.29c-.008-.228-.036-.67-.157-1.142-.144-.56-.414-1.21-.895-1.803-.09-.113-.19-.226-.297-.333-.21-.21-.437-.414-.687-.598-.42-.308-.9-.572-1.42-.798-.688-.297-1.458-.52-2.306-.68-.433-.08-.892-.147-1.362-.19-.29-.03-.58-.05-.883-.067-.262-.017-.538-.028-.81-.028-2.718 0-7.407-.003-7.407-.003zm0-17.945v11.19h3.71s.248 0 .575-.01c.257-.008.562-.026.834-.04.763-.057 1.82-.163 2.876-.458.206-.058.413-.122.616-.194.828-.295 1.622-.726 2.24-1.333.49-.482.814-1.02 1.028-1.542.263-.64.355-1.253.393-1.687.034-.387.032-.633.032-.633s.007-.185-.008-.475c-.026-.488-.128-1.28-.51-2.043-.187-.366-.44-.718-.786-1.06-.417-.41-.923-.727-1.468-.968-1.044-.46-2.24-.644-3.247-.71-.437-.03-.836-.037-1.176-.037h-5.11z" clip-path="url(#b)" class="st0" transform="matrix(.39682 0 0 .39682 .11208 -201.01)"/>
 <path d="m16.878 8.632v43.253h16.282s7.94.22 12.324-4.166c3.57-3.568 3.312-7.697 3.312-7.697s.258-4.31-3.046-7.616c-2.815-2.814-6.41-3.564-6.41-3.564s1.625-.762 2.872-2.01c.583-.585 2.662-2.462 2.662-7.018 0-4.59-3.055-7.23-3.055-7.23s-3.346-3.954-10.902-3.954h-14.04v.002zm-16.74-8.422h63.816v60.058h-63.817v-60.058z" clip-path="url(#b)" class="st0" transform="matrix(.39682 0 0 .39682 .11208 -201.01)"/>
 <path d="m187.41 8.567c-.28-.048-.568-.095-.86-.14l-.346-.05c-.487-.067-.984-.123-1.484-.17-.34-.033-.68-.056-1.018-.076-.603-.037-1.2-.052-1.774-.052-.262 0-.412.005-.668.008-.483.008-.952.03-1.415.06-.264.017-.523.04-.78.062-.38.034-.756.075-1.125.122l-.31.042-.342.05-.423.067c-.186.03-.367.062-.547.095-.25.047-.5.097-.746.148-1.514.32-2.914.746-4.208 1.25-.666.26-1.31.54-1.917.84-.507.247-.996.504-1.464.774-.455.263-.893.528-1.312.81-.242.16-.48.323-.71.49-.198.143-.395.286-.586.434-.403.313-.795.63-1.16.955-.342.303-.675.61-.984.918-.267.267-.534.537-.787.82-.255.287-.51.576-.754.877-.265.328-.526.663-.776 1.01-.184.257-.364.518-.538.784-.12.18-.234.362-.348.546-.666 1.088-1.25 2.254-1.727 3.497-.598 1.55-1.03 3.216-1.267 4.99-.074.557-.132 1.124-.165 1.704-.025.445-.043.896-.043 1.353 0 .342.003.68.025 1.014.023.35.05.694.09 1.036l.025.24c.052.406.114.805.19 1.2.03.152.062.307.095.46.07.328.147.652.233.97.112.413.23.818.364 1.216.165.487.34.964.534 1.426.308.735.644 1.44 1.008 2.103.214.39.433.77.66 1.133.183.292.37.57.56.846.248.36.507.707.762 1.037.27.35.55.677.82.99.34.39.683.748 1.013 1.077l.18.175c.274.264.57.55.913.84.233.198.474.406.737.612.245.192.497.39.768.583.322.23.66.466 1.02.698.38.244.78.49 1.207.728.843.472 1.773.925 2.797 1.337.382.152.778.3 1.188.44.405.138.82.267 1.252.392.734.208 1.507.395 2.318.553.652.127 1.332.232 2.034.317.698.084 1.42.15 2.17.187.363.018.732.032 1.107.038.172.003.347.007.52.007 1.343 0 2.584-.05 3.733-.146l.226-.02c.46-.042.9-.09 1.33-.142.656-.082 1.285-.18 1.88-.285.377-.07.74-.143 1.095-.218.55-.118 1.072-.246 1.572-.378.367-.097.724-.2 1.065-.303.41-.123.807-.254 1.18-.382l.364-.127c.18-.064.427-.152.718-.266.384-.15.848-.333 1.375-.558.313-.135.655-.288 1.004-.45.31-.14.64-.3.968-.46.14-.068.28-.132.42-.203v-8.19c-.094.06-.196.12-.293.178l-.562.34c-.56.34-1.1.658-1.643.954-.595.322-1.175.62-1.75.892-1.014.477-1.983.88-2.924 1.217-1.783.64-3.424 1.05-4.87 1.3-.17.03-.34.058-.506.084-.4.063-.78.11-1.148.15-.572.063-1.1.095-1.58.118-.31.013-.6.02-.87.02-.58 0-1.178-.015-1.787-.058-.713-.05-1.44-.13-2.172-.254-1.185-.198-2.373-.5-3.537-.92-.17-.062-.343-.132-.514-.2-.11-.042-.225-.09-.333-.136-.192-.082-.38-.163-.57-.252-.398-.19-.797-.393-1.185-.612-.19-.11-.378-.224-.578-.347-.194-.123-.39-.25-.578-.38-.24-.168-.476-.338-.708-.52-.22-.175-.45-.362-.64-.53l-.272-.244-.135-.124-.08-.076-.1-.095c-.367-.366-.705-.735-1.012-1.104-.172-.208-.334-.416-.488-.626-.15-.2-.287-.406-.42-.606-.127-.19-.246-.386-.358-.577-.17-.29-.324-.58-.465-.865-.122-.245-.232-.49-.336-.732-.176-.41-.327-.828-.453-1.222-.1-.308-.183-.615-.256-.91-.214-.854-.326-1.637-.388-2.3-.023-.258-.04-.495-.05-.714-.015-.328-.02-.612-.02-.84 0-.15.002-.322.01-.52.018-.468.055-1.06.153-1.736.06-.41.144-.85.252-1.31.073-.307.16-.616.258-.938.09-.292.195-.585.31-.886.075-.203.162-.405.25-.61.12-.277.254-.553.398-.835.108-.21.228-.42.35-.633.27-.467.575-.93.92-1.39.125-.164.253-.33.388-.493.173-.21.357-.425.548-.63.097-.102.193-.21.294-.312 1.5-1.5 3.19-2.624 4.938-3.42.27-.123.548-.234.822-.344.28-.11.553-.208.836-.304.302-.1.61-.194.913-.28.288-.08.58-.15.865-.217.288-.067.58-.123.865-.176.317-.06.633-.106.947-.15.316-.04.63-.074.94-.1.598-.052 1.184-.078 1.755-.078.193 0 .38-.002.57.003.423.01.838.024 1.242.05.282.02.556.037.826.062.517.048 1.015.112 1.488.184.42.063.828.136 1.208.21.59.117 1.126.248 1.607.374.315.082.603.168.867.246.396.118.735.224.998.315.455.157.706.25.706.25.403.143.795.302 1.184.457.52.208 1.016.435 1.494.65.397.178.772.364 1.127.537.292.142.563.286.82.418.448.23.826.442 1.138.61l.835.455v-8.04s-.503-.208-1.37-.534c-.382-.146-.834-.317-1.348-.5-.287-.1-.586-.21-.907-.317-.254-.086-.516-.18-.79-.267-.306-.097-.623-.203-.952-.302-.235-.07-.48-.145-.724-.215l-.22-.062c-.238-.068-.48-.136-.728-.202-.29-.077-.587-.153-.888-.227l-.58-.14c-.318-.072-.64-.143-.966-.21-.33-.073-.668-.134-1.007-.196zm-40.205-8.357h63.818v60.058h-63.818v-60.058zm-49.048 33.12v11.8h7.663s.153-.004.404-.014c.258-.01.623-.023 1.065-.06.836-.078 1.928-.23 2.99-.59.963-.324 1.9-.81 2.615-1.526.275-.275.503-.562.687-.852.6-.946.753-1.91.786-2.455.018-.236.017-.375.017-.375s.004-.106 0-.29c-.01-.228-.036-.67-.158-1.142-.144-.56-.415-1.21-.896-1.803-.09-.113-.19-.226-.297-.333-.21-.21-.438-.414-.688-.598-.42-.308-.9-.572-1.42-.798-.688-.297-1.46-.52-2.306-.68-.433-.08-.893-.147-1.362-.19-.29-.03-.58-.05-.883-.067-.262-.017-.538-.028-.81-.028-2.72 0-7.41-.003-7.41-.003zm0-17.945v11.19h3.71s.248 0 .575-.01c.256-.008.562-.026.835-.04.763-.057 1.82-.163 2.876-.458.206-.058.413-.122.616-.194.828-.295 1.622-.726 2.24-1.333.49-.482.815-1.02 1.03-1.542.262-.64.354-1.253.392-1.687.034-.387.032-.633.032-.633s.008-.185-.008-.475c-.026-.488-.127-1.28-.51-2.043-.187-.366-.44-.718-.786-1.06-.417-.41-.923-.727-1.468-.968-1.045-.46-2.24-.644-3.247-.71-.438-.03-.837-.037-1.177-.037h-5.11z" clip-path="url(#a)" class="st0" transform="matrix(.39682 0 0 .39682 .11208 -201.01)"/>
 <path d="m90.413 8.632v43.253h16.283s7.94.22 12.324-4.166c3.568-3.568 3.312-7.697 3.312-7.697s.257-4.31-3.047-7.616c-2.815-2.814-6.41-3.564-6.41-3.564s1.624-.762 2.872-2.01c.584-.585 2.662-2.462 2.662-7.018 0-4.59-3.057-7.23-3.057-7.23s-3.345-3.954-10.9-3.954h-14.04v.002zm-16.74-8.422h63.817v60.058h-63.818v-60.058zm-49.048 33.12v11.8h7.663s.153-.004.404-.014c.26-.01.623-.023 1.065-.06.835-.078 1.928-.23 2.99-.59.963-.324 1.9-.81 2.614-1.526.277-.275.505-.562.687-.852.602-.946.753-1.91.787-2.455.018-.236.016-.375.016-.375s.004-.106 0-.29c-.008-.228-.036-.67-.157-1.142-.144-.56-.414-1.21-.895-1.803-.09-.113-.19-.226-.297-.333-.21-.21-.437-.414-.687-.598-.42-.308-.9-.572-1.42-.798-.688-.297-1.458-.52-2.306-.68-.433-.08-.892-.147-1.362-.19-.29-.03-.58-.05-.883-.067-.262-.017-.538-.028-.81-.028-2.718 0-7.407-.003-7.407-.003zm0-17.945v11.19h3.71s.248 0 .575-.01c.257-.008.562-.026.834-.04.763-.057 1.82-.163 2.876-.458.206-.058.413-.122.616-.194.828-.295 1.622-.726 2.24-1.333.49-.482.814-1.02 1.028-1.542.263-.64.355-1.253.393-1.687.034-.387.032-.633.032-.633s.007-.185-.008-.475c-.026-.488-.128-1.28-.51-2.043-.187-.366-.44-.718-.786-1.06-.417-.41-.923-.727-1.468-.968-1.044-.46-2.24-.644-3.247-.71-.437-.03-.836-.037-1.176-.037h-5.11z" clip-path="url(#a)" class="st0" transform="matrix(.39682 0 0 .39682 .11208 -201.01)"/>
 <path d="m16.878 8.632v43.253h16.282s7.94.22 12.324-4.166c3.57-3.568 3.312-7.697 3.312-7.697s.258-4.31-3.046-7.616c-2.815-2.814-6.41-3.564-6.41-3.564s1.625-.762 2.872-2.01c.583-.585 2.662-2.462 2.662-7.018 0-4.59-3.055-7.23-3.055-7.23s-3.346-3.954-10.902-3.954h-14.04v.002zm-16.74-8.422h63.816v60.058h-63.817v-60.058z" clip-path="url(#a)" class="st0" transform="matrix(.39682 0 0 .39682 .11208 -201.01)"/>
 <path d="m187.41 8.567c-.28-.048-.568-.095-.86-.14l-.346-.05c-.487-.067-.984-.123-1.484-.17-.34-.033-.68-.056-1.018-.076-.603-.037-1.2-.052-1.774-.052-.262 0-.412.005-.668.008-.483.008-.952.03-1.415.06-.264.017-.523.04-.78.062-.38.034-.756.075-1.125.122l-.31.042-.342.05-.423.067c-.186.03-.367.062-.547.095-.25.047-.5.097-.746.148-1.514.32-2.914.746-4.208 1.25-.666.26-1.31.54-1.917.84-.507.247-.996.504-1.464.774-.455.263-.893.528-1.312.81-.242.16-.48.323-.71.49-.198.143-.395.286-.586.434-.403.313-.795.63-1.16.955-.342.303-.675.61-.984.918-.267.267-.534.537-.787.82-.255.287-.51.576-.754.877-.265.328-.526.663-.776 1.01-.184.257-.364.518-.538.784-.12.18-.234.362-.348.546-.666 1.088-1.25 2.254-1.727 3.497-.598 1.55-1.03 3.216-1.267 4.99-.074.557-.132 1.124-.165 1.704-.025.445-.043.896-.043 1.353 0 .342.003.68.025 1.014.023.35.05.694.09 1.036l.025.24c.052.406.114.805.19 1.2.03.152.062.307.095.46.07.328.147.652.233.97.112.413.23.818.364 1.216.165.487.34.964.534 1.426.308.735.644 1.44 1.008 2.103.214.39.433.77.66 1.133.183.292.37.57.56.846.248.36.507.707.762 1.037.27.35.55.677.82.99.34.39.683.748 1.013 1.077l.18.175c.274.264.57.55.913.84.233.198.474.406.737.612.245.192.497.39.768.583.322.23.66.466 1.02.698.38.244.78.49 1.207.728.843.472 1.773.925 2.797 1.337.382.152.778.3 1.188.44.405.138.82.267 1.252.392.734.208 1.507.395 2.318.553.652.127 1.332.232 2.034.317.698.084 1.42.15 2.17.187.363.018.732.032 1.107.038.172.003.347.007.52.007 1.343 0 2.584-.05 3.733-.146l.226-.02c.46-.042.9-.09 1.33-.142.656-.082 1.285-.18 1.88-.285.377-.07.74-.143 1.095-.218.55-.118 1.072-.246 1.572-.378.367-.097.724-.2 1.065-.303.41-.123.807-.254 1.18-.382l.364-.127c.18-.064.427-.152.718-.266.384-.15.848-.333 1.375-.558.313-.135.655-.288 1.004-.45.31-.14.64-.3.968-.46.14-.068.28-.132.42-.203v-8.19c-.094.06-.196.12-.293.178l-.562.34c-.56.34-1.1.658-1.643.954-.595.322-1.175.62-1.75.892-1.014.477-1.983.88-2.924 1.217-1.783.64-3.424 1.05-4.87 1.3-.17.03-.34.058-.506.084-.4.063-.78.11-1.148.15-.572.063-1.1.095-1.58.118-.31.013-.6.02-.87.02-.58 0-1.178-.015-1.787-.058-.713-.05-1.44-.13-2.172-.254-1.185-.198-2.373-.5-3.537-.92-.17-.062-.343-.132-.514-.2-.11-.042-.225-.09-.333-.136-.192-.082-.38-.163-.57-.252-.398-.19-.797-.393-1.185-.612-.19-.11-.378-.224-.578-.347-.194-.123-.39-.25-.578-.38-.24-.168-.476-.338-.708-.52-.22-.175-.45-.362-.64-.53l-.272-.244-.135-.124-.08-.076-.1-.095c-.367-.366-.705-.735-1.012-1.104-.172-.208-.334-.416-.488-.626-.15-.2-.287-.406-.42-.606-.127-.19-.246-.386-.358-.577-.17-.29-.324-.58-.465-.865-.122-.245-.232-.49-.336-.732-.176-.41-.327-.828-.453-1.222-.1-.308-.183-.615-.256-.91-.214-.854-.326-1.637-.388-2.3-.023-.258-.04-.495-.05-.714-.015-.328-.02-.612-.02-.84 0-.15.002-.322.01-.52.018-.468.055-1.06.153-1.736.06-.41.144-.85.252-1.31.073-.307.16-.616.258-.938.09-.292.195-.585.31-.886.075-.203.162-.405.25-.61.12-.277.254-.553.398-.835.108-.21.228-.42.35-.633.27-.467.575-.93.92-1.39.125-.164.253-.33.388-.493.173-.21.357-.425.548-.63.097-.102.193-.21.294-.312 1.5-1.5 3.19-2.624 4.938-3.42.27-.123.548-.234.822-.344.28-.11.553-.208.836-.304.302-.1.61-.194.913-.28.288-.08.58-.15.865-.217.288-.067.58-.123.865-.176.317-.06.633-.106.947-.15.316-.04.63-.074.94-.1.598-.052 1.184-.078 1.755-.078.193 0 .38-.002.57.003.423.01.838.024 1.242.05.282.02.556.037.826.062.517.048 1.015.112 1.488.184.42.063.828.136 1.208.21.59.117 1.126.248 1.607.374.315.082.603.168.867.246.396.118.735.224.998.315.455.157.706.25.706.25.403.143.795.302 1.184.457.52.208 1.016.435 1.494.65.397.178.772.364 1.127.537.292.142.563.286.82.418.448.23.826.442 1.138.61l.835.455v-8.04s-.503-.208-1.37-.534c-.382-.146-.834-.317-1.348-.5-.287-.1-.586-.21-.907-.317-.254-.086-.516-.18-.79-.267-.306-.097-.623-.203-.952-.302-.235-.07-.48-.145-.724-.215l-.22-.062c-.238-.068-.48-.136-.728-.202-.29-.077-.587-.153-.888-.227l-.58-.14c-.318-.072-.64-.143-.966-.21-.33-.073-.668-.134-1.007-.196zm-40.205-8.357h63.818v60.058h-63.818v-60.058zm-49.048 33.12v11.8h7.663s.153-.004.404-.014c.258-.01.623-.023 1.065-.06.836-.078 1.928-.23 2.99-.59.963-.324 1.9-.81 2.615-1.526.275-.275.503-.562.687-.852.6-.946.753-1.91.786-2.455.018-.236.017-.375.017-.375s.004-.106 0-.29c-.01-.228-.036-.67-.158-1.142-.144-.56-.415-1.21-.896-1.803-.09-.113-.19-.226-.297-.333-.21-.21-.438-.414-.688-.598-.42-.308-.9-.572-1.42-.798-.688-.297-1.46-.52-2.306-.68-.433-.08-.893-.147-1.362-.19-.29-.03-.58-.05-.883-.067-.262-.017-.538-.028-.81-.028-2.72 0-7.41-.003-7.41-.003zm0-17.945v11.19h3.71s.248 0 .575-.01c.256-.008.562-.026.835-.04.763-.057 1.82-.163 2.876-.458.206-.058.413-.122.616-.194.828-.295 1.622-.726 2.24-1.333.49-.482.815-1.02 1.03-1.542.262-.64.354-1.253.392-1.687.034-.387.032-.633.032-.633s.008-.185-.008-.475c-.026-.488-.127-1.28-.51-2.043-.187-.366-.44-.718-.786-1.06-.417-.41-.923-.727-1.468-.968-1.045-.46-2.24-.644-3.247-.71-.438-.03-.837-.037-1.177-.037h-5.11z" clip-path="url(#a)" class="st0" transform="matrix(.39682 0 0 .39682 .11208 -201.01)"/>
 <path d="m90.413 8.632v43.253h16.283s7.94.22 12.324-4.166c3.568-3.568 3.312-7.697 3.312-7.697s.257-4.31-3.047-7.616c-2.815-2.814-6.41-3.564-6.41-3.564s1.624-.762 2.872-2.01c.584-.585 2.662-2.462 2.662-7.018 0-4.59-3.057-7.23-3.057-7.23s-3.345-3.954-10.9-3.954h-14.04v.002zm-16.74-8.422h63.817v60.058h-63.818v-60.058zm-49.048 33.12v11.8h7.663s.153-.004.404-.014c.26-.01.623-.023 1.065-.06.835-.078 1.928-.23 2.99-.59.963-.324 1.9-.81 2.614-1.526.277-.275.505-.562.687-.852.602-.946.753-1.91.787-2.455.018-.236.016-.375.016-.375s.004-.106 0-.29c-.008-.228-.036-.67-.157-1.142-.144-.56-.414-1.21-.895-1.803-.09-.113-.19-.226-.297-.333-.21-.21-.437-.414-.687-.598-.42-.308-.9-.572-1.42-.798-.688-.297-1.458-.52-2.306-.68-.433-.08-.892-.147-1.362-.19-.29-.03-.58-.05-.883-.067-.262-.017-.538-.028-.81-.028-2.718 0-7.407-.003-7.407-.003zm0-17.945v11.19h3.71s.248 0 .575-.01c.257-.008.562-.026.834-.04.763-.057 1.82-.163 2.876-.458.206-.058.413-.122.616-.194.828-.295 1.622-.726 2.24-1.333.49-.482.814-1.02 1.028-1.542.263-.64.355-1.253.393-1.687.034-.387.032-.633.032-.633s.007-.185-.008-.475c-.026-.488-.128-1.28-.51-2.043-.187-.366-.44-.718-.786-1.06-.417-.41-.923-.727-1.468-.968-1.044-.46-2.24-.644-3.247-.71-.437-.03-.836-.037-1.176-.037h-5.11z" clip-path="url(#a)" class="st0" transform="matrix(.39682 0 0 .39682 .11208 -201.01)"/>
 <path d="m16.878 8.632v43.253h16.282s7.94.22 12.324-4.166c3.57-3.568 3.312-7.697 3.312-7.697s.258-4.31-3.046-7.616c-2.815-2.814-6.41-3.564-6.41-3.564s1.625-.762 2.872-2.01c.583-.585 2.662-2.462 2.662-7.018 0-4.59-3.055-7.23-3.055-7.23s-3.346-3.954-10.902-3.954h-14.04v.002zm-16.74-8.422h63.816v60.058h-63.817v-60.058z" clip-path="url(#a)" class="st0" transform="matrix(.39682 0 0 .39682 .11208 -201.01)"/>
 <g style="fill:#000000">
  <path style="fill:#ffffff" d="m84.59 92.899q-7.158-11.47-14.498-22.94-7.341-11.562-14.499-22.389v45.33h-13.581v-65.609h14.315q7.4326 11.103 14.59 22.298 7.2491 11.103 14.406 22.573v-44.871h13.581v65.609h-14.315z"/>
  <path style="fill:#ffffff" d="m112.98 27.291h45.146v11.745h-31.015v14.223h27.528v11.745h-27.528v16.15h32.758v11.745h-46.89v-65.609z"/>
  <path style="fill:#ffffff" d="m220.08 92.899q-3.1198-11.103-6.1479-22.206-2.9363-11.103-5.7809-22.206-2.7528 11.103-5.6892 22.206-2.9363 11.103-6.0562 22.206h-14.957q-4.6798-16.058-8.9925-32.483t-8.1667-33.125h15.416q2.294 12.755 4.8633 25.509 2.5693 12.755 5.4139 25.051 6.148-23.949 11.654-47.807h13.764q2.7528 11.745 5.5974 23.491 2.9363 11.654 5.9644 23.307 2.7528-12.112 5.3221-24.592 2.5693-12.479 4.7715-24.959h15.14q-3.8539 16.7-8.1667 33.125-4.3127 16.425-8.9925 32.483h-14.957z"/>
  <path style="fill:#ffffff" d="m279.2 94.276q-5.4139 0-10.736-1.1929-5.2303-1.1929-10.094-3.7622v-12.663q9.8184 5.9644 20.83 5.9644 6.2397 0 9.4513-2.1105 3.3034-2.1105 3.3034-5.8727 0-2.8446-1.6517-4.4045-1.5599-1.6517-4.221-2.5693-2.661-1.0094-5.9644-1.8352-5.4139-1.2846-9.5431-2.9363t-6.9738-3.8539q-2.8446-2.294-4.3127-5.4139-1.4682-3.2116-1.4682-7.6161 0-6.2397 3.1198-10.736 3.2116-4.4963 8.9925-6.882 5.7809-2.4775 13.764-2.4775 5.2303 0 10.277 1.1929 5.0468 1.1929 9.0843 3.2116v12.479q-4.0375-2.4775-9.176-3.8539-5.0468-1.3764-10.185-1.3764-5.5974 0-8.7172 1.927-3.0281 1.927-3.0281 5.5056 0 2.5693 1.4682 4.1292 1.4682 1.4682 4.1292 2.4775 2.7528.91760 6.4232 1.8352 4.6798 1.1929 8.7172 2.6611 4.0374 1.3764 7.0655 3.5787 3.1199 2.2022 4.7715 5.5974 1.7434 3.3951 1.7434 8.3502 0 6.515-3.2116 11.195-3.2116 4.588-9.2678 7.0655-6.0562 2.3858-14.59 2.3858z"/>
 </g>
 <rect style="stroke-linejoin:round;stroke:#767676;stroke-linecap:round;stroke-width:5.0001;fill:none" height="319.81" width="474.62" y="239.1" x="80.097"/>
 <rect style="stroke-linejoin:round;stroke:#767676;stroke-linecap:round;stroke-width:5.0001;fill:none" height="144.96" width="277.23" y="238.79" x="599.79"/>
 <rect style="stroke-linejoin:round;stroke:#767676;stroke-linecap:round;stroke-width:5.0001;fill:none" height="142.53" width="276.67" y="239.04" x="923.97"/>
 <rect style="stroke-linejoin:round;stroke:#767676;stroke-linecap:round;stroke-width:5.0001;fill:none" height="135.44" width="277.38" y="424.34" x="599.72"/>
 <rect style="stroke-linejoin:round;stroke:#767676;stroke-linecap:round;stroke-width:5.0001;fill:none" height="135.44" width="277.38" y="424.34" x="924.55"/>
 <g style="fill:#404040">
  <path style="fill:#404040" d="m124.08 390.89h9.1154v9.9913h-9.1154v-9.9913zm0 19.052h9.1154v10.046h-9.1154v-10.046z"/>
  <path style="fill:#404040" d="m165.74 386.65v2.6826h9.4165v6.159h-9.4165v24.499h-8.0204v-24.499h-7.4456v-6.159h7.4456v-2.1351q0-5.5294 2.2994-7.6646 2.2994-2.1351 8.5405-2.1351h6.597v6.159h-6.2685q-1.8067 0-2.4636.65696-.62959.65697-.68434 2.4362z"/>
  <path style="fill:#404040" d="m185.29 389.33h15.877v24.499h9.964v6.159h-27.976v-6.159h9.9913v-18.34h-7.8562v-6.159zm7.8562-14.919h8.0204v9.3618h-8.0204v-9.3618z"/>
  <path style="fill:#404040" d="m244.47 397.79q-1.3139-1.2044-3.0932-1.8066-1.7519-.60222-3.8597-.60222-2.5457 0-4.4619.90332-1.8888.87596-2.929 2.5731-.65697 1.0402-.9307 2.5184-.24636 1.4782-.24636 4.4893v14.125h-8.0204v-30.658h8.0204v4.763q1.1771-2.6278 3.6133-4.0513 2.4362-1.4508 5.6937-1.4508 1.6424 0 3.2027.4106 1.5877.38323 3.0111 1.1497v7.6372z"/>
  <path style="fill:#404040" d="m273.81 390.29v7.0076q-2.2172-1.4234-4.6261-2.1351-2.3815-.73908-4.7904-.73908-2.6826 0-4.0513.79383-1.3687.76646-1.3687 2.2994 0 2.1899 5.8579 3.5586l.30111.0821 2.2994.54747q4.3798 1.0402 6.4054 3.3669 2.053 2.2994 2.053 6.2412 0 4.7356-3.1206 7.1171-3.0932 2.3541-9.3344 2.3541-2.7647 0-5.6663-.49272-2.9016-.46535-5.8853-1.4234v-7.0076q2.6552 1.5055 5.3926 2.2994 2.7647.79383 5.3378.79383 2.8195 0 4.2703-.8212 1.4508-.82121 1.4508-2.3815 0-1.5329-1.0402-2.3541-1.0128-.82121-4.8725-1.7519l-2.2173-.49272q-4.5988-1.0402-6.7065-3.2574-2.1078-2.2172-2.1078-5.94 0-4.4345 3.2027-6.8981t9.0059-2.4636q2.6005 0 5.1736.43797 2.6005.41061 5.0367 1.2592z"/>
  <path style="fill:#404040" d="m299.3 380.63v8.7048h10.484v6.159h-10.484v14.508q0 2.053.98544 2.9563 1.0128.87595 3.3396.87595h6.159v6.159h-6.7339q-6.8981 0-9.3344-2.1899-2.4362-2.2173-2.4362-8.1847v-14.125h-7.8288v-6.159h7.8288v-8.7048h8.0204z"/>
  <path style="fill:#404040" d="m316.93 400.17h29.016v7.3635h-29.016v-7.3635z"/>
  <path style="fill:#404040" d="m376.9 418.43q-2.0256 1.1771-4.3524 1.7519-2.3268.60221-5.0094.60221-7.0897 0-11.086-4.2703-3.9965-4.2703-3.9965-11.825 0-7.5825 4.0239-11.853 4.0239-4.2976 11.114-4.2976 2.4636 0 4.7356.57484 2.2994.57485 4.5714 1.7793v7.3361q-1.7519-1.5055-3.8597-2.2994-2.0804-.82121-4.325-.82121-3.9144 0-6.0222 2.491t-2.1078 7.0897q0 4.5988 2.1078 7.0624t6.0222 2.4636q2.3268 0 4.3524-.76646 2.0256-.79383 3.8323-2.3815v7.3635z"/>
  <path style="fill:#404040" d="m410.9 400.09v19.901h-7.9657v-18.669q0-3.3122-.95807-4.7356-.9307-1.4234-3.0658-1.4234-2.1899 0-3.4217 1.9435-1.2318 1.9162-1.2318 5.3378v17.546h-7.9657v-42.593h7.9657v16.534q.84858-2.5457 2.9016-3.9418 2.053-1.396 4.9546-1.396 4.3524 0 6.5696 2.9016 2.2172 2.8742 2.2172 8.5953z"/>
  <path style="fill:#404040" d="m421.36 389.33h15.877v24.499h9.964v6.159h-27.976v-6.159h9.9913v-18.34h-7.8562v-6.159zm7.8562-14.919h8.0204v9.3618h-8.0204v-9.3618z"/>
  <path style="fill:#404040" d="m459.62 407.21v-23.651h-8.1299v-6.159h16.15v29.81q0 3.6133 1.1223 5.1188t3.8049 1.5055h6.4054v6.159h-8.65q-5.7211 0-8.2121-2.9563t-2.491-9.8271z"/>
  <path style="fill:#404040" d="m504.41 393.68v-16.287h7.9931v42.593h-7.9931v-4.544q-1.2866 2.6552-3.3396 3.9965-2.0256 1.3413-4.7904 1.3413-5.2557 0-8.1573-4.2155t-2.9016-11.88q0-7.7741 2.929-11.935 2.9563-4.1608 8.4037-4.1608 2.4636 0 4.4071 1.2866 1.9709 1.2592 3.4491 3.8049zm-11.168 11.059q0 4.4345 1.4782 6.9529t4.0786 2.5184q2.6005 0 4.106-2.5184t1.5055-6.9529-1.5055-6.9529-4.106-2.5184-4.0786 2.5184q-1.4782 2.5184-1.4782 6.9529z"/>
 </g>
 <g style="fill:#404040">
  <path style="fill:#404040" d="m945.09 487.59h6.0747v6.6584h-6.0747v-6.6584zm0 12.697h6.0747v6.6949h-6.0747v-6.6949z"/>
  <path style="fill:#404040" d="m966.43 498.46v-15.761h-5.418v-4.1045h10.763v19.866q0 2.408.74794 3.4113.74793 1.0033 2.5357 1.0033h4.2687v4.1045h-5.7646q-3.8126 0-5.4727-1.9702-1.66-1.9702-1.66-6.549z"/>
  <path style="fill:#404040" d="m994.61 497.38q-2.9917 0-4.1775.76618t-1.1858 2.6269q0 1.3864.8209 2.2073.82091.8209 2.2256.8209 2.1161 0 3.2836-1.5871 1.1675-1.6053 1.1675-4.4694v-.36485h-2.1344zm7.4429-2.0614v11.657h-5.3086v-2.2803q-.96684 1.3499-2.481 2.0796-1.5141.72969-3.3383.72969-3.4843 0-5.4362-1.8425-1.9337-1.8425-1.9337-5.1443 0-3.5755 2.3168-5.272 2.3168-1.7148 7.1692-1.7148h3.7032v-.89387q0-1.2952-.9486-1.9519-.93035-.67497-2.7546-.67497-1.9154 0-3.7214.49255-1.7878.4743-3.7397 1.5324v-4.5606q1.7695-.72969 3.5937-1.0763 1.8242-.3466 3.8674-.3466 4.9802 0 6.9868 2.0249 2.0249 2.0249 2.0249 7.2422z"/>
  <path style="fill:#404040" d="m1022.4 487.19v4.67q-1.4776-.9486-3.0829-1.4229-1.5871-.49254-3.1924-.49254-1.7878 0-2.6999.52902-.9121.51079-.9121 1.5324 0 1.4594 3.9038 2.3715l.2007.0547 1.5324.36485q2.9187.69321 4.2687 2.2438 1.3681 1.5324 1.3681 4.1592 0 3.1559-2.0796 4.743-2.0614 1.5688-6.2206 1.5688-1.8425 0-3.7762-.32836-1.9337-.31012-3.9221-.9486v-4.67q1.7695 1.0033 3.5938 1.5324 1.8424.52903 3.5572.52903 1.879 0 2.8458-.54727.9669-.54727.9669-1.5871 0-1.0216-.6932-1.5688-.675-.54726-3.2472-1.1675l-1.4776-.32836q-3.0647-.69321-4.4694-2.1708-1.4046-1.4776-1.4046-3.9586 0-2.9552 2.1343-4.5971 2.1344-1.6418 6.0017-1.6418 1.7331 0 3.4478.29187 1.7331.27364 3.3566.83915z"/>
  <path style="fill:#404040" d="m1039.4 480.75v5.801h6.9868v4.1045h-6.9868v9.6684q0 1.3682.6567 1.9702.675.58376 2.2256.58376h4.1045v4.1045h-4.4876q-4.5971 0-6.2206-1.4594-1.6236-1.4776-1.6236-5.4544v-9.413h-5.2173v-4.1045h5.2173v-5.801h5.345z"/>
  <path style="fill:#404040" d="m1051.1 493.77h19.337v4.9072h-19.337v-4.9072z"/>
  <path style="fill:#404040" d="m1091.1 505.94q-1.3499.78442-2.9005 1.1675-1.5506.40133-3.3383.40133-4.7248 0-7.3882-2.8458-2.6633-2.8458-2.6633-7.8807 0-5.0531 2.6816-7.8989 2.6816-2.864 7.4063-2.864 1.6419 0 3.156.38309 1.5323.38309 3.0464 1.1858v4.8889q-1.1675-1.0033-2.5721-1.5324-1.3865-.54727-2.8823-.54727-2.6087 0-4.0133 1.66-1.4047 1.66-1.4047 4.7248 0 3.0647 1.4047 4.7065 1.4046 1.6418 4.0133 1.6418 1.5506 0 2.9005-.51078 1.3499-.52903 2.5539-1.5871v4.9072z"/>
  <path style="fill:#404040" d="m1113.8 493.72v13.262h-5.3085v-12.441q0-2.2073-.6385-3.1559-.6203-.9486-2.0432-.9486-1.4593 0-2.2802 1.2952-.821 1.277-.821 3.5572v11.693h-5.3085v-28.385h5.3085v11.018q.5656-1.6965 1.9337-2.6269 1.3682-.93035 3.3019-.93035 2.9005 0 4.3781 1.9337 1.4777 1.9154 1.4777 5.7281z"/>
  <path style="fill:#404040" d="m1120.7 486.55h10.581v16.327h6.6402v4.1045h-18.644v-4.1045h6.6585v-12.222h-5.2356v-4.1045zm5.2356-9.9421h5.345v6.2389h-5.345v-6.2389z"/>
  <path style="fill:#404040" d="m1146.2 498.46v-15.761h-5.418v-4.1045h10.763v19.866q0 2.408.7479 3.4113t2.5357 1.0033h4.2687v4.1045h-5.7646q-3.8126 0-5.4727-1.9702-1.66-1.9702-1.66-6.549z"/>
  <path style="fill:#404040" d="m1176.1 489.45v-10.854h5.3267v28.385h-5.3267v-3.0282q-.8574 1.7695-2.2256 2.6634-1.3499.89387-3.1924.89387-3.5025 0-5.4362-2.8093t-1.9337-7.9172q0-5.1808 1.9519-7.9536 1.9702-2.7728 5.6004-2.7728 1.6418 0 2.937.85738 1.3135.83915 2.2986 2.5357zm-7.4429 7.3699q0 2.9553.9851 4.6336t2.7181 1.6783 2.7363-1.6783q1.0034-1.6783 1.0034-4.6336 0-2.9552-1.0034-4.6335-1.0033-1.6783-2.7363-1.6783t-2.7181 1.6783-.9851 4.6335z"/>
 </g>
</svg>
