<svg xmlns:rdf="http://www.w3.org/1999/02/22-rdf-syntax-ns#" xmlns="http://www.w3.org/2000/svg" height="237.44mm" width="552.5mm" version="1.1" xmlns:cc="http://creativecommons.org/ns#" xmlns:xlink="http://www.w3.org/1999/xlink" viewBox="0 0 1957.7007 841.30925" xmlns:dc="http://purl.org/dc/elements/1.1/">
 <defs>
  <clipPath id="SVGID_2_">
   <use xlink:href="#SVGID_1_" height="100%" width="100%" y="0" x="0" overflow="visible"/>
  </clipPath>
  <clipPath id="b">
   <use xlink:href="#SVGID_1_" height="100%" width="100%" y="0" x="0" overflow="visible"/>
  </clipPath>
  <clipPath id="a">
   <use xlink:href="#SVGID_1_" height="100%" width="100%" y="0" x="0" overflow="visible"/>
  </clipPath>
 </defs>
 <rect style="stroke-width:0;fill:#404040" height="160" width="1280" y="-.011078" x="0"/>
 <rect style="stroke-width:0;fill:#767676" height="120" width="1280" y="200.98" x=".000028859"/>
 <rect style="stroke-width:0;fill:#cccccc" height="480" width="1277.2" y="361.32" x="1.403"/>
 <path d="m187.41 8.567c-.28-.048-.568-.095-.86-.14l-.346-.05c-.487-.067-.984-.123-1.484-.17-.34-.033-.68-.056-1.018-.076-.603-.037-1.2-.052-1.774-.052-.262 0-.412.005-.668.008-.483.008-.952.03-1.415.06-.264.017-.523.04-.78.062-.38.034-.756.075-1.125.122l-.31.042-.342.05-.423.067c-.186.03-.367.062-.547.095-.25.047-.5.097-.746.148-1.514.32-2.914.746-4.208 1.25-.666.26-1.31.54-1.917.84-.507.247-.996.504-1.464.774-.455.263-.893.528-1.312.81-.242.16-.48.323-.71.49-.198.143-.395.286-.586.434-.403.313-.795.63-1.16.955-.342.303-.675.61-.984.918-.267.267-.534.537-.787.82-.255.287-.51.576-.754.877-.265.328-.526.663-.776 1.01-.184.257-.364.518-.538.784-.12.18-.234.362-.348.546-.666 1.088-1.25 2.254-1.727 3.497-.598 1.55-1.03 3.216-1.267 4.99-.074.557-.132 1.124-.165 1.704-.025.445-.043.896-.043 1.353 0 .342.003.68.025 1.014.023.35.05.694.09 1.036l.025.24c.052.406.114.805.19 1.2.03.152.062.307.095.46.07.328.147.652.233.97.112.413.23.818.364 1.216.165.487.34.964.534 1.426.308.735.644 1.44 1.008 2.103.214.39.433.77.66 1.133.183.292.37.57.56.846.248.36.507.707.762 1.037.27.35.55.677.82.99.34.39.683.748 1.013 1.077l.18.175c.274.264.57.55.913.84.233.198.474.406.737.612.245.192.497.39.768.583.322.23.66.466 1.02.698.38.244.78.49 1.207.728.843.472 1.773.925 2.797 1.337.382.152.778.3 1.188.44.405.138.82.267 1.252.392.734.208 1.507.395 2.318.553.652.127 1.332.232 2.034.317.698.084 1.42.15 2.17.187.363.018.732.032 1.107.038.172.003.347.007.52.007 1.343 0 2.584-.05 3.733-.146l.226-.02c.46-.042.9-.09 1.33-.142.656-.082 1.285-.18 1.88-.285.377-.07.74-.143 1.095-.218.55-.118 1.072-.246 1.572-.378.367-.097.724-.2 1.065-.303.41-.123.807-.254 1.18-.382l.364-.127c.18-.064.427-.152.718-.266.384-.15.848-.333 1.375-.558.313-.135.655-.288 1.004-.45.31-.14.64-.3.968-.46.14-.068.28-.132.42-.203v-8.19c-.094.06-.196.12-.293.178l-.562.34c-.56.34-1.1.658-1.643.954-.595.322-1.175.62-1.75.892-1.014.477-1.983.88-2.924 1.217-1.783.64-3.424 1.05-4.87 1.3-.17.03-.34.058-.506.084-.4.063-.78.11-1.148.15-.572.063-1.1.095-1.58.118-.31.013-.6.02-.87.02-.58 0-1.178-.015-1.787-.058-.713-.05-1.44-.13-2.172-.254-1.185-.198-2.373-.5-3.537-.92-.17-.062-.343-.132-.514-.2-.11-.042-.225-.09-.333-.136-.192-.082-.38-.163-.57-.252-.398-.19-.797-.393-1.185-.612-.19-.11-.378-.224-.578-.347-.194-.123-.39-.25-.578-.38-.24-.168-.476-.338-.708-.52-.22-.175-.45-.362-.64-.53l-.272-.244-.135-.124-.08-.076-.1-.095c-.367-.366-.705-.735-1.012-1.104-.172-.208-.334-.416-.488-.626-.15-.2-.287-.406-.42-.606-.127-.19-.246-.386-.358-.577-.17-.29-.324-.58-.465-.865-.122-.245-.232-.49-.336-.732-.176-.41-.327-.828-.453-1.222-.1-.308-.183-.615-.256-.91-.214-.854-.326-1.637-.388-2.3-.023-.258-.04-.495-.05-.714-.015-.328-.02-.612-.02-.84 0-.15.002-.322.01-.52.018-.468.055-1.06.153-1.736.06-.41.144-.85.252-1.31.073-.307.16-.616.258-.938.09-.292.195-.585.31-.886.075-.203.162-.405.25-.61.12-.277.254-.553.398-.835.108-.21.228-.42.35-.633.27-.467.575-.93.92-1.39.125-.164.253-.33.388-.493.173-.21.357-.425.548-.63.097-.102.193-.21.294-.312 1.5-1.5 3.19-2.624 4.938-3.42.27-.123.548-.234.822-.344.28-.11.553-.208.836-.304.302-.1.61-.194.913-.28.288-.08.58-.15.865-.217.288-.067.58-.123.865-.176.317-.06.633-.106.947-.15.316-.04.63-.074.94-.1.598-.052 1.184-.078 1.755-.078.193 0 .38-.002.57.003.423.01.838.024 1.242.05.282.02.556.037.826.062.517.048 1.015.112 1.488.184.42.063.828.136 1.208.21.59.117 1.126.248 1.607.374.315.082.603.168.867.246.396.118.735.224.998.315.455.157.706.25.706.25.403.143.795.302 1.184.457.52.208 1.016.435 1.494.65.397.178.772.364 1.127.537.292.142.563.286.82.418.448.23.826.442 1.138.61l.835.455v-8.04s-.503-.208-1.37-.534c-.382-.146-.834-.317-1.348-.5-.287-.1-.586-.21-.907-.317-.254-.086-.516-.18-.79-.267-.306-.097-.623-.203-.952-.302-.235-.07-.48-.145-.724-.215l-.22-.062c-.238-.068-.48-.136-.728-.202-.29-.077-.587-.153-.888-.227l-.58-.14c-.318-.072-.64-.143-.966-.21-.33-.073-.668-.134-1.007-.196zm-40.205-8.357h63.818v60.058h-63.818v-60.058zm-49.048 33.12v11.8h7.663s.153-.004.404-.014c.258-.01.623-.023 1.065-.06.836-.078 1.928-.23 2.99-.59.963-.324 1.9-.81 2.615-1.526.275-.275.503-.562.687-.852.6-.946.753-1.91.786-2.455.018-.236.017-.375.017-.375s.004-.106 0-.29c-.01-.228-.036-.67-.158-1.142-.144-.56-.415-1.21-.896-1.803-.09-.113-.19-.226-.297-.333-.21-.21-.438-.414-.688-.598-.42-.308-.9-.572-1.42-.798-.688-.297-1.46-.52-2.306-.68-.433-.08-.893-.147-1.362-.19-.29-.03-.58-.05-.883-.067-.262-.017-.538-.028-.81-.028-2.72 0-7.41-.003-7.41-.003zm0-17.945v11.19h3.71s.248 0 .575-.01c.256-.008.562-.026.835-.04.763-.057 1.82-.163 2.876-.458.206-.058.413-.122.616-.194.828-.295 1.622-.726 2.24-1.333.49-.482.815-1.02 1.03-1.542.262-.64.354-1.253.392-1.687.034-.387.032-.633.032-.633s.008-.185-.008-.475c-.026-.488-.127-1.28-.51-2.043-.187-.366-.44-.718-.786-1.06-.417-.41-.923-.727-1.468-.968-1.045-.46-2.24-.644-3.247-.71-.438-.03-.837-.037-1.177-.037h-5.11z" clip-path="url(#SVGID_2_)" class="st0" transform="matrix(.39682 0 0 .39682 .11211 -.022157)"/>
 <path d="m90.413 8.632v43.253h16.283s7.94.22 12.324-4.166c3.568-3.568 3.312-7.697 3.312-7.697s.257-4.31-3.047-7.616c-2.815-2.814-6.41-3.564-6.41-3.564s1.624-.762 2.872-2.01c.584-.585 2.662-2.462 2.662-7.018 0-4.59-3.057-7.23-3.057-7.23s-3.345-3.954-10.9-3.954h-14.04v.002zm-16.74-8.422h63.817v60.058h-63.818v-60.058zm-49.048 33.12v11.8h7.663s.153-.004.404-.014c.26-.01.623-.023 1.065-.06.835-.078 1.928-.23 2.99-.59.963-.324 1.9-.81 2.614-1.526.277-.275.505-.562.687-.852.602-.946.753-1.91.787-2.455.018-.236.016-.375.016-.375s.004-.106 0-.29c-.008-.228-.036-.67-.157-1.142-.144-.56-.414-1.21-.895-1.803-.09-.113-.19-.226-.297-.333-.21-.21-.437-.414-.687-.598-.42-.308-.9-.572-1.42-.798-.688-.297-1.458-.52-2.306-.68-.433-.08-.892-.147-1.362-.19-.29-.03-.58-.05-.883-.067-.262-.017-.538-.028-.81-.028-2.718 0-7.407-.003-7.407-.003zm0-17.945v11.19h3.71s.248 0 .575-.01c.257-.008.562-.026.834-.04.763-.057 1.82-.163 2.876-.458.206-.058.413-.122.616-.194.828-.295 1.622-.726 2.24-1.333.49-.482.814-1.02 1.028-1.542.263-.64.355-1.253.393-1.687.034-.387.032-.633.032-.633s.007-.185-.008-.475c-.026-.488-.128-1.28-.51-2.043-.187-.366-.44-.718-.786-1.06-.417-.41-.923-.727-1.468-.968-1.044-.46-2.24-.644-3.247-.71-.437-.03-.836-.037-1.176-.037h-5.11z" clip-path="url(#SVGID_2_)" class="st0" transform="matrix(.39682 0 0 .39682 .11211 -.022157)"/>
 <path d="m16.878 8.632v43.253h16.282s7.94.22 12.324-4.166c3.57-3.568 3.312-7.697 3.312-7.697s.258-4.31-3.046-7.616c-2.815-2.814-6.41-3.564-6.41-3.564s1.625-.762 2.872-2.01c.583-.585 2.662-2.462 2.662-7.018 0-4.59-3.055-7.23-3.055-7.23s-3.346-3.954-10.902-3.954h-14.04v.002zm-16.74-8.422h63.816v60.058h-63.817v-60.058z" clip-path="url(#SVGID_2_)" class="st0" transform="matrix(.39682 0 0 .39682 .11211 -.022157)"/>
 <path d="m187.41 8.567c-.28-.048-.568-.095-.86-.14l-.346-.05c-.487-.067-.984-.123-1.484-.17-.34-.033-.68-.056-1.018-.076-.603-.037-1.2-.052-1.774-.052-.262 0-.412.005-.668.008-.483.008-.952.03-1.415.06-.264.017-.523.04-.78.062-.38.034-.756.075-1.125.122l-.31.042-.342.05-.423.067c-.186.03-.367.062-.547.095-.25.047-.5.097-.746.148-1.514.32-2.914.746-4.208 1.25-.666.26-1.31.54-1.917.84-.507.247-.996.504-1.464.774-.455.263-.893.528-1.312.81-.242.16-.48.323-.71.49-.198.143-.395.286-.586.434-.403.313-.795.63-1.16.955-.342.303-.675.61-.984.918-.267.267-.534.537-.787.82-.255.287-.51.576-.754.877-.265.328-.526.663-.776 1.01-.184.257-.364.518-.538.784-.12.18-.234.362-.348.546-.666 1.088-1.25 2.254-1.727 3.497-.598 1.55-1.03 3.216-1.267 4.99-.074.557-.132 1.124-.165 1.704-.025.445-.043.896-.043 1.353 0 .342.003.68.025 1.014.023.35.05.694.09 1.036l.025.24c.052.406.114.805.19 1.2.03.152.062.307.095.46.07.328.147.652.233.97.112.413.23.818.364 1.216.165.487.34.964.534 1.426.308.735.644 1.44 1.008 2.103.214.39.433.77.66 1.133.183.292.37.57.56.846.248.36.507.707.762 1.037.27.35.55.677.82.99.34.39.683.748 1.013 1.077l.18.175c.274.264.57.55.913.84.233.198.474.406.737.612.245.192.497.39.768.583.322.23.66.466 1.02.698.38.244.78.49 1.207.728.843.472 1.773.925 2.797 1.337.382.152.778.3 1.188.44.405.138.82.267 1.252.392.734.208 1.507.395 2.318.553.652.127 1.332.232 2.034.317.698.084 1.42.15 2.17.187.363.018.732.032 1.107.038.172.003.347.007.52.007 1.343 0 2.584-.05 3.733-.146l.226-.02c.46-.042.9-.09 1.33-.142.656-.082 1.285-.18 1.88-.285.377-.07.74-.143 1.095-.218.55-.118 1.072-.246 1.572-.378.367-.097.724-.2 1.065-.303.41-.123.807-.254 1.18-.382l.364-.127c.18-.064.427-.152.718-.266.384-.15.848-.333 1.375-.558.313-.135.655-.288 1.004-.45.31-.14.64-.3.968-.46.14-.068.28-.132.42-.203v-8.19c-.094.06-.196.12-.293.178l-.562.34c-.56.34-1.1.658-1.643.954-.595.322-1.175.62-1.75.892-1.014.477-1.983.88-2.924 1.217-1.783.64-3.424 1.05-4.87 1.3-.17.03-.34.058-.506.084-.4.063-.78.11-1.148.15-.572.063-1.1.095-1.58.118-.31.013-.6.02-.87.02-.58 0-1.178-.015-1.787-.058-.713-.05-1.44-.13-2.172-.254-1.185-.198-2.373-.5-3.537-.92-.17-.062-.343-.132-.514-.2-.11-.042-.225-.09-.333-.136-.192-.082-.38-.163-.57-.252-.398-.19-.797-.393-1.185-.612-.19-.11-.378-.224-.578-.347-.194-.123-.39-.25-.578-.38-.24-.168-.476-.338-.708-.52-.22-.175-.45-.362-.64-.53l-.272-.244-.135-.124-.08-.076-.1-.095c-.367-.366-.705-.735-1.012-1.104-.172-.208-.334-.416-.488-.626-.15-.2-.287-.406-.42-.606-.127-.19-.246-.386-.358-.577-.17-.29-.324-.58-.465-.865-.122-.245-.232-.49-.336-.732-.176-.41-.327-.828-.453-1.222-.1-.308-.183-.615-.256-.91-.214-.854-.326-1.637-.388-2.3-.023-.258-.04-.495-.05-.714-.015-.328-.02-.612-.02-.84 0-.15.002-.322.01-.52.018-.468.055-1.06.153-1.736.06-.41.144-.85.252-1.31.073-.307.16-.616.258-.938.09-.292.195-.585.31-.886.075-.203.162-.405.25-.61.12-.277.254-.553.398-.835.108-.21.228-.42.35-.633.27-.467.575-.93.92-1.39.125-.164.253-.33.388-.493.173-.21.357-.425.548-.63.097-.102.193-.21.294-.312 1.5-1.5 3.19-2.624 4.938-3.42.27-.123.548-.234.822-.344.28-.11.553-.208.836-.304.302-.1.61-.194.913-.28.288-.08.58-.15.865-.217.288-.067.58-.123.865-.176.317-.06.633-.106.947-.15.316-.04.63-.074.94-.1.598-.052 1.184-.078 1.755-.078.193 0 .38-.002.57.003.423.01.838.024 1.242.05.282.02.556.037.826.062.517.048 1.015.112 1.488.184.42.063.828.136 1.208.21.59.117 1.126.248 1.607.374.315.082.603.168.867.246.396.118.735.224.998.315.455.157.706.25.706.25.403.143.795.302 1.184.457.52.208 1.016.435 1.494.65.397.178.772.364 1.127.537.292.142.563.286.82.418.448.23.826.442 1.138.61l.835.455v-8.04s-.503-.208-1.37-.534c-.382-.146-.834-.317-1.348-.5-.287-.1-.586-.21-.907-.317-.254-.086-.516-.18-.79-.267-.306-.097-.623-.203-.952-.302-.235-.07-.48-.145-.724-.215l-.22-.062c-.238-.068-.48-.136-.728-.202-.29-.077-.587-.153-.888-.227l-.58-.14c-.318-.072-.64-.143-.966-.21-.33-.073-.668-.134-1.007-.196zm-40.205-8.357h63.818v60.058h-63.818v-60.058zm-49.048 33.12v11.8h7.663s.153-.004.404-.014c.258-.01.623-.023 1.065-.06.836-.078 1.928-.23 2.99-.59.963-.324 1.9-.81 2.615-1.526.275-.275.503-.562.687-.852.6-.946.753-1.91.786-2.455.018-.236.017-.375.017-.375s.004-.106 0-.29c-.01-.228-.036-.67-.158-1.142-.144-.56-.415-1.21-.896-1.803-.09-.113-.19-.226-.297-.333-.21-.21-.438-.414-.688-.598-.42-.308-.9-.572-1.42-.798-.688-.297-1.46-.52-2.306-.68-.433-.08-.893-.147-1.362-.19-.29-.03-.58-.05-.883-.067-.262-.017-.538-.028-.81-.028-2.72 0-7.41-.003-7.41-.003zm0-17.945v11.19h3.71s.248 0 .575-.01c.256-.008.562-.026.835-.04.763-.057 1.82-.163 2.876-.458.206-.058.413-.122.616-.194.828-.295 1.622-.726 2.24-1.333.49-.482.815-1.02 1.03-1.542.262-.64.354-1.253.392-1.687.034-.387.032-.633.032-.633s.008-.185-.008-.475c-.026-.488-.127-1.28-.51-2.043-.187-.366-.44-.718-.786-1.06-.417-.41-.923-.727-1.468-.968-1.045-.46-2.24-.644-3.247-.71-.438-.03-.837-.037-1.177-.037h-5.11z" clip-path="url(#b)" class="st0" transform="matrix(.39682 0 0 .39682 .11211 -.022157)"/>
 <path d="m90.413 8.632v43.253h16.283s7.94.22 12.324-4.166c3.568-3.568 3.312-7.697 3.312-7.697s.257-4.31-3.047-7.616c-2.815-2.814-6.41-3.564-6.41-3.564s1.624-.762 2.872-2.01c.584-.585 2.662-2.462 2.662-7.018 0-4.59-3.057-7.23-3.057-7.23s-3.345-3.954-10.9-3.954h-14.04v.002zm-16.74-8.422h63.817v60.058h-63.818v-60.058zm-49.048 33.12v11.8h7.663s.153-.004.404-.014c.26-.01.623-.023 1.065-.06.835-.078 1.928-.23 2.99-.59.963-.324 1.9-.81 2.614-1.526.277-.275.505-.562.687-.852.602-.946.753-1.91.787-2.455.018-.236.016-.375.016-.375s.004-.106 0-.29c-.008-.228-.036-.67-.157-1.142-.144-.56-.414-1.21-.895-1.803-.09-.113-.19-.226-.297-.333-.21-.21-.437-.414-.687-.598-.42-.308-.9-.572-1.42-.798-.688-.297-1.458-.52-2.306-.68-.433-.08-.892-.147-1.362-.19-.29-.03-.58-.05-.883-.067-.262-.017-.538-.028-.81-.028-2.718 0-7.407-.003-7.407-.003zm0-17.945v11.19h3.71s.248 0 .575-.01c.257-.008.562-.026.834-.04.763-.057 1.82-.163 2.876-.458.206-.058.413-.122.616-.194.828-.295 1.622-.726 2.24-1.333.49-.482.814-1.02 1.028-1.542.263-.64.355-1.253.393-1.687.034-.387.032-.633.032-.633s.007-.185-.008-.475c-.026-.488-.128-1.28-.51-2.043-.187-.366-.44-.718-.786-1.06-.417-.41-.923-.727-1.468-.968-1.044-.46-2.24-.644-3.247-.71-.437-.03-.836-.037-1.176-.037h-5.11z" clip-path="url(#b)" class="st0" transform="matrix(.39682 0 0 .39682 .11211 -.022157)"/>
 <path d="m16.878 8.632v43.253h16.282s7.94.22 12.324-4.166c3.57-3.568 3.312-7.697 3.312-7.697s.258-4.31-3.046-7.616c-2.815-2.814-6.41-3.564-6.41-3.564s1.625-.762 2.872-2.01c.583-.585 2.662-2.462 2.662-7.018 0-4.59-3.055-7.23-3.055-7.23s-3.346-3.954-10.902-3.954h-14.04v.002zm-16.74-8.422h63.816v60.058h-63.817v-60.058z" clip-path="url(#b)" class="st0" transform="matrix(.39682 0 0 .39682 .11211 -.022157)"/>
 <path d="m187.41 8.567c-.28-.048-.568-.095-.86-.14l-.346-.05c-.487-.067-.984-.123-1.484-.17-.34-.033-.68-.056-1.018-.076-.603-.037-1.2-.052-1.774-.052-.262 0-.412.005-.668.008-.483.008-.952.03-1.415.06-.264.017-.523.04-.78.062-.38.034-.756.075-1.125.122l-.31.042-.342.05-.423.067c-.186.03-.367.062-.547.095-.25.047-.5.097-.746.148-1.514.32-2.914.746-4.208 1.25-.666.26-1.31.54-1.917.84-.507.247-.996.504-1.464.774-.455.263-.893.528-1.312.81-.242.16-.48.323-.71.49-.198.143-.395.286-.586.434-.403.313-.795.63-1.16.955-.342.303-.675.61-.984.918-.267.267-.534.537-.787.82-.255.287-.51.576-.754.877-.265.328-.526.663-.776 1.01-.184.257-.364.518-.538.784-.12.18-.234.362-.348.546-.666 1.088-1.25 2.254-1.727 3.497-.598 1.55-1.03 3.216-1.267 4.99-.074.557-.132 1.124-.165 1.704-.025.445-.043.896-.043 1.353 0 .342.003.68.025 1.014.023.35.05.694.09 1.036l.025.24c.052.406.114.805.19 1.2.03.152.062.307.095.46.07.328.147.652.233.97.112.413.23.818.364 1.216.165.487.34.964.534 1.426.308.735.644 1.44 1.008 2.103.214.39.433.77.66 1.133.183.292.37.57.56.846.248.36.507.707.762 1.037.27.35.55.677.82.99.34.39.683.748 1.013 1.077l.18.175c.274.264.57.55.913.84.233.198.474.406.737.612.245.192.497.39.768.583.322.23.66.466 1.02.698.38.244.78.49 1.207.728.843.472 1.773.925 2.797 1.337.382.152.778.3 1.188.44.405.138.82.267 1.252.392.734.208 1.507.395 2.318.553.652.127 1.332.232 2.034.317.698.084 1.42.15 2.17.187.363.018.732.032 1.107.038.172.003.347.007.52.007 1.343 0 2.584-.05 3.733-.146l.226-.02c.46-.042.9-.09 1.33-.142.656-.082 1.285-.18 1.88-.285.377-.07.74-.143 1.095-.218.55-.118 1.072-.246 1.572-.378.367-.097.724-.2 1.065-.303.41-.123.807-.254 1.18-.382l.364-.127c.18-.064.427-.152.718-.266.384-.15.848-.333 1.375-.558.313-.135.655-.288 1.004-.45.31-.14.64-.3.968-.46.14-.068.28-.132.42-.203v-8.19c-.094.06-.196.12-.293.178l-.562.34c-.56.34-1.1.658-1.643.954-.595.322-1.175.62-1.75.892-1.014.477-1.983.88-2.924 1.217-1.783.64-3.424 1.05-4.87 1.3-.17.03-.34.058-.506.084-.4.063-.78.11-1.148.15-.572.063-1.1.095-1.58.118-.31.013-.6.02-.87.02-.58 0-1.178-.015-1.787-.058-.713-.05-1.44-.13-2.172-.254-1.185-.198-2.373-.5-3.537-.92-.17-.062-.343-.132-.514-.2-.11-.042-.225-.09-.333-.136-.192-.082-.38-.163-.57-.252-.398-.19-.797-.393-1.185-.612-.19-.11-.378-.224-.578-.347-.194-.123-.39-.25-.578-.38-.24-.168-.476-.338-.708-.52-.22-.175-.45-.362-.64-.53l-.272-.244-.135-.124-.08-.076-.1-.095c-.367-.366-.705-.735-1.012-1.104-.172-.208-.334-.416-.488-.626-.15-.2-.287-.406-.42-.606-.127-.19-.246-.386-.358-.577-.17-.29-.324-.58-.465-.865-.122-.245-.232-.49-.336-.732-.176-.41-.327-.828-.453-1.222-.1-.308-.183-.615-.256-.91-.214-.854-.326-1.637-.388-2.3-.023-.258-.04-.495-.05-.714-.015-.328-.02-.612-.02-.84 0-.15.002-.322.01-.52.018-.468.055-1.06.153-1.736.06-.41.144-.85.252-1.31.073-.307.16-.616.258-.938.09-.292.195-.585.31-.886.075-.203.162-.405.25-.61.12-.277.254-.553.398-.835.108-.21.228-.42.35-.633.27-.467.575-.93.92-1.39.125-.164.253-.33.388-.493.173-.21.357-.425.548-.63.097-.102.193-.21.294-.312 1.5-1.5 3.19-2.624 4.938-3.42.27-.123.548-.234.822-.344.28-.11.553-.208.836-.304.302-.1.61-.194.913-.28.288-.08.58-.15.865-.217.288-.067.58-.123.865-.176.317-.06.633-.106.947-.15.316-.04.63-.074.94-.1.598-.052 1.184-.078 1.755-.078.193 0 .38-.002.57.003.423.01.838.024 1.242.05.282.02.556.037.826.062.517.048 1.015.112 1.488.184.42.063.828.136 1.208.21.59.117 1.126.248 1.607.374.315.082.603.168.867.246.396.118.735.224.998.315.455.157.706.25.706.25.403.143.795.302 1.184.457.52.208 1.016.435 1.494.65.397.178.772.364 1.127.537.292.142.563.286.82.418.448.23.826.442 1.138.61l.835.455v-8.04s-.503-.208-1.37-.534c-.382-.146-.834-.317-1.348-.5-.287-.1-.586-.21-.907-.317-.254-.086-.516-.18-.79-.267-.306-.097-.623-.203-.952-.302-.235-.07-.48-.145-.724-.215l-.22-.062c-.238-.068-.48-.136-.728-.202-.29-.077-.587-.153-.888-.227l-.58-.14c-.318-.072-.64-.143-.966-.21-.33-.073-.668-.134-1.007-.196zm-40.205-8.357h63.818v60.058h-63.818v-60.058zm-49.048 33.12v11.8h7.663s.153-.004.404-.014c.258-.01.623-.023 1.065-.06.836-.078 1.928-.23 2.99-.59.963-.324 1.9-.81 2.615-1.526.275-.275.503-.562.687-.852.6-.946.753-1.91.786-2.455.018-.236.017-.375.017-.375s.004-.106 0-.29c-.01-.228-.036-.67-.158-1.142-.144-.56-.415-1.21-.896-1.803-.09-.113-.19-.226-.297-.333-.21-.21-.438-.414-.688-.598-.42-.308-.9-.572-1.42-.798-.688-.297-1.46-.52-2.306-.68-.433-.08-.893-.147-1.362-.19-.29-.03-.58-.05-.883-.067-.262-.017-.538-.028-.81-.028-2.72 0-7.41-.003-7.41-.003zm0-17.945v11.19h3.71s.248 0 .575-.01c.256-.008.562-.026.835-.04.763-.057 1.82-.163 2.876-.458.206-.058.413-.122.616-.194.828-.295 1.622-.726 2.24-1.333.49-.482.815-1.02 1.03-1.542.262-.64.354-1.253.392-1.687.034-.387.032-.633.032-.633s.008-.185-.008-.475c-.026-.488-.127-1.28-.51-2.043-.187-.366-.44-.718-.786-1.06-.417-.41-.923-.727-1.468-.968-1.045-.46-2.24-.644-3.247-.71-.438-.03-.837-.037-1.177-.037h-5.11z" clip-path="url(#a)" class="st0" transform="matrix(.39682 0 0 .39682 .11211 -.022157)"/>
 <path d="m90.413 8.632v43.253h16.283s7.94.22 12.324-4.166c3.568-3.568 3.312-7.697 3.312-7.697s.257-4.31-3.047-7.616c-2.815-2.814-6.41-3.564-6.41-3.564s1.624-.762 2.872-2.01c.584-.585 2.662-2.462 2.662-7.018 0-4.59-3.057-7.23-3.057-7.23s-3.345-3.954-10.9-3.954h-14.04v.002zm-16.74-8.422h63.817v60.058h-63.818v-60.058zm-49.048 33.12v11.8h7.663s.153-.004.404-.014c.26-.01.623-.023 1.065-.06.835-.078 1.928-.23 2.99-.59.963-.324 1.9-.81 2.614-1.526.277-.275.505-.562.687-.852.602-.946.753-1.91.787-2.455.018-.236.016-.375.016-.375s.004-.106 0-.29c-.008-.228-.036-.67-.157-1.142-.144-.56-.414-1.21-.895-1.803-.09-.113-.19-.226-.297-.333-.21-.21-.437-.414-.687-.598-.42-.308-.9-.572-1.42-.798-.688-.297-1.458-.52-2.306-.68-.433-.08-.892-.147-1.362-.19-.29-.03-.58-.05-.883-.067-.262-.017-.538-.028-.81-.028-2.718 0-7.407-.003-7.407-.003zm0-17.945v11.19h3.71s.248 0 .575-.01c.257-.008.562-.026.834-.04.763-.057 1.82-.163 2.876-.458.206-.058.413-.122.616-.194.828-.295 1.622-.726 2.24-1.333.49-.482.814-1.02 1.028-1.542.263-.64.355-1.253.393-1.687.034-.387.032-.633.032-.633s.007-.185-.008-.475c-.026-.488-.128-1.28-.51-2.043-.187-.366-.44-.718-.786-1.06-.417-.41-.923-.727-1.468-.968-1.044-.46-2.24-.644-3.247-.71-.437-.03-.836-.037-1.176-.037h-5.11z" clip-path="url(#a)" class="st0" transform="matrix(.39682 0 0 .39682 .11211 -.022157)"/>
 <path d="m16.878 8.632v43.253h16.282s7.94.22 12.324-4.166c3.57-3.568 3.312-7.697 3.312-7.697s.258-4.31-3.046-7.616c-2.815-2.814-6.41-3.564-6.41-3.564s1.625-.762 2.872-2.01c.583-.585 2.662-2.462 2.662-7.018 0-4.59-3.055-7.23-3.055-7.23s-3.346-3.954-10.902-3.954h-14.04v.002zm-16.74-8.422h63.816v60.058h-63.817v-60.058z" clip-path="url(#a)" class="st0" transform="matrix(.39682 0 0 .39682 .11211 -.022157)"/>
 <path d="m187.41 8.567c-.28-.048-.568-.095-.86-.14l-.346-.05c-.487-.067-.984-.123-1.484-.17-.34-.033-.68-.056-1.018-.076-.603-.037-1.2-.052-1.774-.052-.262 0-.412.005-.668.008-.483.008-.952.03-1.415.06-.264.017-.523.04-.78.062-.38.034-.756.075-1.125.122l-.31.042-.342.05-.423.067c-.186.03-.367.062-.547.095-.25.047-.5.097-.746.148-1.514.32-2.914.746-4.208 1.25-.666.26-1.31.54-1.917.84-.507.247-.996.504-1.464.774-.455.263-.893.528-1.312.81-.242.16-.48.323-.71.49-.198.143-.395.286-.586.434-.403.313-.795.63-1.16.955-.342.303-.675.61-.984.918-.267.267-.534.537-.787.82-.255.287-.51.576-.754.877-.265.328-.526.663-.776 1.01-.184.257-.364.518-.538.784-.12.18-.234.362-.348.546-.666 1.088-1.25 2.254-1.727 3.497-.598 1.55-1.03 3.216-1.267 4.99-.074.557-.132 1.124-.165 1.704-.025.445-.043.896-.043 1.353 0 .342.003.68.025 1.014.023.35.05.694.09 1.036l.025.24c.052.406.114.805.19 1.2.03.152.062.307.095.46.07.328.147.652.233.97.112.413.23.818.364 1.216.165.487.34.964.534 1.426.308.735.644 1.44 1.008 2.103.214.39.433.77.66 1.133.183.292.37.57.56.846.248.36.507.707.762 1.037.27.35.55.677.82.99.34.39.683.748 1.013 1.077l.18.175c.274.264.57.55.913.84.233.198.474.406.737.612.245.192.497.39.768.583.322.23.66.466 1.02.698.38.244.78.49 1.207.728.843.472 1.773.925 2.797 1.337.382.152.778.3 1.188.44.405.138.82.267 1.252.392.734.208 1.507.395 2.318.553.652.127 1.332.232 2.034.317.698.084 1.42.15 2.17.187.363.018.732.032 1.107.038.172.003.347.007.52.007 1.343 0 2.584-.05 3.733-.146l.226-.02c.46-.042.9-.09 1.33-.142.656-.082 1.285-.18 1.88-.285.377-.07.74-.143 1.095-.218.55-.118 1.072-.246 1.572-.378.367-.097.724-.2 1.065-.303.41-.123.807-.254 1.18-.382l.364-.127c.18-.064.427-.152.718-.266.384-.15.848-.333 1.375-.558.313-.135.655-.288 1.004-.45.31-.14.64-.3.968-.46.14-.068.28-.132.42-.203v-8.19c-.094.06-.196.12-.293.178l-.562.34c-.56.34-1.1.658-1.643.954-.595.322-1.175.62-1.75.892-1.014.477-1.983.88-2.924 1.217-1.783.64-3.424 1.05-4.87 1.3-.17.03-.34.058-.506.084-.4.063-.78.11-1.148.15-.572.063-1.1.095-1.58.118-.31.013-.6.02-.87.02-.58 0-1.178-.015-1.787-.058-.713-.05-1.44-.13-2.172-.254-1.185-.198-2.373-.5-3.537-.92-.17-.062-.343-.132-.514-.2-.11-.042-.225-.09-.333-.136-.192-.082-.38-.163-.57-.252-.398-.19-.797-.393-1.185-.612-.19-.11-.378-.224-.578-.347-.194-.123-.39-.25-.578-.38-.24-.168-.476-.338-.708-.52-.22-.175-.45-.362-.64-.53l-.272-.244-.135-.124-.08-.076-.1-.095c-.367-.366-.705-.735-1.012-1.104-.172-.208-.334-.416-.488-.626-.15-.2-.287-.406-.42-.606-.127-.19-.246-.386-.358-.577-.17-.29-.324-.58-.465-.865-.122-.245-.232-.49-.336-.732-.176-.41-.327-.828-.453-1.222-.1-.308-.183-.615-.256-.91-.214-.854-.326-1.637-.388-2.3-.023-.258-.04-.495-.05-.714-.015-.328-.02-.612-.02-.84 0-.15.002-.322.01-.52.018-.468.055-1.06.153-1.736.06-.41.144-.85.252-1.31.073-.307.16-.616.258-.938.09-.292.195-.585.31-.886.075-.203.162-.405.25-.61.12-.277.254-.553.398-.835.108-.21.228-.42.35-.633.27-.467.575-.93.92-1.39.125-.164.253-.33.388-.493.173-.21.357-.425.548-.63.097-.102.193-.21.294-.312 1.5-1.5 3.19-2.624 4.938-3.42.27-.123.548-.234.822-.344.28-.11.553-.208.836-.304.302-.1.61-.194.913-.28.288-.08.58-.15.865-.217.288-.067.58-.123.865-.176.317-.06.633-.106.947-.15.316-.04.63-.074.94-.1.598-.052 1.184-.078 1.755-.078.193 0 .38-.002.57.003.423.01.838.024 1.242.05.282.02.556.037.826.062.517.048 1.015.112 1.488.184.42.063.828.136 1.208.21.59.117 1.126.248 1.607.374.315.082.603.168.867.246.396.118.735.224.998.315.455.157.706.25.706.25.403.143.795.302 1.184.457.52.208 1.016.435 1.494.65.397.178.772.364 1.127.537.292.142.563.286.82.418.448.23.826.442 1.138.61l.835.455v-8.04s-.503-.208-1.37-.534c-.382-.146-.834-.317-1.348-.5-.287-.1-.586-.21-.907-.317-.254-.086-.516-.18-.79-.267-.306-.097-.623-.203-.952-.302-.235-.07-.48-.145-.724-.215l-.22-.062c-.238-.068-.48-.136-.728-.202-.29-.077-.587-.153-.888-.227l-.58-.14c-.318-.072-.64-.143-.966-.21-.33-.073-.668-.134-1.007-.196zm-40.205-8.357h63.818v60.058h-63.818v-60.058zm-49.048 33.12v11.8h7.663s.153-.004.404-.014c.258-.01.623-.023 1.065-.06.836-.078 1.928-.23 2.99-.59.963-.324 1.9-.81 2.615-1.526.275-.275.503-.562.687-.852.6-.946.753-1.91.786-2.455.018-.236.017-.375.017-.375s.004-.106 0-.29c-.01-.228-.036-.67-.158-1.142-.144-.56-.415-1.21-.896-1.803-.09-.113-.19-.226-.297-.333-.21-.21-.438-.414-.688-.598-.42-.308-.9-.572-1.42-.798-.688-.297-1.46-.52-2.306-.68-.433-.08-.893-.147-1.362-.19-.29-.03-.58-.05-.883-.067-.262-.017-.538-.028-.81-.028-2.72 0-7.41-.003-7.41-.003zm0-17.945v11.19h3.71s.248 0 .575-.01c.256-.008.562-.026.835-.04.763-.057 1.82-.163 2.876-.458.206-.058.413-.122.616-.194.828-.295 1.622-.726 2.24-1.333.49-.482.815-1.02 1.03-1.542.262-.64.354-1.253.392-1.687.034-.387.032-.633.032-.633s.008-.185-.008-.475c-.026-.488-.127-1.28-.51-2.043-.187-.366-.44-.718-.786-1.06-.417-.41-.923-.727-1.468-.968-1.045-.46-2.24-.644-3.247-.71-.438-.03-.837-.037-1.177-.037h-5.11z" clip-path="url(#a)" class="st0" transform="matrix(.39682 0 0 .39682 .11211 -.022157)"/>
 <path d="m90.413 8.632v43.253h16.283s7.94.22 12.324-4.166c3.568-3.568 3.312-7.697 3.312-7.697s.257-4.31-3.047-7.616c-2.815-2.814-6.41-3.564-6.41-3.564s1.624-.762 2.872-2.01c.584-.585 2.662-2.462 2.662-7.018 0-4.59-3.057-7.23-3.057-7.23s-3.345-3.954-10.9-3.954h-14.04v.002zm-16.74-8.422h63.817v60.058h-63.818v-60.058zm-49.048 33.12v11.8h7.663s.153-.004.404-.014c.26-.01.623-.023 1.065-.06.835-.078 1.928-.23 2.99-.59.963-.324 1.9-.81 2.614-1.526.277-.275.505-.562.687-.852.602-.946.753-1.91.787-2.455.018-.236.016-.375.016-.375s.004-.106 0-.29c-.008-.228-.036-.67-.157-1.142-.144-.56-.414-1.21-.895-1.803-.09-.113-.19-.226-.297-.333-.21-.21-.437-.414-.687-.598-.42-.308-.9-.572-1.42-.798-.688-.297-1.458-.52-2.306-.68-.433-.08-.892-.147-1.362-.19-.29-.03-.58-.05-.883-.067-.262-.017-.538-.028-.81-.028-2.718 0-7.407-.003-7.407-.003zm0-17.945v11.19h3.71s.248 0 .575-.01c.257-.008.562-.026.834-.04.763-.057 1.82-.163 2.876-.458.206-.058.413-.122.616-.194.828-.295 1.622-.726 2.24-1.333.49-.482.814-1.02 1.028-1.542.263-.64.355-1.253.393-1.687.034-.387.032-.633.032-.633s.007-.185-.008-.475c-.026-.488-.128-1.28-.51-2.043-.187-.366-.44-.718-.786-1.06-.417-.41-.923-.727-1.468-.968-1.044-.46-2.24-.644-3.247-.71-.437-.03-.836-.037-1.176-.037h-5.11z" clip-path="url(#a)" class="st0" transform="matrix(.39682 0 0 .39682 .11211 -.022157)"/>
 <path d="m16.878 8.632v43.253h16.282s7.94.22 12.324-4.166c3.57-3.568 3.312-7.697 3.312-7.697s.258-4.31-3.046-7.616c-2.815-2.814-6.41-3.564-6.41-3.564s1.625-.762 2.872-2.01c.583-.585 2.662-2.462 2.662-7.018 0-4.59-3.055-7.23-3.055-7.23s-3.346-3.954-10.902-3.954h-14.04v.002zm-16.74-8.422h63.816v60.058h-63.817v-60.058z" clip-path="url(#a)" class="st0" transform="matrix(.39682 0 0 .39682 .11211 -.022157)"/>
 <path style="fill:#ffffff" d="m41.394 79.073c0-36.745.046-42.796.32734-43.077.28149-.2815 6.6995-.32734 45.827-.32734h45.5v43.077 43.077h-45.827-45.827v-42.75zm51.326 30.606c0-.1273.61103-.22913 1.3748-.22913.76378 0 1.3748-.10184 1.3748-.22914 0-.12602.41245-.22913.91654-.22913.5041 0 .91655-.10312.91655-.22914s.41244-.22914.91654-.22914c.50409 0 .91654-.10311.91654-.22913 0-.12603.30933-.22914.68741-.22914.37807 0 .68740-.10311.68740-.22913 0-.12603.20622-.22914.45827-.22914s.45827-.10311.45827-.22913c0-.12603.20623-.22914.45827-.22914.25205 0 .45828-.10311.45828-.22914 0-.12602.18346-.22913.40768-.22913.22423 0 .55633-.20622.73799-.45827.18167-.25205.4724-.45827.64606-.45827.17367 0 .60472-.30933.95789-.68741.35317-.37807.7628-.6874.91027-.6874.34404 0 .92282-.57585.92282-.91814 0-.14491.41244-.65975.91654-1.1441.5041-.48433.91654-1.0434.91654-1.2423 0-.19891.10311-.36166.22913-.36166.12603 0 .22914-.20622.22914-.45827s.10311-.45828.22913-.45828c.12603 0 .22914-.20622.22914-.45827 0-.25204.10311-.45827.22914-.45827.12602 0 .22913-.20622.22913-.45827s.10311-.45827.22914-.45827c.12602 0 .22913-.41244.22913-.91654s.10311-.91654.22914-.91654c.14257 0 .22913-1.2984.22913-3.437s-.0866-3.437-.22913-3.437c-.12603 0-.22914-.30933-.22914-.6874 0-.37808-.10311-.68741-.22913-.68741-.12603 0-.22914-.30933-.22914-.68741 0-.37807-.10311-.6874-.22913-.6874-.12603 0-.22914-.20622-.22914-.45827s-.10311-.45828-.22914-.45828c-.12602 0-.22913-.18345-.22913-.40768s-.20622-.55632-.45827-.73799-.45827-.46412-.45827-.62767c0-.38751-2.8801-3.2676-3.2676-3.2676-.16355 0-.446-.20622-.62766-.45827-.18167-.25205-.49101-.45827-.68741-.45827-.19641 0-.50574-.20622-.68741-.45827s-.51376-.45827-.73799-.45827-.40769-.10311-.40769-.22913c0-.12603-.20622-.22914-.45827-.22914s-.45827-.10311-.45827-.22913c0-.12603-.30933-.22914-.6874-.22914-.37808 0-.68741-.10311-.68741-.22914 0-.12602-.30933-.22913-.68741-.22913-.47215 0-.6874-.11275-.6874-.36007 0-.44163.54454-1.0147.96416-1.0147.17021 0 .45812-.20623.63979-.45828.18166-.25204.46444-.45827.62840-.45827.16395 0 .86297-.56487 1.5534-1.2553.6904-.6904 1.2553-1.3894 1.2553-1.5534 0-.16396.20622-.44674.45827-.62841.26911-.19397.45827-.59316.45827-.96713 0-.35025.10311-.63682.22914-.63682.12602 0 .22913-.20622.22913-.45827s.10311-.45827.22914-.45827c.12602 0 .22913-.51555.22913-1.1457 0-.63012.10311-1.1457.22914-1.1457.14002 0 .22913-1.0693.22913-2.7496s-.0891-2.7496-.22913-2.7496c-.12603 0-.22914-.41244-.22914-.91654s-.10311-.91654-.22913-.91654c-.12603 0-.22914-.30933-.22914-.68741 0-.37807-.10311-.6874-.22913-.6874-.12603 0-.22914-.20622-.22914-.45827s-.10311-.45827-.22914-.45827c-.12602 0-.22913-.16486-.22913-.36634 0-.20149-.30933-.65531-.68741-1.0085-.37807-.35317-.6874-.75767-.6874-.89888 0-.35862-2.4447-2.7673-2.8086-2.7673-.16396 0-.44674-.20622-.62841-.45827-.18166-.25205-.51376-.45827-.73799-.45827-.22422 0-.40768-.10311-.40768-.22913 0-.12603-.20623-.22914-.45827-.22914-.25205 0-.45828-.10311-.45828-.22913 0-.12603-.20622-.22914-.45827-.22914-.25204 0-.45827-.10311-.45827-.22913 0-.12603-.20622-.22914-.45827-.22914s-.45827-.10311-.45827-.22914c0-.12602-.30933-.22913-.68741-.22913-.37807 0-.6874-.10311-.6874-.22914 0-.12602-.41245-.22913-.91654-.22913-.5041 0-.91655-.10311-.91655-.22914 0-.12602-.51555-.22913-1.1457-.22913-.63013 0-1.1457-.10312-1.1457-.22914 0-.14982-4.1244-.22913-11.915-.22913h-11.915v30.933 30.933h13.519c8.8599 0 13.519-.079 13.519-.22914zm-16.039-17.873v-8.478h6.8741c4.43 0 6.8741.0815 6.8741.22914 0 .12602.51556.22913 1.1457.22913.63012 0 1.1457.10311 1.1457.22914 0 .12602.41244.22913.91654.22913s.91654.10311.91654.22914c0 .12602.20622.22913.45827.22913s.45827.10311.45827.22914c0 .12602.16486.22913.36634.22913.20149 0 .6553.30934 1.0085.68741.35318.37807.80699.68741 1.0085.68741.20148 0 .36634.18346.36634.40768 0 .22423.20622.55633.45827.73799.25205.18167.45827.51377.45827.73799 0 .22423.10311.40769.22914.40769.12602 0 .22913.30933.22913.68741 0 .37807.10311.68741.22914.68741.12729 0 .22913.61102.22913 1.3748s-.10184 1.3748-.22913 1.3748c-.12603 0-.22914.41245-.22914.91654 0 .5041-.10311.91654-.22913.91654-.12603 0-.22914.20623-.22914.45828 0 .25204-.10311.45827-.22914.45827-.12602 0-.22913.1581-.22913.35134 0 .45607-1.4839 1.94-1.94 1.94-.19323 0-.35134.10311-.35134.22914 0 .12602-.20622.22913-.45827.22913s-.45827.10311-.45827.22914c0 .12602-.20622.22913-.45827.22913s-.45827.10311-.45827.22914c0 .12602-.30933.22913-.68741.22913-.37807 0-.6874.10311-.6874.22914 0 .12602-.51556.22913-1.1457.22913-.63012 0-1.1457.10312-1.1457.22914 0 .14783-2.5205.22914-7.1032.22914h-7.1032v-8.478zm0-26.121v-8.0197h5.4992c3.5134 0 5.4992.0827 5.4992.22913 0 .12603.41245.22914.91655.22914s.91654.10311.91654.22913c0 .12603.20622.22914.45827.22914s.45827.10311.45827.22913c0 .12603.18346.22914.40769.22914s.55632.20622.73799.45827.51376.45827.73799.45827c.23807 0 .40769.16962.40769.40769 0 .22423.20622.55632.45827.73799s.45827.51376.45827.73799.10311.40769.22913.40769c.14101 0 .22914 1.1457.22914 2.9788s-.0881 2.9788-.22914 2.9788c-.12602 0-.22913.20622-.22913.45827s-.10311.45827-.22914.45827c-.12602 0-.22913.15738-.22913.34974 0 .4547-1.9452 2.3999-2.3999 2.3999-.19236 0-.34974.10311-.34974.22913 0 .12603-.20622.22914-.45827.22914s-.45827.10311-.45827.22913c0 .12603-.30933.22914-.68741.22914-.37807 0-.6874.10311-.6874.22913 0 .12603-.51556.22914-1.1457.22914-.63012 0-1.1457.10311-1.1457.22913 0 .14512-1.6803.22914-4.5827.22914h-4.5827v-8.0197zm70.115 13.388c0-36.745.046-42.796.32734-43.077.28149-.2815 6.6995-.32734 45.827-.32734h45.5v43.077 43.077h-45.827-45.827v-42.75zm51.32 30.606c0-.1273.61103-.22913 1.3748-.22913.76379 0 1.3748-.10184 1.3748-.22914 0-.12602.41244-.22913.91653-.22913.50411 0 .91655-.10312.91655-.22914s.41244-.22914.91653-.22914c.50412 0 .91656-.10311.91656-.22913 0-.12603.30933-.22914.68739-.22914.37807 0 .68743-.10311.68743-.22913 0-.12603.20621-.22914.45826-.22914s.45827-.10311.45827-.22913c0-.12603.20622-.22914.45826-.22914.25205 0 .45829-.10311.45829-.22914 0-.12602.18344-.22913.40767-.22913s.55634-.20622.73799-.45827c.18168-.25205.4703-.45827.64139-.45827s.70736-.41245 1.1917-.91654c.48434-.5041 1.0434-.91655 1.2423-.91655.19891 0 .36166-.16275.36166-.36166 0-.19892.41244-.75795.91655-1.2423.50409-.48433.91653-1.0434.91653-1.2423 0-.19891.10311-.36166.22914-.36166.12602 0 .22913-.20622.22913-.45827s.10311-.45828.22913-.45828.22913-.20622.22913-.45827c0-.25204.10314-.45827.22916-.45827s.22913-.30933.22913-.6874c0-.37808.10311-.68741.22913-.68741.12603 0 .22914-.30933.22914-.68741 0-.37807.10311-.6874.22913-.6874.14257 0 .22913-1.2984.22913-3.437s-.0866-3.437-.22913-3.437c-.12602 0-.22913-.30933-.22913-.6874 0-.37808-.10311-.68741-.22914-.68741-.12602 0-.22913-.30933-.22913-.68741 0-.37807-.10311-.6874-.22913-.6874s-.22916-.20622-.22916-.45827-.10311-.45828-.22913-.45828-.22913-.18345-.22913-.40768-.20622-.55632-.45827-.73799c-.25204-.18167-.45826-.46412-.45826-.62767 0-.38751-2.8801-3.2676-3.2676-3.2676-.16355 0-.44601-.20622-.62766-.45827-.18168-.25205-.49101-.45827-.68742-.45827-.19639 0-.50575-.20622-.6874-.45827-.18168-.25205-.51376-.45827-.73799-.45827s-.4077-.10311-.4077-.22913c0-.12603-.20622-.22914-.45826-.22914-.25205 0-.45827-.10311-.45827-.22913 0-.12603-.30933-.22914-.68742-.22914-.37807 0-.6874-.10311-.6874-.22914 0-.12602-.30933-.22913-.6874-.22913-.47217 0-.68742-.11275-.68742-.36007 0-.44163.54456-1.0147.96417-1.0147.17022 0 .45813-.20623.63978-.45828.18168-.25204.46446-.45827.62842-.45827.38822 0 2.8086-2.4204 2.8086-2.8086 0-.16396.20622-.44674.45827-.62841.26911-.19397.45828-.59316.45828-.96713 0-.35025.10311-.63682.22914-.63682.12602 0 .22913-.20622.22913-.45827s.10311-.45827.22913-.45827c.12603 0 .22913-.51555.22913-1.1457 0-.63012.10311-1.1457.22914-1.1457.14002 0 .22913-1.0693.22913-2.7496s-.0891-2.7496-.22913-2.7496c-.12603 0-.22914-.41244-.22914-.91654s-.1031-.91654-.22913-.91654c-.12602 0-.22913-.20622-.22913-.45827s-.10311-.45827-.22913-.45827c-.12603 0-.22914-.28657-.22914-.63682 0-.37397-.18917-.77316-.45828-.96713-.25205-.18167-.45827-.491-.45827-.68741 0-.1964-.20622-.50574-.45826-.6874-.25205-.18167-.45827-.46492-.45827-.62946 0-.36555-1.9488-2.3493-2.308-2.3493-.14181 0-.54678-.30933-.89994-.6874-.35319-.37808-.80699-.68741-1.0085-.68741-.20148 0-.36634-.10311-.36634-.22913 0-.12603-.20622-.22914-.45827-.22914-.25204 0-.45826-.10311-.45826-.22913 0-.12603-.20622-.22914-.45829-.22914-.25205 0-.45827-.10311-.45827-.22913 0-.12603-.20622-.22914-.45826-.22914-.25205 0-.45827-.10311-.45827-.22914 0-.12602-.30933-.22913-.68742-.22913-.37807 0-.6874-.10311-.6874-.22914 0-.12602-.41244-.22913-.91655-.22913-.50409 0-.91653-.10311-.91653-.22914 0-.12602-.51555-.22913-1.1457-.22913-.63011 0-1.1457-.10312-1.1457-.22914 0-.14982-4.1244-.22913-11.915-.22913h-11.915v30.933 30.933h13.519c8.8599 0 13.519-.079 13.519-.22914zm-16.039-17.873v-8.478h6.8741c4.4299 0 6.874.0815 6.874.22914 0 .12602.51557.22913 1.1457.22913.63011 0 1.1457.10311 1.1457.22914 0 .12602.30935.22913.68742.22913s.6874.10311.6874.22914c0 .12602.30933.22913.68742.22913.37807 0 .6874.10311.6874.22914 0 .12602.16486.22913.36634.22913.20147 0 .65529.30934 1.0085.68741.35316.37807.80698.68741 1.0085.68741.2015 0 .36633.18346.36633.40768 0 .22423.20622.55633.45829.73799.25205.18167.45827.51377.45827.73799 0 .22423.10311.40769.22913.40769s.22913.41245.22913.91654c0 .5041.10311.91655.22913.91655.12603 0 .22914.51555.22914 1.1457 0 .63013-.10311 1.1457-.22914 1.1457-.12602 0-.22913.41245-.22913.91654 0 .5041-.10311.91654-.22913.91654s-.22913.18346-.22913.40769-.20622.55632-.45827.73799c-.25207.18167-.45829.46957-.45829.63979 0 .39884-.56531.96416-.96414.96416-.17022 0-.45813.20622-.63979.45827-.18167.25205-.51378.45827-.73799.45827-.22423 0-.40769.10311-.40769.22914 0 .12602-.20622.22913-.45827.22913-.25204 0-.45829.10311-.45829.22914 0 .12602-.30932.22913-.68739.22913s-.6874.10311-.6874.22914c0 .12602-.51557.22913-1.1457.22913-.63011 0-1.1457.10312-1.1457.22914 0 .14783-2.5205.22914-7.1032.22914h-7.1032v-8.478zm0-26.121v-8.0197h5.4992c3.5134 0 5.4993.0827 5.4993.22913 0 .12603.41243.22914.91653.22914.50411 0 .91655.10311.91655.22913 0 .12603.20622.22914.45827.22914.25204 0 .45826.10311.45826.22913 0 .12603.18347.22914.4077.22914s.55631.20622.73799.45827c.18165.25205.51376.45827.73799.45827.23807 0 .40767.16962.40767.40769 0 .22423.20624.55632.45829.73799.25204.18167.45826.51376.45826.73799s.10311.40769.22914.40769c.141 0 .22913 1.1457.22913 2.9788s-.0881 2.9788-.22913 2.9788c-.12603 0-.22914.20622-.22914.45827s-.10311.45827-.22913.45827-.22913.15738-.22913.34974c0 .4547-1.9452 2.3999-2.3999 2.3999-.19236 0-.34975.10311-.34975.22913 0 .12603-.20622.22914-.45826.22914-.25205 0-.45827.10311-.45827.22913 0 .12603-.30933.22914-.68742.22914-.37807 0-.6874.10311-.6874.22913 0 .12603-.51555.22914-1.1457.22914-.63011 0-1.1457.10311-1.1457.22913 0 .14512-1.6803.22914-4.5827.22914h-4.5827v-8.0197zm70.115 13.388c0-36.745.046-42.796.32733-43.077.28149-.2815 6.6995-.32734 45.827-.32734h45.5v43.077 43.077h-45.827-45.827v-42.75zm52.701 31.522c0-.13887.99293-.22913 2.5205-.22913s2.5205-.0903 2.5205-.22914c0-.1273.61103-.22913 1.3748-.22913s1.3748-.10184 1.3748-.22914c0-.12602.41244-.22913.91653-.22913s.91655-.10312.91655-.22914.41244-.22913.91653-.22913c.5041 0 .91654-.10312.91654-.22914s.30935-.22914.68742-.22914c.37806 0 .68739-.10311.68739-.22913 0-.12603.30933-.22914.68742-.22914.37807 0 .6874-.10311.6874-.22913 0-.12603.30933-.22914.6874-.22914.37809 0 .68742-.10311.68742-.22913 0-.12603.20622-.22914.45827-.22914.25204 0 .45826-.10311.45826-.22914 0-.12602.30933-.22913.68742-.22913.37807 0 .6874-.10311.6874-.22914 0-.12602.20622-.22913.45827-.22913.25204 0 .45826-.10311.45826-.22914 0-.12602.20624-.22913.45829-.22913s.45827-.10311.45827-.22914c0-.12602.20622-.22913.45826-.22913.44651 0 .45827-.15276.45827-5.9575 0-3.2766-.0804-5.9575-.17854-5.9575-.0982 0-.32721.20622-.50886.45827-.18166.25205-.51376.45827-.73799.45827-.22421 0-.4077.10311-.4077.22914 0 .12602-.18346.22913-.40767.22913-.22423 0-.55633.20623-.73799.45828-.18166.25204-.51376.45827-.73801.45827-.22421 0-.40768.10311-.40768.22913 0 .12603-.20622.22914-.45826.22914-.25205 0-.45827.10311-.45827.22913 0 .12603-.20622.22914-.45829.22914-.25204 0-.45826.10311-.45826.22913 0 .12603-.30933.22914-.6874.22914s-.68742.10311-.68742.22914c0 .12602-.20622.22913-.45827.22913-.25204 0-.45826.10311-.45826.22914 0 .12602-.20622.22913-.45827.22913-.25204 0-.45828.10311-.45828.22914 0 .12602-.30933.22913-.6874.22913s-.6874.10311-.6874.22914c0 .12602-.30933.22913-.68742.22913-.37807 0-.6874.10311-.6874.22914 0 .12602-.30933.22913-.6874.22913-.37809 0-.68742.10311-.68742.22914 0 .12602-.41244.22913-.91653.22913s-.91655.10312-.91655.22914c0 .1273-.61103.22914-1.3748.22914-.76379 0-1.3748.10183-1.3748.22913 0 .14639-1.9858.22914-5.4992.22914s-5.4992-.0828-5.4992-.22914c0-.12602-.41244-.22913-.91653-.22913-.50412 0-.91656-.10312-.91656-.22914s-.41244-.22914-.91653-.22914c-.50411 0-.91655-.10311-.91655-.22913 0-.12603-.30933-.22914-.6874-.22914-.37809 0-.68742-.10311-.68742-.22913 0-.12603-.30933-.22914-.6874-.22914s-.6874-.10311-.6874-.22913c0-.12603-.20624-.22914-.45829-.22914-.25204 0-.45826-.10311-.45826-.22913 0-.12603-.20622-.22914-.45827-.22914-.25204 0-.45826-.10311-.45826-.22913 0-.12603-.18347-.22914-.40769-.22914-.22423 0-.55633-.20622-.73799-.45827s-.4703-.45827-.64139-.45827-.70735-.41245-1.1917-.91654c-.48434-.5041-.99526-.91655-1.1354-.91655-.33391 0-1.8434-1.5133-1.8434-1.8481 0-.14267-.30932-.54837-.68739-.90154s-.6874-.78423-.6874-.95789c0-.17367-.20622-.46439-.45829-.64606-.25205-.18167-.45827-.51376-.45827-.73799s-.10311-.40769-.22913-.40769-.22913-.20622-.22913-.45827-.10311-.45827-.22913-.45827c-.12603 0-.22914-.20622-.22914-.45827s-.10311-.45827-.22913-.45827-.22915-.30933-.22915-.68741c0-.37807-.10311-.6874-.22914-.6874-.12602 0-.22913-.30934-.22913-.68741s-.10311-.68741-.22913-.68741c-.12603 0-.22914-.51555-.22914-1.1457 0-.63013-.1031-1.1457-.22913-1.1457-.14183 0-.22913-1.2221-.22913-3.2079s.0873-3.2079.22913-3.2079c.12603 0 .22913-.51556.22913-1.1457 0-.63013.10311-1.1457.22914-1.1457.12602 0 .22913-.30933.22913-.68741 0-.37807.10311-.6874.22913-.6874.12603 0 .22914-.30934.22914-.68741s.10313-.68741.22915-.68741.22913-.20622.22913-.45827.10311-.45827.22914-.45827c.12602 0 .22913-.20622.22913-.45827s.10311-.45827.22913-.45827.22913-.20622.22913-.45827.10311-.45827.22914-.45827c.12602 0 .22913-.18346.22913-.40769s.20624-.55632.45829-.73799c.25204-.18167.45826-.46368.45826-.62669 0-.38657 3.7986-4.1852 4.1852-4.1852.163 0 .44502-.20623.6267-.45828.18165-.25204.49098-.45827.6874-.45827.19641 0 .50574-.20622.68739-.45827.18166-.25205.51378-.45827.73801-.45827.22421 0 .40767-.10311.40767-.22913 0-.12603.20622-.22914.45827-.22914s.45826-.10311.45826-.22914c0-.12602.20622-.22913.45829-.22913.25205 0 .45827-.10311.45827-.22914 0-.12602.20622-.22913.45826-.22913.25205 0 .45827-.10311.45827-.22914 0-.12602.30933-.22913.68742-.22913.37807 0 .6874-.10311.6874-.22914 0-.12602.41244-.22913.91655-.22913.50409 0 .91653-.10311.91653-.22914 0-.12602.41244-.22913.91656-.22913.50409 0 .91653-.10311.91653-.22914 0-.14665 2.0622-.22913 5.7284-.22913s5.7284.0825 5.7284.22913c0 .12603.51555.22914 1.1457.22914.63012 0 1.1457.10311 1.1457.22913 0 .12603.41246.22914.91655.22914s.91653.10311.91653.22913c0 .12603.30933.22914.68742.22914.37807 0 .6874.10311.6874.22913 0 .12603.30933.22914.6874.22914.37809 0 .68742.10311.68742.22913 0 .12603.30933.22914.6874.22914s.6874.10311.6874.22913c0 .12603.20624.22914.45828.22914.25205 0 .45827.10311.45827.22914 0 .12602.30933.22913.6874.22913.37809 0 .68742.10311.68742.22914 0 .12602.20622.22913.45826.22913.25205 0 .45827.10311.45827.22914 0 .12602.20622.22913.45826.22913.25207 0 .45829.10311.45829.22914 0 .12602.20622.22913.45827.22913.25204 0 .45826.10312.45826.22914s.20622.22914.45827.22914c.25207 0 .45829.10311.45829.22913 0 .12603.20622.22914.45826.22914.25205 0 .45827.10311.45827.22913 0 .12603.20622.22914.45826.22914.25207 0 .45829.10311.45829.22913 0 .12603.20622.22914.45827.22914.44529 0 .45826-.15276.45826-5.401 0-5.6393-.0698-6.0557-1.0147-6.0557-.19806 0-.36008-.10311-.36008-.22913 0-.12603-.30933-.22914-.6874-.22914-.37806 0-.68739-.10311-.68739-.22913 0-.12603-.30933-.22914-.68742-.22914-.37807 0-.6874-.10311-.6874-.22913 0-.12603-.30933-.22914-.6874-.22914-.37809 0-.68742-.10311-.68742-.22913 0-.12603-.20622-.22914-.45827-.22914-.25204 0-.45826-.10311-.45826-.22913 0-.12603-.41246-.22914-.91656-.22914-.50409 0-.91653-.10311-.91653-.22914 0-.12602-.30933-.22913-.68742-.22913-.37807 0-.6874-.10311-.6874-.22914 0-.12602-.41243-.22913-.91653-.22913-.50411 0-.91655-.10311-.91655-.22914 0-.12602-.41244-.22913-.91653-.22913-.50412 0-.91655-.10312-.91655-.22914 0-.1273-.61103-.22913-1.3748-.22913s-1.3748-.10184-1.3748-.22914c0-.13366-.76379-.22914-1.8331-.22914s-1.8331-.0955-1.8331-.22913c0-.14185-1.222-.22914-3.2079-.22914-1.9858 0-3.2079.0873-3.2079.22914 0 .13578-.84016.22913-2.0622.22913-1.2221 0-2.0622.0934-2.0622.22914 0 .12602-.51555.22914-1.1457.22914-.63012 0-1.1457.10311-1.1457.22913s-.41244.22914-.91655.22914c-.50409 0-.91653.10311-.91653.22913 0 .12603-.30933.22914-.68742.22914-.37807 0-.6874.10311-.6874.22913 0 .12603-.30933.22914-.6874.22914s-.68741.10311-.68741.22913c0 .12603-.30933.22914-.6874.22914s-.6874.10311-.6874.22914c0 .12602-.20622.22913-.45829.22913-.25204 0-.45826.10311-.45826.22914 0 .12602-.20622.22913-.45827.22913-.25204 0-.45826.10311-.45826.22914 0 .12602-.20622.22913-.45829.22913-.25205 0-.45827.10311-.45827.22914 0 .12602-.20622.22913-.45826.22913-.25205 0-.45827.10311-.45827.22914 0 .12602-.20622.22913-.45829.22913-.25204 0-.45826.10311-.45826.22914s-.18347.22913-.40767.22913c-.22423 0-.55634.20623-.73799.45828-.18168.25205-.49101.45827-.68743.45827-.19641 0-.50574.20622-.68739.45827-.18166.25205-.4689.45827-.6383.45827-.16942 0-.81017.51555-1.4239 1.1457-.61378.63012-1.2292 1.1457-1.3676 1.1457-.32903 0-1.8403 1.5138-1.8403 1.8434 0 .14011-.41244.65102-.91653 1.1354-.50412.48434-.91656 1.002-.91656 1.1504 0 .14836-.30933.5587-.6874.91187-.37809.35318-.68742.80699-.68742 1.0085 0 .20148-.10311.36634-.22913.36634s-.22913.20622-.22913.45827-.10311.45827-.22913.45827c-.12603 0-.22914.18346-.22914.40769 0 .22422-.20622.55632-.45826.73799-.26914.19396-.45829.59316-.45829.96712 0 .35026-.10311.63682-.22913.63682-.12603 0-.22914.20623-.22914.45828 0 .25204-.10311.45827-.22913.45827s-.22913.30933-.22913.6874c0 .37808-.10311.68741-.22913.68741-.12603 0-.22914.30933-.22914.68741 0 .37807-.10311.6874-.22915.6874-.12603 0-.22914.30934-.22914.68741s-.10311.68741-.22913.68741-.22913.51555-.22913 1.1457c0 .63013-.10311 1.1457-.22913 1.1457-.13888 0-.22914.99292-.22914 2.5205s-.0903 2.5205-.22913 2.5205c-.12602 0-.22913.30933-.22913.68741 0 .37807.10311.6874.22913.6874.13579 0 .22913.84017.22913 2.0622 0 1.2221.0933 2.0622.22914 2.0622.12602 0 .22913.41245.22913.91654 0 .5041.10311.91655.22913.91655s.22913.41244.22913.91654.10311.91654.22914.91654c.12604 0 .22915.30934.22915.68741s.10311.6874.22914.6874c.12602 0 .22913.20623.22913.45828 0 .25204.10311.45827.22913.45827s.22913.20622.22913.45827.10311.45827.22914.45827c.12602 0 .22913.20622.22913.45827s.10311.45827.22913.45827.22916.20622.22916.45827.10311.45827.22913.45827.22913.20622.22913.45827.10311.45827.22914.45827c.12602 0 .22913.18346.22913.40769s.20622.55632.45826.73799c.25205.18167.45829.491.45829.68741 0 .1964.20622.50574.45827.6874.25204.18167.45826.46322.45826.62567 0 .38556 5.6337 6.0193 6.0192 6.0193.16245 0 .44403.20622.62569.45827s.49099.45828.6874.45828.50574.20622.6874.45827c.18165.25205.49101.45827.68742.45827s.50574.20622.6874.45827c.18165.25205.51376.45827.73799.45827s.40769.10311.40769.22913c0 .12603.20622.22914.45827.22914.25204 0 .45826.10311.45826.22913 0 .12603.20622.22914.45827.22914.25207 0 .45829.10311.45829.22914 0 .12602.30933.22913.68739.22913.37807 0 .6874.10311.6874.22914 0 .12602.20622.22913.45829.22913.25205 0 .45827.10311.45827.22914 0 .12602.30933.22913.68739.22913.37807 0 .68742.10312.68742.22914s.41244.22914.91653.22914.91655.10311.91655.22913.41244.22914.91653.22914c.5041 0 .91656.10311.91656.22913 0 .12603.51555.22914 1.1457.22914.63014 0 1.1457.10311 1.1457.22913 0 .13578.84016.22914 2.0622.22914 1.2221 0 2.0622.0933 2.0622.22913 0 .14185 1.2221.22914 3.2079.22914s3.2079-.0873 3.2079-.22914z"/>
 <g style="fill:#000000">
  <path style="fill:#ffffff" d="m84.59 293.89q-7.158-11.47-14.498-22.94-7.341-11.56-14.499-22.39v45.33h-13.581v-65.609h14.315q7.4326 11.103 14.59 22.298 7.2491 11.103 14.406 22.573v-44.871h13.581v65.609h-14.315z"/>
  <path style="fill:#ffffff" d="m112.98 228.28h45.146v11.745h-31.015v14.223h27.528v11.745h-27.528v16.15h32.758v11.745h-46.89v-65.609z"/>
  <path style="fill:#ffffff" d="m220.08 293.89q-3.1198-11.103-6.1479-22.206-2.9363-11.103-5.7809-22.206-2.7528 11.103-5.6892 22.206-2.9363 11.103-6.0562 22.206h-14.957q-4.6798-16.058-8.9925-32.483t-8.1667-33.125h15.416q2.294 12.755 4.8633 25.509 2.5693 12.755 5.4139 25.051 6.1479-23.949 11.654-47.807h13.764q2.7528 11.745 5.5974 23.491 2.9363 11.654 5.9644 23.307 2.7528-12.112 5.3221-24.592 2.5693-12.479 4.7715-24.959h15.14q-3.8539 16.7-8.1667 33.125-4.3127 16.425-8.9925 32.483h-14.957z"/>
  <path style="fill:#ffffff" d="m279.2 295.27q-5.4139 0-10.736-1.1929-5.2303-1.1929-10.094-3.7622v-12.663q9.8184 5.9644 20.83 5.9644 6.2397 0 9.4513-2.1105 3.3034-2.1105 3.3034-5.8727 0-2.8446-1.6517-4.4045-1.5599-1.6517-4.221-2.5693-2.661-1.0094-5.9644-1.8352-5.4139-1.2846-9.5431-2.9363t-6.9738-3.8539q-2.8446-2.294-4.3127-5.4139-1.4682-3.2116-1.4682-7.6161 0-6.2397 3.1198-10.736 3.2116-4.4962 8.9925-6.882 5.7809-2.4775 13.764-2.4775 5.2303 0 10.277 1.1929 5.0468 1.1929 9.0843 3.2116v12.479q-4.0375-2.4775-9.176-3.8539-5.0468-1.3764-10.185-1.3764-5.5974 0-8.7172 1.927-3.0281 1.927-3.0281 5.5056 0 2.5693 1.4682 4.1292 1.4682 1.4682 4.1292 2.4775 2.7528.9176 6.4232 1.8352 4.6798 1.1929 8.7172 2.661 4.0374 1.3764 7.0655 3.5786 3.1199 2.2022 4.7715 5.5974 1.7434 3.3951 1.7434 8.3502 0 6.515-3.2116 11.195-3.2116 4.588-9.2678 7.0656-6.0562 2.3858-14.59 2.3858z"/>
 </g>
 <g style="fill:#404040">
  <path style="fill:#404040" d="m1368.4 103.34q-3.9001 2.475-8.7751 3.75-4.8751 1.2-10.875 1.2-6 0-10.8-1.875-4.7251-1.875-8.1001-5.4001-3.375-3.525-5.1751-8.4751-1.8-5.0251-1.8-11.25 0-6.4501 1.95-11.775 2.0251-5.3251 5.7001-9.1501 3.6751-3.825 8.7751-5.8501 5.1001-2.1 11.25-2.1 5.025 0 9.3751 1.125 4.425 1.125 8.0251 3.375l.45 13.125h-5.4001l-1.95-10.35q-1.95-1.275-4.5751-1.8-2.55-.60001-5.925-.60001-4.5001 0-8.1751 1.65-3.6001 1.575-6.1501 4.6501-2.55 3-3.9751 7.3501-1.35 4.2751-1.35 9.6001 0 7.2001 2.25 12.375 2.2501 5.1001 6.4501 7.8001 4.2751 2.7 10.275 2.7 3.8251 0 6.5251-.6 2.7001-.67501 4.7251-2.175v-12.825l-6.8251-.45001v-4.2001h19.5v4.2001l-5.4.45001v15.525z"/>
  <path style="fill:#404040" d="m1384 56.09-5.775-0.375v-3.825l11.4-1.05h1.575v52.051l5.3251.375v3.9h-17.85v-3.9l5.325-.375v-46.801z"/>
  <path style="fill:#404040" d="m1420.7 108.14q-5.625 0-9.6001-2.325-3.975-2.325-6.075-6.6751-2.1001-4.3501-2.1001-10.425 0-6.4501 2.3251-11.175 2.4-4.7251 6.675-7.2751 4.3501-2.55 10.35-2.55 5.55 0 9.5251 2.325 4.05 2.325 6.1501 6.6751 2.1 4.3501 2.1 10.425 0 6.5251-2.4 11.25-2.3251 4.6501-6.6751 7.2001-4.3501 2.55-10.275 2.55zm1.0501-35.85q-5.3251 0-8.3251 4.2001-2.9251 4.2001-2.9251 11.775 0 7.3501 2.7751 11.325 2.85 3.9751 7.9501 3.9751 5.325 0 8.2501-4.2001 3-4.2001 3-11.775 0-7.2751-2.85-11.25-2.7751-4.05-7.8751-4.05z"/>
  <path style="fill:#404040" d="m1485.5 86.991q0 6.6751-2.475 11.475-2.4 4.7251-7.0501 7.2001-4.575 2.475-11.1 2.475-3.7501 0-7.2001-.82501-3.4501-.75001-7.0501-2.4v-48.826l-5.7751-0.375v-3.825l11.4-1.05h1.575v22.2q5.0251-5.3251 11.925-5.3251 4.8751 0 8.4001 2.4 3.5251 2.325 5.4001 6.6751 1.95 4.2751 1.95 10.2zm-17.9-13.951q-2.775 0-5.4001 1.275-2.55 1.2-4.425 3.375v24.3q1.8.82501 3.45 1.2 1.7251.3 3.9001.3 6.3001 0 9.5251-3.9 3.225-3.975 3.225-11.625 0-7.2001-2.7-11.025-2.625-3.9-7.5751-3.9z"/>
  <path style="fill:#404040" d="m1517.3 107.47-.6-4.9501q-2.2501 2.7-5.4751 4.2-3.15 1.425-7.1251 1.425-3.675 0-6.3751-1.275-2.625-1.35-4.125-3.75-1.425-2.4-1.425-5.6251 0-5.9251 4.35-9.0751 4.4251-3.15 12.675-3.15 1.575 0 3.375 0.15t3.6001.45001v-4.05q0-4.5001-2.2501-6.6751-2.175-2.175-6.75-2.175-3.2251 0-6.1501.97501-2.9251.90001-6.0001 2.925v-5.1751q3-1.875 6.5251-2.925 3.6-1.05 7.3501-1.05 6.9001 0 10.575 3.525 3.6751 3.525 3.6751 10.2v20.775l5.7.375v3.825l-9.9751 1.05h-1.575zm-17.9-10.879q0 3.225 1.8 4.9501 1.875 1.725 5.4001 1.725 2.85 0 5.1-1.125 2.325-1.125 4.5001-3.6v-8.2501q-2.1001-.52501-3.8251-.75001t-3.375-0.225q-4.8751 0-7.2751 1.8-2.325 1.8-2.325 5.4751z"/>
  <path style="fill:#404040" d="m1539.6 56.09-5.7751-0.375v-3.825l11.4-1.05h1.575v52.051l5.3251.375v3.9h-17.85v-3.9l5.3251-.375v-46.801z"/>
  <path style="fill:#404040" d="m1594.6 103.27v3.9h-18v-3.9l5.3251-.375v-29.4l-5.7001-0.375v-3.825l10.2-1.05h1.575l.75 5.5501q2.625-3.075 5.7001-4.5751 3.075-1.5 6.825-1.5 6.0751 0 9.3001 3.6 3.3001 3.6 3.3001 10.425v21.15l5.3251.375v3.9h-18v-3.9l5.4751-.375v-20.775q0-4.3501-1.95-6.6751t-5.6251-2.325q-2.85 0-5.3251 1.2-2.4 1.125-4.65 3.675v24.9l5.4751.375z"/>
  <path style="fill:#404040" d="m1650.2 107.47-.6-4.9501q-2.25 2.7-5.475 4.2-3.1501 1.425-7.1251 1.425-3.6751 0-6.3751-1.275-2.625-1.35-4.125-3.75-1.4251-2.4-1.4251-5.6251 0-5.9251 4.3501-9.0751 4.425-3.15 12.675-3.15 1.5751 0 3.3751 0.15t3.6.45001v-4.05q0-4.5001-2.25-6.6751-2.175-2.175-6.7501-2.175-3.225 0-6.1501.97501-2.925.90001-6 2.925v-5.1751q3-1.875 6.5251-2.925 3.6-1.05 7.35-1.05 6.9001 0 10.575 3.525 3.675 3.525 3.675 10.2v20.775l5.7001.375v3.825l-9.9751 1.05h-1.5751zm-17.925-10.875q0 3.225 1.8 4.9501 1.8751 1.725 5.4001 1.725 2.85 0 5.1001-1.125 2.325-1.125 4.5-3.6v-8.2501q-2.1-.52501-3.825-.75001t-3.3751-0.225q-4.875 0-7.275 1.8-2.3251 1.8-2.3251 5.4751z"/>
  <path style="fill:#404040" d="m1701.8 73.19q-2.175 5.7751-4.575 11.775-2.4001 5.9251-4.8001 11.625-2.4 5.6251-4.575 10.575h-6.0001q-2.175-4.9501-4.5751-10.575-2.4-5.7001-4.8-11.7-2.4001-6.0751-4.5751-12l-4.7251-0.3v-3.9h18.075v3.9l-5.7751 0.3q1.35 4.1251 3.075 8.7751 1.8001 4.6501 3.6001 9.3751 1.875 4.6501 3.675 8.8501 1.8-4.3501 3.6751-9.0001 1.875-4.6501 3.6-9.1501 1.725-4.5751 3.1501-8.5501l-5.2501-.60001v-3.9h15.525v3.9l-4.7251.60001z"/>
  <path style="fill:#404040" d="m1718.6 61.49q-2.1 0-3.2251-1.125-1.125-1.2-1.125-3.225t1.275-3.225q1.2751-1.2 3.5251-1.2 2.025 0 3.15 1.2 1.2 1.125 1.2 3.075 0 2.1-1.275 3.3t-3.525 1.2zm9.6751 45.676h-17.85v-3.9l5.325-.375v-29.4l-5.7-0.375v-3.825l11.325-1.05h1.575v34.65l5.3251.375v3.9z"/>
  <path style="fill:#404040" d="m1769.9 111.67q0 3-1.425 5.4751-1.35 2.475-3.975 4.2-2.6251 1.8-6.2251 2.775-3.6.97501-7.9501.97501-8.0251 0-12.375-2.55-4.275-2.55-4.275-7.3501 0-3.375 2.175-5.9251 2.2501-2.55 6.2251-3.825-1.95-.90001-3.075-2.4-1.0501-1.5-1.0501-3.45 0-2.25 1.2001-3.9 1.275-1.725 3.675-3-3.45-1.425-5.3251-4.2751-1.875-2.925-1.875-6.9751 0-4.2751 1.95-7.3501 2.0251-3.075 5.7001-4.7251 3.6751-1.65 8.7001-1.65 1.875 0 3.5251 0.3 1.65 0.225 3 .67501h12.375v4.5001l-7.1251-.67501q3.375 3.225 3.375 8.0251 0 4.1251-2.025 7.2001-1.95 3.075-5.7001 4.7251-3.675 1.65-8.7751 1.65-2.25 0-4.275-0.375-2.1001 1.65-2.1001 3.975 0 1.575 1.05 2.475 1.1251.82501 3.1501.90002l8.7001.3q12.75.45 12.75 10.275zm-18.375-39.6q-4.2 0-6.6001 2.4-2.325 2.325-2.325 6.6001 0 4.2001 2.175 6.4501 2.2501 2.25 6.4501 2.25 4.3501 0 6.6751-2.325 2.325-2.4 2.325-6.6751 0-4.2001-2.25-6.4501t-6.4501-2.25zm-11.4 42.076q0 6.3001 10.65 6.3001 6.0001 0 9.3001-2.1 3.3001-2.025 3.3001-5.7751 0-2.7-1.8751-4.05-1.875-1.35-5.85-1.5l-9.3001-.37501q-3.0001 1.05-4.6501 2.925-1.575 1.95-1.575 4.5751z"/>
  <path style="fill:#404040" d="m1800.2 107.47-.6-4.9501q-2.25 2.7-5.4751 4.2-3.15 1.425-7.1251 1.425-3.675 0-6.375-1.275-2.6251-1.35-4.1251-3.75-1.425-2.4-1.425-5.6251 0-5.9251 4.3501-9.0751 4.425-3.15 12.675-3.15 1.575 0 3.375 0.15 1.8001 0.15 3.6001.45001v-4.05q0-4.5001-2.25-6.6751-2.1751-2.175-6.7501-2.175-3.2251 0-6.1501.97501-2.925.90001-6.0001 2.925v-5.1751q3.0001-1.875 6.5251-2.925 3.6001-1.05 7.3501-1.05 6.9001 0 10.575 3.525 3.6751 3.525 3.6751 10.2v20.775l5.7.375v3.825l-9.9751 1.05h-1.575zm-17.925-10.875q0 3.225 1.8 4.9501 1.875 1.725 5.4001 1.725 2.85 0 5.1-1.125 2.3251-1.125 4.5001-3.6v-8.2501q-2.1-.52501-3.8251-.75001-1.725-0.225-3.375-0.225-4.8751 0-7.2751 1.8-2.325 1.8-2.325 5.4751z"/>
  <path style="fill:#404040" d="m1841.5 106.12q-2.25 1.05-4.2 1.5-1.8751.45-4.3501.45-5.4751 0-8.1751-3-2.625-3-2.625-9.2251v-22.5h-7.5001v-3.975l7.5001-.52501v-10.725l7.2001-1.65v12.225h11.175v4.6501h-11.175v21.9q0 4.05 1.275 5.9251 1.35 1.8 4.425 1.8 1.6501 0 3.3001-.45001 1.65-.525 3.15-1.425v5.0251z"/>
  <path style="fill:#404040" d="m1855 61.49q-2.1 0-3.225-1.125-1.125-1.2-1.125-3.225t1.275-3.225 3.5251-1.2q2.025 0 3.15 1.2 1.2 1.125 1.2 3.075 0 2.1-1.275 3.3t-3.5251 1.2zm9.6752 45.676h-17.85v-3.9l5.3251-.375v-29.4l-5.7001-0.375v-3.825l11.325-1.05h1.575v34.65l5.3251.375v3.9z"/>
  <path style="fill:#404040" d="m1888.9 108.14q-5.6251 0-9.6001-2.325-3.9751-2.325-6.0751-6.6751t-2.1-10.425q0-6.4501 2.325-11.175 2.4-4.7251 6.6751-7.2751 4.35-2.55 10.35-2.55 5.5501 0 9.5251 2.325 4.0501 2.325 6.1501 6.6751t2.1 10.425q0 6.5251-2.4 11.25-2.325 4.6501-6.6751 7.2001-4.35 2.55-10.275 2.55zm1.05-35.85q-5.3251 0-8.3251 4.2001-2.925 4.2001-2.925 11.775 0 7.3501 2.775 11.325 2.85 3.9751 7.9501 3.9751 5.3251 0 8.2501-4.2001 3-4.2001 3-11.775 0-7.2751-2.85-11.25-2.775-4.05-7.8751-4.05z"/>
  <path style="fill:#404040" d="m1933.1 103.27v3.9h-18v-3.9l5.325-.375v-29.4l-5.7-0.375v-3.825l10.2-1.05h1.575l.75 5.5501q2.625-3.075 5.7001-4.5751 3.075-1.5 6.8251-1.5 6.075 0 9.3001 3.6 3.3 3.6 3.3 10.425v21.15l5.3251.375v3.9h-18v-3.9l5.475-.375v-20.775q0-4.3501-1.95-6.6751t-5.6251-2.325q-2.85 0-5.325 1.2-2.4001 1.125-4.6501 3.675v24.9l5.4751.375z"/>
 </g>
 <g style="fill:#404040">
  <path style="fill:#404040" d="m1357.2 268.15q0 5.0251-2.4001 8.6251-2.4 3.6-6.9 5.6251-4.4251 1.95-10.5 1.95-9.9751 0-17.55-3.675l-.45-12.825h5.4751l1.8 9.4501q2.325 1.2 4.9501 1.725 2.625.52501 5.925.52501 3.6751 0 6.3751-1.2 2.775-1.275 4.2001-3.525 1.5-2.25 1.5-5.4001 0-2.7-1.2-4.5751-1.125-1.875-3.9001-3.225-2.7-1.35-7.5751-2.475-6.225-1.5-9.9001-3.45-3.675-1.95-5.3251-4.8001-1.65-2.85-1.65-6.9751 0-4.6501 2.325-8.1001 2.4001-3.525 6.6751-5.4001 4.2751-1.95 10.125-1.95 4.125 0 8.0251.82501 3.9.82501 7.8 2.55l.4501 12.15h-5.3251l-1.725-8.8501q-2.0251-.97501-4.2751-1.425-2.25-.45001-5.1-.45001-3.5251 0-6.1501 1.125-2.6251 1.125-4.0501 3.225-1.35 2.1-1.35 5.0251 0 2.1.525 3.6.6 1.5 1.95 2.625 1.3501 1.05 3.7501 1.95 2.4.90001 6.0751 1.8 6.375 1.5 10.125 3.525 3.825 2.025 5.5501 4.9501 1.725 2.85 1.725 7.0501z"/>
  <path style="fill:#404040" d="m1372.8 237.55q-2.1 0-3.225-1.125-1.125-1.2-1.125-3.225t1.275-3.225 3.525-1.2q2.0251 0 3.1501 1.2 1.2 1.125 1.2 3.075 0 2.1-1.275 3.3t-3.5251 1.2zm9.6751 45.676h-17.85v-3.9l5.3251-.37501v-29.4l-5.7001-.375v-3.825l11.325-1.05h1.575v34.65l5.325.37501v3.9z"/>
  <path style="fill:#404040" d="m1413 282.17q-2.25 1.05-4.2 1.5-1.875.45001-4.3501.45001-5.475 0-8.1751-3-2.625-3-2.625-9.2251v-22.5h-7.5001v-3.975l7.5001-.52501v-10.725l7.2001-1.65v12.225h11.175v4.6501h-11.175v21.9q0 4.05 1.275 5.9251 1.35 1.8 4.4251 1.8 1.65 0 3.3-.45 1.65-.52501 3.15-1.425v5.0251z"/>
  <path style="fill:#404040" d="m1450.6 280.67q-2.4001 1.65-6.0001 2.55-3.6001.97501-7.5751.97501-5.9251 0-10.125-2.325-4.2001-2.4-6.3751-6.9751-2.175-4.575-2.175-11.1 0-6.0751 2.175-10.575 2.25-4.5001 6.3001-6.9751 4.05-2.475 9.5251-2.475 7.5751 0 11.625 5.0251 4.1251 5.0251 4.1251 14.4v1.95h-26.475q.45 7.0501 3.675 10.5 3.3 3.375 9.5251 3.375 3.2251 0 6.0751-.82501 2.925-.82501 5.7001-2.625v5.1001zm-14.625-32.325q-4.5001 0-7.2751 3.3-2.7 3.225-3.075 9.0751h19.575q-.225-6.3001-2.55-9.3001-2.2501-3.075-6.6751-3.075z"/>
  <path style="fill:#404040" d="m1494.9 279.32v3.9h-18v-3.9l5.3251-.37501v-29.4l-5.7001-.375v-3.825l10.2-1.05h1.575l.75 5.5501q2.625-3.075 5.7001-4.575 3.075-1.5 6.825-1.5 6.0751 0 9.3002 3.6 3.3 3.6 3.3 10.425v21.15l5.3251.37501v3.9h-18v-3.9l5.4751-.37501v-20.775q0-4.3501-1.95-6.6751t-5.6251-2.325q-2.85 0-5.325 1.2-2.4001 1.125-4.6501 3.675v24.9l5.4751.37501z"/>
  <path style="fill:#404040" d="m1550.5 283.52-.6-4.9501q-2.2501 2.7-5.4751 4.2-3.1501 1.425-7.1251 1.425-3.675 0-6.3751-1.275-2.625-1.35-4.125-3.75-1.425-2.4-1.425-5.6251 0-5.9251 4.35-9.0751 4.4251-3.15 12.675-3.15 1.575 0 3.375.15t3.6.45v-4.05q0-4.5-2.25-6.6751-2.175-2.175-6.7501-2.175-3.225 0-6.15.97502-2.9251.90001-6.0001 2.925v-5.1751q3-1.875 6.5251-2.925 3.6-1.05 7.3501-1.05 6.9 0 10.575 3.525t3.675 10.2v20.775l5.7001.37501v3.825l-9.9751 1.05h-1.575zm-17.925-10.875q0 3.225 1.8001 4.9501 1.875 1.725 5.4 1.725 2.8501 0 5.1001-1.125 2.325-1.125 4.5-3.6v-8.2501q-2.1-.52501-3.825-.75001t-3.375-.225q-4.8751 0-7.2751 1.8-2.3251 1.8-2.3251 5.4751z"/>
  <path style="fill:#404040" d="m1602.1 249.25q-2.1751 5.7751-4.5751 11.775-2.4 5.9251-4.8001 11.625-2.4 5.6251-4.575 10.575h-6.0001q-2.175-4.9501-4.575-10.575-2.4001-5.7001-4.8001-11.7-2.4-6.0751-4.5751-12l-4.725-.3v-3.9h18.075v3.9l-5.7751.3q1.35 4.125 3.0751 8.7751 1.8 4.6501 3.6 9.3751 1.875 4.65 3.6751 8.8501 1.8-4.3501 3.675-9.0001 1.875-4.6501 3.6-9.1501 1.7251-4.575 3.1501-8.5501l-5.2501-.60001v-3.9h15.525v3.9l-4.725.60001z"/>
  <path style="fill:#404040" d="m1618.9 237.55q-2.1 0-3.225-1.125-1.125-1.2-1.125-3.225t1.275-3.225 3.525-1.2q2.025 0 3.1501 1.2 1.2 1.125 1.2 3.075 0 2.1-1.275 3.3-1.2751 1.2-3.5251 1.2zm9.6751 45.676h-17.85v-3.9l5.3251-.37501v-29.4l-5.7001-.375v-3.825l11.325-1.05h1.5751v34.65l5.325.37501v3.9z"/>
  <path style="fill:#404040" d="m1670.2 287.72q0 3-1.425 5.4751-1.3501 2.475-3.9751 4.2-2.625 1.8-6.2251 2.775-3.6.97502-7.9501.97502-8.0251 0-12.375-2.55-4.2751-2.55-4.2751-7.3501 0-3.375 2.1751-5.9251 2.25-2.55 6.225-3.825-1.95-.90001-3.075-2.4-1.05-1.5-1.05-3.45 0-2.25 1.2-3.9 1.275-1.725 3.675-3-3.45-1.425-5.325-4.2751-1.875-2.925-1.875-6.9751 0-4.275 1.95-7.3501 2.025-3.075 5.7-4.7251 3.6751-1.65 8.7002-1.65 1.875 0 3.525.3 1.65.22501 3 .67501h12.375v4.5001l-7.1251-.67501q3.375 3.225 3.375 8.0251 0 4.125-2.025 7.2001-1.95 3.075-5.7001 4.725-3.675 1.65-8.7751 1.65-2.25 0-4.275-.375-2.1 1.65-2.1 3.975 0 1.575 1.05 2.475 1.125.82501 3.15.90001l8.7001.3q12.75.45001 12.75 10.275zm-18.4-39.6q-4.2 0-6.6 2.4-2.3251 2.325-2.3251 6.6001 0 4.2001 2.1751 6.4501 2.25 2.25 6.45 2.25 4.3501 0 6.6751-2.325 2.3251-2.4 2.3251-6.6751 0-4.2-2.2501-6.4501-2.25-2.25-6.4501-2.25zm-11.4 42.076q0 6.3001 10.65 6.3001 6.0001 0 9.3002-2.1 3.3-2.025 3.3-5.7751 0-2.7-1.875-4.05-1.8751-1.35-5.8501-1.5l-9.3001-.375q-3.0001 1.05-4.6501 2.925-1.575 1.95-1.575 4.575z"/>
  <path style="fill:#404040" d="m1700.5 283.52-.6-4.9501q-2.25 2.7-5.4751 4.2-3.15 1.425-7.1251 1.425-3.675 0-6.375-1.275-2.6251-1.35-4.1251-3.75-1.425-2.4-1.425-5.6251 0-5.9251 4.3501-9.0751 4.425-3.15 12.675-3.15 1.575 0 3.375.15 1.8001.15 3.6001.45v-4.05q0-4.5-2.25-6.6751-2.1751-2.175-6.7501-2.175-3.2251 0-6.1501.97502-2.925.90001-6.0001 2.925v-5.1751q3.0001-1.875 6.5251-2.925 3.6001-1.05 7.3501-1.05 6.9001 0 10.575 3.525 3.6751 3.525 3.6751 10.2v20.775l5.7.37501v3.825l-9.9751 1.05h-1.575zm-17.925-10.875q0 3.225 1.8 4.9501 1.875 1.725 5.4001 1.725 2.85 0 5.1-1.125 2.3251-1.125 4.5001-3.6v-8.2501q-2.1-.52501-3.8251-.75001-1.725-.225-3.375-.225-4.8751 0-7.2751 1.8-2.325 1.8-2.325 5.4751z"/>
  <path style="fill:#404040" d="m1741.8 282.17q-2.25 1.05-4.2 1.5-1.8751.45001-4.3501.45001-5.4751 0-8.1751-3-2.625-3-2.625-9.2251v-22.5h-7.5001v-3.975l7.5001-.52501v-10.725l7.2001-1.65v12.225h11.175v4.6501h-11.175v21.9q0 4.05 1.275 5.9251 1.35 1.8 4.425 1.8 1.6501 0 3.3001-.45 1.65-.52501 3.15-1.425v5.0251z"/>
  <path style="fill:#404040" d="m1755.3 237.55q-2.1 0-3.225-1.125-1.125-1.2-1.125-3.225t1.275-3.225 3.525-1.2q2.0251 0 3.1501 1.2 1.2 1.125 1.2 3.075 0 2.1-1.275 3.3t-3.5251 1.2zm9.6752 45.676h-17.85v-3.9l5.3251-.37501v-29.4l-5.7001-.375v-3.825l11.325-1.05h1.575v34.65l5.3251.37501v3.9z"/>
  <path style="fill:#404040" d="m1789.2 284.2q-5.6251 0-9.6001-2.325-3.9751-2.325-6.0751-6.6751t-2.1-10.425q0-6.4501 2.325-11.175 2.4-4.7251 6.6751-7.2751 4.35-2.55 10.35-2.55 5.5501 0 9.5251 2.325 4.0501 2.325 6.1501 6.6751 2.1 4.35 2.1 10.425 0 6.5251-2.4 11.25-2.325 4.65-6.6751 7.2001-4.35 2.55-10.275 2.55zm1.05-35.85q-5.3251 0-8.3251 4.2-2.925 4.2-2.925 11.775 0 7.3501 2.775 11.325 2.85 3.975 7.9501 3.975 5.3251 0 8.2501-4.2 3-4.2 3-11.775 0-7.2751-2.85-11.25-2.775-4.05-7.8751-4.05z"/>
  <path style="fill:#404040" d="m1833.4 279.32v3.9h-18v-3.9l5.3251-.37501v-29.4l-5.7001-.375v-3.825l10.2-1.05h1.575l.75 5.5501q2.6251-3.075 5.7001-4.575t6.8251-1.5q6.0751 0 9.3001 3.6 3.3 3.6 3.3 10.425v21.15l5.3251.37501v3.9h-18v-3.9l5.4751-.37501v-20.775q0-4.3501-1.9501-6.6751-1.95-2.325-5.625-2.325-2.8501 0-5.3251 1.2-2.4 1.125-4.6501 3.675v24.9l5.4751.37501z"/>
 </g>
 <g style="fill:#404040">
  <path style="fill:#404040" d="m1340.2 566.14v4.2h-20.55v-4.2l6.1501-.45001v-44.326l-6.1501-.45001v-4.2h20.625q11.475 0 16.95 3.9 5.55 3.9 5.55 11.925 0 8.7001-6 13.2-6.0001 4.5-17.475 4.5-1.4251 0-3.0001-.075-1.5-.15-3-.375v15.9l6.9001.45001zm-6.9001-44.476v23.475q1.35.225 3 .375 1.65.075 3.0751.075 7.8751 0 11.7-3.15 3.9-3.15 3.9-9.6001 0-6.0001-3.6-8.7751t-11.475-2.775q-1.6501 0-3.3001.075t-3.3.3z"/>
  <path style="fill:#404040" d="m1385.7 571.31q-5.625 0-9.6001-2.325-3.975-2.325-6.075-6.6751-2.1001-4.35-2.1001-10.425 0-6.4501 2.3251-11.175 2.4-4.7251 6.675-7.2751 4.3501-2.55 10.35-2.55 5.55 0 9.5251 2.325 4.05 2.325 6.1501 6.6751 2.1 4.35 2.1 10.425 0 6.5251-2.4 11.25-2.3251 4.6501-6.6751 7.2001-4.3501 2.55-10.275 2.55zm1.0501-35.85q-5.3251 0-8.3251 4.2-2.9251 4.2-2.9251 11.775 0 7.3501 2.7751 11.325 2.85 3.975 7.9501 3.975 5.325 0 8.2501-4.2001 3-4.2 3-11.775 0-7.2751-2.85-11.25-2.7751-4.05-7.8751-4.05z"/>
  <path style="fill:#404040" d="m1431.2 566.44v3.9h-19.275v-3.9l5.325-.375v-29.4l-5.7-.37501v-3.825l10.125-1.05h1.575l.9 6.7501q1.95-3.375 4.6501-5.1751 2.775-1.8 6.075-1.8 1.5751 0 2.9251.3 1.35.30001 2.325.82501v6.6751q-1.275-.75001-2.775-1.2-1.425-.45001-3.0751-.45001-6.225 0-9.8251 5.7001v23.025l6.7501.375z"/>
  <path style="fill:#404040" d="m1469.8 569.29q-2.25 1.05-4.2001 1.5-1.875.45-4.35.45-5.4751 0-8.1751-3-2.625-3-2.625-9.2251v-22.5h-7.5001v-3.975l7.5001-.525v-10.725l7.2-1.65v12.225h11.175v4.65h-11.175v21.9q0 4.05 1.2751 5.9251 1.35 1.8 4.425 1.8 1.65 0 3.3001-.45001 1.65-.525 3.15-1.425v5.0251z"/>
  <path style="fill:#404040" d="m1500.1 570.64-.6-4.9501q-2.25 2.7-5.4751 4.2-3.15 1.425-7.1251 1.425-3.675 0-6.375-1.275-2.6251-1.35-4.1251-3.75-1.425-2.4-1.425-5.6251 0-5.9251 4.3501-9.0751 4.425-3.15 12.675-3.15 1.575 0 3.3751.15 1.8.15 3.6.45001v-4.05q0-4.5001-2.25-6.6751-2.1751-2.175-6.7501-2.175-3.2251 0-6.1501.97501-2.925.90001-6.0001 2.925v-5.1751q3.0001-1.875 6.5251-2.925 3.6001-1.05 7.3501-1.05 6.9001 0 10.575 3.525 3.6751 3.525 3.6751 10.2v20.775l5.7001.375v3.825l-9.9752 1.05h-1.575zm-17.925-10.875q0 3.225 1.8 4.9501 1.875 1.725 5.4001 1.725 2.85 0 5.1-1.125 2.3251-1.125 4.5001-3.6v-8.2501q-2.1-.525-3.8251-.75001-1.725-.225-3.375-.225-4.8751 0-7.2751 1.8-2.325 1.8-2.325 5.4751z"/>
  <path style="fill:#404040" d="m1522.3 519.26-5.7751-.375v-3.825l11.4-1.05h1.575v52.051l5.325.375v3.9h-17.85v-3.9l5.3251-.375v-46.801z"/>
  <path style="fill:#404040" d="m1577.2 571.31q-5.6251 0-9.6001-2.325-3.9751-2.325-6.0751-6.6751-2.1-4.35-2.1-10.425 0-6.4501 2.325-11.175 2.4-4.7251 6.6751-7.2751 4.35-2.55 10.35-2.55 5.5501 0 9.5251 2.325 4.0501 2.325 6.1501 6.6751 2.1 4.35 2.1 10.425 0 6.5251-2.4 11.25-2.325 4.6501-6.6751 7.2001t-10.275 2.55zm1.05-35.85q-5.3251 0-8.3251 4.2-2.9251 4.2-2.9251 11.775 0 7.3501 2.7751 11.325 2.85 3.975 7.9501 3.975 5.325 0 8.2501-4.2001 3-4.2 3-11.775 0-7.2751-2.85-11.25-2.775-4.05-7.8751-4.05z"/>
  <path style="fill:#404040" d="m1622.7 566.44v3.9h-19.275v-3.9l5.3251-.375v-29.4l-5.7001-.37501v-3.825l10.125-1.05h1.575l.9001 6.7501q1.95-3.375 4.65-5.1751 2.775-1.8 6.0751-1.8 1.575 0 2.925.3 1.35.30001 2.325.82501v6.6751q-1.275-.75001-2.775-1.2-1.425-.45001-3.075-.45001-6.2251 0-9.8251 5.7001v23.025l6.75.375z"/>
  <path style="fill:#404040" d="m1679.1 570.64-.6-4.9501q-2.25 2.7-5.4751 4.2-3.15 1.425-7.125 1.425-3.6751 0-6.3751-1.275-2.6251-1.35-4.1251-3.75-1.425-2.4-1.425-5.6251 0-5.9251 4.3501-9.0751 4.425-3.15 12.675-3.15 1.575 0 3.3751.15 1.8.15 3.6.45001v-4.05q0-4.5001-2.25-6.6751-2.1751-2.175-6.7501-2.175-3.2251 0-6.1501.97501-2.925.90001-6.0001 2.925v-5.1751q3.0001-1.875 6.5251-2.925 3.6001-1.05 7.3501-1.05 6.9001 0 10.575 3.525 3.6751 3.525 3.6751 10.2v20.775l5.7001.375v3.825l-9.9752 1.05h-1.575zm-17.925-10.875q0 3.225 1.8 4.9501 1.875 1.725 5.4001 1.725 2.85 0 5.1-1.125 2.3251-1.125 4.5001-3.6v-8.2501q-2.1-.525-3.825-.75001-1.7251-.225-3.3751-.225-4.875 0-7.2751 1.8-2.325 1.8-2.325 5.4751z"/>
  <path style="fill:#404040" d="m1715.6 566.44v3.9h-19.275v-3.9l5.3251-.375v-29.4l-5.7001-.37501v-3.825l10.125-1.05h1.5751l.9 6.7501q1.95-3.375 4.65-5.1751 2.7751-1.8 6.0751-1.8 1.575 0 2.925.3 1.3501.30001 2.3251.82501v6.6751q-1.275-.75001-2.7751-1.2-1.425-.45001-3.075-.45001-6.2251 0-9.8251 5.7001v23.025l6.7501.375z"/>
  <path style="fill:#404040" d="m1754.1 569.29q-2.2501 1.05-4.2001 1.5-1.875.45-4.3501.45-5.475 0-8.1751-3-2.625-3-2.625-9.2251v-22.5h-7.5001v-3.975l7.5001-.525v-10.725l7.2001-1.65v12.225h11.175v4.65h-11.175v21.9q0 4.05 1.275 5.9251 1.35 1.8 4.4251 1.8 1.65 0 3.3-.45001 1.65-.525 3.1501-1.425v5.0251z"/>
  <path style="fill:#404040" d="m1767.6 524.66q-2.1 0-3.2251-1.125-1.125-1.2-1.125-3.225t1.275-3.225q1.2751-1.2 3.5251-1.2 2.025 0 3.15 1.2 1.2 1.125 1.2 3.075 0 2.1-1.275 3.3t-3.525 1.2zm9.6751 45.676h-17.85v-3.9l5.325-.375v-29.4l-5.7-.37501v-3.825l11.325-1.05h1.575v34.65l5.3251.375v3.9z"/>
  <path style="fill:#404040" d="m1815.8 567.49q-2.55 1.875-6.0001 2.85-3.45.97501-7.3501.97501-5.85 0-10.05-2.325-4.2-2.4-6.4501-6.7501-2.25-4.35-2.25-10.35 0-4.7251 1.35-8.5501 1.425-3.825 3.9751-6.6001 2.625-2.85 6.1501-4.3501 3.6-1.5 7.9501-1.5 3.45 0 6.45.82501 3.0751.82501 5.6251 2.55l.45 10.2h-5.0251l-1.35-7.5751q-2.175-1.425-6-1.425-3.6751 0-6.3751 1.95-2.7001 1.95-4.2001 5.4751-1.425 3.45-1.425 8.2501 0 7.1251 3.375 11.1 3.3751 3.9 9.5252 3.9 6.525 0 11.625-3.825v5.1751z"/>
  <path style="fill:#404040" d="m1827.2 519.26-5.7751-.375v-3.825l11.4-1.05h1.575v52.051l5.3251.375v3.9h-17.85v-3.9l5.325-.375v-46.801z"/>
  <path style="fill:#404040" d="m1878.3 567.79q-2.4 1.65-6.0001 2.55-3.6.97501-7.5751.97501-5.9251 0-10.125-2.325-4.2001-2.4-6.3751-6.9751t-2.175-11.1q0-6.0751 2.175-10.575 2.25-4.5 6.3001-6.9751 4.05-2.475 9.5251-2.475 7.5751 0 11.625 5.0251 4.125 5.0251 4.125 14.4v1.95h-26.475q.45 7.0501 3.675 10.5 3.3001 3.375 9.5251 3.375 3.2251 0 6.0751-.82501 2.9251-.82501 5.7001-2.625v5.1001zm-14.625-32.325q-4.5001 0-7.2751 3.3-2.7 3.225-3.075 9.0751h19.575q-.225-6.3001-2.55-9.3001-2.25-3.075-6.6751-3.075z"/>
  <path style="fill:#404040" d="m1350.5 642.49q-2.55 1.875-6.0001 2.85-3.45.97502-7.3501.97502-5.85 0-10.05-2.325-4.2-2.4-6.4501-6.7501-2.25-4.35-2.25-10.35 0-4.7251 1.35-8.5501 1.425-3.825 3.9751-6.6001 2.625-2.85 6.15-4.35 3.6001-1.5 7.9501-1.5 3.4501 0 6.4501.82501 3.0751.82501 5.6251 2.55l.45 10.2h-5.0251l-1.35-7.5751q-2.175-1.425-6.0001-1.425-3.675 0-6.375 1.95-2.7001 1.95-4.2001 5.4751-1.425 3.45-1.425 8.2501 0 7.1251 3.375 11.1 3.3751 3.9 9.5252 3.9 6.525 0 11.625-3.825v5.1751z"/>
  <path style="fill:#404040" d="m1374.7 646.31q-5.6251 0-9.6001-2.325-3.9751-2.325-6.0751-6.6751-2.1-4.35-2.1-10.425 0-6.4501 2.325-11.175 2.4-4.7251 6.6751-7.2751 4.35-2.55 10.35-2.55 5.5501 0 9.5251 2.325 4.0501 2.325 6.1501 6.6751 2.1 4.35 2.1 10.425 0 6.5251-2.4 11.25-2.325 4.65-6.6751 7.2001-4.35 2.55-10.275 2.55zm1.05-35.85q-5.3251 0-8.3251 4.2001-2.925 4.2-2.925 11.775 0 7.3501 2.775 11.325 2.85 3.975 7.9501 3.975 5.3251 0 8.2501-4.2 3-4.2 3-11.775 0-7.2751-2.85-11.25-2.775-4.05-7.8751-4.05z"/>
  <path style="fill:#404040" d="m1419 641.44v3.9h-18v-3.9l5.3251-.37501v-29.4l-5.7001-.37501v-3.825l10.2-1.05h1.575l.75 5.5501q2.6251-3.075 5.7001-4.575 3.0751-1.5 6.8251-1.5 6.0751 0 9.3001 3.6 3.3001 3.6 3.3001 10.425v21.15l5.325.37501v3.9h-18v-3.9l5.4751-.37501v-20.775q0-4.35-1.9501-6.6751-1.95-2.325-5.625-2.325-2.8501 0-5.3251 1.2-2.4 1.125-4.65 3.675v24.9l5.475.37501z"/>
  <path style="fill:#404040" d="m1473 644.29q-2.2501 1.05-4.2001 1.5-1.875.45-4.35.45-5.4751 0-8.1751-3-2.6251-3-2.6251-9.2251v-22.5h-7.5001v-3.975l7.5001-.52501v-10.725l7.2001-1.65v12.225h11.175v4.6501h-11.175v21.9q0 4.05 1.275 5.9251 1.3501 1.8 4.4251 1.8 1.65 0 3.3-.45 1.6501-.52501 3.1501-1.425v5.0251z"/>
  <path style="fill:#404040" d="m1510.7 642.79q-2.4 1.65-6.0001 2.55-3.6.97502-7.5751.97502-5.925 0-10.125-2.325-4.2-2.4-6.3751-6.9751-2.175-4.5751-2.175-11.1 0-6.0751 2.175-10.575 2.2501-4.5 6.3001-6.9751 4.0501-2.475 9.5251-2.475 7.5751 0 11.625 5.0251 4.125 5.0251 4.125 14.4v1.95h-26.475q.45 7.0501 3.675 10.5 3.3001 3.375 9.5252 3.375 3.225 0 6.075-.82501 2.9251-.82501 5.7001-2.625v5.1001zm-14.625-32.325q-4.5 0-7.2751 3.3-2.7 3.225-3.075 9.0751h19.575q-.225-6.3001-2.55-9.3001-2.25-3.075-6.6751-3.075z"/>
  <path style="fill:#404040" d="m1536.8 641.44v3.9h-18v-3.9l5.3251-.37501v-29.4l-5.7001-.37501v-3.825l10.2-1.05h1.575l.75 5.5501q2.6251-3.075 5.7001-4.575 3.0751-1.5 6.8251-1.5 6.0751 0 9.3001 3.6 3.3001 3.6 3.3001 10.425v21.15l5.325.37501v3.9h-18v-3.9l5.4751-.37501v-20.775q0-4.35-1.9501-6.6751-1.95-2.325-5.625-2.325-2.8501 0-5.3251 1.2-2.4 1.125-4.6501 3.675v24.9l5.4751.37501z"/>
  <path style="fill:#404040" d="m1590.8 644.29q-2.2501 1.05-4.2001 1.5-1.875.45-4.35.45-5.4751 0-8.1751-3-2.6251-3-2.6251-9.2251v-22.5h-7.5001v-3.975l7.5001-.52501v-10.725l7.2001-1.65v12.225h11.175v4.6501h-11.175v21.9q0 4.05 1.275 5.9251 1.35 1.8 4.4251 1.8 1.65 0 3.3-.45 1.65-.52501 3.1501-1.425v5.0251z"/>
 </g>
</svg>
